<?xml version="1.0" encoding="UTF-8"?>
<svg version="1.1" xmlns="http://www.w3.org/2000/svg" width="250" height="196">
<path d="M0 0 C3.63 0 7.26 0 11 0 C13.51976079 2.71707197 14.67762264 4.29548017 16.1875 7.5 C16.56712891 8.21542969 16.94675781 8.93085937 17.33789062 9.66796875 C18.26360153 11.42564769 19.13724349 13.2105791 20 15 C20.33 10.05 20.66 5.1 21 0 C23.97 0 26.94 0 30 0 C30 10.89 30 21.78 30 33 C20 33 20 33 17.5625 30.91796875 C17.046875 30.01691406 16.53125 29.11585937 16 28.1875 C15.46375 27.29417969 14.9275 26.40085937 14.375 25.48046875 C13.92125 24.66191406 13.4675 23.84335938 13 23 C12.34 22.01 11.68 21.02 11 20 C10.67 24.29 10.34 28.58 10 33 C6.7 33 3.4 33 0 33 C0 22.11 0 11.22 0 0 Z " fill="#000000" transform="translate(88,54)"/>
<path d="M0 0 C5.0428125 -0.0928125 5.0428125 -0.0928125 10.1875 -0.1875 C11.76374146 -0.22846802 11.76374146 -0.22846802 13.37182617 -0.27026367 C19.60753074 -0.3258702 23.20629423 0.30262891 27.8125 4.75 C29.52868326 8.00171564 29.38162088 10.37460162 29 14 C27.59539303 16.87305972 26.25489001 18.74510999 24 21 C24.75796875 22.04800781 24.75796875 22.04800781 25.53125 23.1171875 C26.50578125 24.48230469 26.50578125 24.48230469 27.5 25.875 C28.1496875 26.77992187 28.799375 27.68484375 29.46875 28.6171875 C31 31 31 31 31 33 C26.85172442 33.6041178 23.11814877 33.88884692 19 33 C16.75378616 30.57201163 15.54074325 28.29117897 14.18359375 25.28515625 C13.1645057 22.66763801 13.1645057 22.66763801 10 22 C10 25.63 10 29.26 10 33 C6.7 33 3.4 33 0 33 C0 22.11 0 11.22 0 0 Z M10 8 C10 10.31 10 12.62 10 15 C14.25731568 15.40749675 14.25731568 15.40749675 17.875 13.5 C18.24625 13.005 18.6175 12.51 19 12 C18.67 11.01 18.34 10.02 18 9 C15.29120665 7.64560332 12.99066732 7.93498549 10 8 Z " fill="#000000" transform="translate(218,54)"/>
<path d="M0 0 C3.196875 -0.061875 6.39375 -0.12375 9.6875 -0.1875 C11.18543091 -0.22846802 11.18543091 -0.22846802 12.71362305 -0.27026367 C17.60045592 -0.31605465 21.08380688 -0.29406875 25 3 C26.5121867 6.02437339 26.17263369 8.66241534 26 12 C25 14.4375 25 14.4375 24 16 C24.72896484 16.60521484 24.72896484 16.60521484 25.47265625 17.22265625 C27.83306982 19.96942908 27.47474649 22.34670983 27.35546875 25.83984375 C27 28 27 28 25.25 30.5 C21.73501894 32.8433207 18.6169244 33.12579003 14.453125 33.09765625 C13.69161133 33.09515869 12.93009766 33.09266113 12.14550781 33.09008789 C11.18999023 33.08098389 10.23447266 33.07187988 9.25 33.0625 C4.67125 33.0315625 4.67125 33.0315625 0 33 C0 22.11 0 11.22 0 0 Z M9 8 C9 9.65 9 11.3 9 13 C12.465 12.505 12.465 12.505 16 12 C15.67 10.68 15.34 9.36 15 8 C13.02 8 11.04 8 9 8 Z M9 20 C9 21.65 9 23.3 9 25 C10.98 25 12.96 25 15 25 C15.66 23.68 16.32 22.36 17 21 C15.81575674 19.58422523 15.81575674 19.58422523 12.4375 19.9375 C10.7359375 19.9684375 10.7359375 19.9684375 9 20 Z " fill="#000000" transform="translate(3,1)"/>
<path d="M0 0 C8.25 0 16.5 0 25 0 C25 2.97 25 5.94 25 9 C20.05 9 15.1 9 10 9 C10 9.99 10 10.98 10 12 C14.29 12 18.58 12 23 12 C23 14.64 23 17.28 23 20 C18.71 20 14.42 20 10 20 C10 21.32 10 22.64 10 24 C15.28 24 20.56 24 26 24 C26 26.97 26 29.94 26 33 C17.42 33 8.84 33 0 33 C0 22.11 0 11.22 0 0 Z " fill="#000000" transform="translate(46,1)"/>
<path d="M0 0 C8.25 0 16.5 0 25 0 C25 2.97 25 5.94 25 9 C20.05 9 15.1 9 10 9 C10 9.99 10 10.98 10 12 C14.29 12 18.58 12 23 12 C23 14.64 23 17.28 23 20 C18.71 20 14.42 20 10 20 C10 21.32 10 22.64 10 24 C11.60681641 23.98259766 11.60681641 23.98259766 13.24609375 23.96484375 C14.64322743 23.95546701 16.04036299 23.94636669 17.4375 23.9375 C18.14455078 23.92912109 18.85160156 23.92074219 19.58007812 23.91210938 C21.38693559 23.90346412 23.19387603 23.94779989 25 24 C26 25 26 25 26 33 C17.42 33 8.84 33 0 33 C0 22.11 0 11.22 0 0 Z " fill="#000000" transform="translate(177,54)"/>
<path d="M0 0 C8.25 0 16.5 0 25 0 C25 2.97 25 5.94 25 9 C20.05 9 15.1 9 10 9 C10 9.99 10 10.98 10 12 C14.29 12 18.58 12 23 12 C23 14.64 23 17.28 23 20 C18.71 20 14.42 20 10 20 C10 21.32 10 22.64 10 24 C11.60681641 23.98259766 11.60681641 23.98259766 13.24609375 23.96484375 C14.64322743 23.95546701 16.04036299 23.94636669 17.4375 23.9375 C18.14455078 23.92912109 18.85160156 23.92074219 19.58007812 23.91210938 C21.38693559 23.90346412 23.19387603 23.94779989 25 24 C26 25 26 25 26 33 C17.42 33 8.84 33 0 33 C0 22.11 0 11.22 0 0 Z " fill="#000000" transform="translate(46,54)"/>
<path d="M0 0 C3.63 0 7.26 0 11 0 C14.37953988 6.4645327 17.11478703 13.07666556 19.75 19.875 C20.16121094 20.91914063 20.57242188 21.96328125 20.99609375 23.0390625 C24 30.74343335 24 30.74343335 24 33 C20.37 33 16.74 33 13 33 C12.34 31.68 11.68 30.36 11 29 C8.35212912 28.29626983 8.35212912 28.29626983 5.375 28.25 C4.37210938 28.19328125 3.36921875 28.1365625 2.3359375 28.078125 C1.17964844 28.03945313 1.17964844 28.03945313 0 28 C-0.33 29.65 -0.66 31.3 -1 33 C-4.96 33 -8.92 33 -13 33 C-11.39750088 28.81185503 -9.79306347 24.62447011 -8.1875 20.4375 C-7.73568359 19.25607422 -7.28386719 18.07464844 -6.81835938 16.85742188 C-4.64398457 11.1913503 -2.45369197 5.55137618 0 0 Z M5 12 C4.34 14.31 3.68 16.62 3 19 C4.65 19 6.3 19 8 19 C7.34 16.69 6.68 14.38 6 12 C5.67 12 5.34 12 5 12 Z " fill="#000000" transform="translate(184,1)"/>
<path d="M0 0 C1.87907267 0.9496028 3.697652 2.01725864 5.5 3.10546875 C3.94805246 6.43306798 2.19378051 8.5912736 -0.5 11.10546875 C-1.49 10.77546875 -2.48 10.44546875 -3.5 10.10546875 C-5.06118428 10.0380601 -6.6250252 10.02032419 -8.1875 10.04296875 C-8.99574219 10.05199219 -9.80398437 10.06101562 -10.63671875 10.0703125 C-11.25160156 10.08191406 -11.86648438 10.09351563 -12.5 10.10546875 C-13.6845131 13.65900804 -13.76641894 16.37560353 -13.5 20.10546875 C-12.58333333 22.18880208 -12.58333333 22.18880208 -10.5 23.10546875 C-6.46329663 23.39904718 -3.4409388 23.09070345 0.5 22.10546875 C2.975 25.57046875 2.975 25.57046875 5.5 29.10546875 C-0.72168165 34.31822905 -5.56728592 34.72005492 -13.5 34.10546875 C-18.78923987 32.34238879 -21.30008936 29.49391763 -24.5 25.10546875 C-26.19868838 20.00940361 -26.51153119 14.11257507 -24.78125 8.96875 C-19.72272018 -0.43440422 -9.93453812 -3.55470192 0 0 Z " fill="#000000" transform="translate(26.5,53.89453125)"/>
<path d="M0 0 C9.24 0 18.48 0 28 0 C28 2.97 28 5.94 28 9 C25.03 9 22.06 9 19 9 C19 16.92 19 24.84 19 33 C15.7 33 12.4 33 9 33 C9 25.08 9 17.16 9 9 C6.03 9 3.06 9 0 9 C0 6.03 0 3.06 0 0 Z " fill="#000000" transform="translate(133,54)"/>
<path d="M0 0 C3.63 0 7.26 0 11 0 C11 7.92 11 15.84 11 24 C14.96 24 18.92 24 23 24 C23 26.97 23 29.94 23 33 C15.41 33 7.82 33 0 33 C0 22.11 0 11.22 0 0 Z " fill="#000000" transform="translate(135,1)"/>
<path d="M0 0 C3.63 0 7.26 0 11 0 C11 7.92 11 15.84 11 24 C14.96 24 18.92 24 23 24 C23 26.97 23 29.94 23 33 C15.41 33 7.82 33 0 33 C0 22.11 0 11.22 0 0 Z " fill="#000000" transform="translate(92,1)"/>
<path d="M0 0 C5.00230198 2.45567552 8.49851535 5.9970307 11 11 C11.5072965 16.55531248 11.76260422 21.41830236 9.3125 26.5 C2.66556448 33.68587624 2.66556448 33.68587624 -2.3203125 34.2734375 C-9.24427559 34.52416597 -13.74184976 33.6509437 -19 29 C-22.73648721 24.7813854 -23.13320941 19.46991128 -23 14 C-22.15509911 9.58690162 -20.78915613 6.76892136 -17.5625 3.625 C-11.6259116 -0.13966582 -7.03448399 -0.82698578 0 0 Z M-17.875 9.125 C-19.56484251 13.44348642 -19.65960983 17.4267052 -19 22 C-16.83592096 26.40830916 -14.57493538 29.12843553 -10 31 C-6.03148815 31.58075783 -2.94747025 31.40913488 0.75 29.8125 C3.85485394 27.31136766 6.21336676 24.57326648 8 21 C8.54449744 14.57493026 7.80407493 11.24345463 4 6 C0.37203494 2.78665952 -3.09847541 2.47687847 -7.78515625 2.6484375 C-12.28174868 3.36218233 -14.95324651 5.81367937 -17.875 9.125 Z " fill="#000000" transform="translate(109,107)"/>
<path d="M0 0 C4 0 4 0 5.56811523 1.54125977 C6.05997314 2.25080811 6.55183105 2.96035645 7.05859375 3.69140625 C7.60966797 4.47193359 8.16074219 5.25246094 8.72851562 6.05664062 C9.29248047 6.88357422 9.85644531 7.71050781 10.4375 8.5625 C10.99759766 9.36236328 11.55769531 10.16222656 12.13476562 10.98632812 C13.1967398 12.50431922 14.2533163 14.02611239 15.30249023 15.55297852 C17.50268741 18.72464201 19.7563666 21.85891324 22 25 C22.33 16.75 22.66 8.5 23 0 C23.99 0 24.98 0 26 0 C26 10.56 26 21.12 26 32 C20.75466235 30.95093247 20.19109909 30.51752376 17.34765625 26.375 C16.94417969 25.75625 16.54070312 25.1375 16.125 24.5 C12.28520564 18.79659209 8.24332394 13.4557022 4 8 C3.67 15.92 3.34 23.84 3 32 C2.01 32 1.02 32 0 32 C0 21.44 0 10.88 0 0 Z " fill="#000000" transform="translate(219,108)"/>
<path d="M0 0 C1.32 0 2.64 0 4 0 C5.78254818 2.076608 7.25310975 4.04343701 8.75 6.3125 C9.62704937 7.59282814 10.50466159 8.87277089 11.3828125 10.15234375 C11.81883789 10.79671387 12.25486328 11.44108398 12.70410156 12.10498047 C14.61944816 14.90583206 16.61949904 17.6379551 18.625 20.375 C20.295625 22.664375 20.295625 22.664375 22 25 C22.33 16.75 22.66 8.5 23 0 C23.99 0 24.98 0 26 0 C26 10.56 26 21.12 26 32 C20.37625388 30.87525078 20.37625388 30.87525078 17.80859375 27.140625 C17.25623047 26.35429687 16.70386719 25.56796875 16.13476562 24.7578125 C15.57466797 23.93023437 15.01457031 23.10265625 14.4375 22.25 C13.31217377 20.62953022 12.18589584 19.00972087 11.05859375 17.390625 C10.56673584 16.66907227 10.07487793 15.94751953 9.56811523 15.20410156 C7.80867782 12.73108257 5.8959719 10.36996487 4 8 C3.67 15.92 3.34 23.84 3 32 C2.01 32 1.02 32 0 32 C0 21.44 0 10.88 0 0 Z " fill="#000000" transform="translate(219,161)"/>
<path d="M0 0 C1.6484375 1.09375 1.6484375 1.09375 3.9609375 3.09375 C3.6309375 3.75375 3.3009375 4.41375 2.9609375 5.09375 C0.57529673 4.51790568 -1.70589034 3.87147405 -4.0390625 3.09375 C-8.76945585 2.70601284 -11.09452649 2.61257128 -15.3515625 4.78125 C-19.5060506 8.35604209 -20.86548029 10.53151011 -21.4765625 16.03125 C-21.29900377 20.3088013 -19.84919996 22.82791458 -17.0390625 26.09375 C-13.02832252 29.08768266 -10.17992348 29.43135185 -5.2265625 29.28125 C-4.06511719 29.25417969 -2.90367187 29.22710937 -1.70703125 29.19921875 C-0.82660156 29.16441406 0.05382812 29.12960938 0.9609375 29.09375 C0.9609375 25.46375 0.9609375 21.83375 0.9609375 18.09375 C-1.6790625 18.09375 -4.3190625 18.09375 -7.0390625 18.09375 C-7.0390625 17.10375 -7.0390625 16.11375 -7.0390625 15.09375 C-3.4090625 15.09375 0.2209375 15.09375 3.9609375 15.09375 C3.9609375 20.37375 3.9609375 25.65375 3.9609375 31.09375 C-2.32997984 33.61011694 -8.56392912 34.37235954 -15.19921875 32.4765625 C-20.07460327 30.05494293 -23.10265375 26.05846319 -25.0390625 21.09375 C-26.07225778 15.80177418 -25.6204329 11.44433896 -22.9765625 6.71875 C-17.63778279 -0.62764883 -8.72427645 -3.8774562 0 0 Z " fill="#000000" transform="translate(156.0390625,160.90625)"/>
<path d="M0 0 C1.81152344 0.11767578 1.81152344 0.11767578 4 1 C5.55566406 3.63623047 5.55566406 3.63623047 7.015625 7.1171875 C7.27631775 7.73014679 7.5370105 8.34310608 7.80560303 8.97463989 C8.35373109 10.27129646 8.89460173 11.5710414 9.42871094 12.87353516 C10.24659763 14.86670849 11.08594667 16.84968334 11.9296875 18.83203125 C16 28.51898123 16 28.51898123 16 32 C14.68 31.67 13.36 31.34 12 31 C11.34 28.69 10.68 26.38 10 24 C1.585 24.495 1.585 24.495 -7 25 C-7.99 27.31 -8.98 29.62 -10 32 C-11.32 31.67 -12.64 31.34 -14 31 C-12.3315228 27.06563786 -10.65906027 23.13300162 -8.98291016 19.2019043 C-8.4134559 17.86480496 -7.84508654 16.52724303 -7.27783203 15.18920898 C-6.46152076 13.26422977 -5.64130152 11.34095678 -4.8203125 9.41796875 C-4.32805176 8.26063232 -3.83579102 7.1032959 -3.32861328 5.91088867 C-2 3 -2 3 0 0 Z M1 4 C-1.31 9.61 -3.62 15.22 -6 21 C-1.38 21 3.24 21 8 21 C6.31108451 15.12900806 4.53630629 9.55571853 2 4 C1.67 4 1.34 4 1 4 Z " fill="#000000" transform="translate(102,161)"/>
<path d="M0 0 C2.7225 -0.04125 5.445 -0.0825 8.25 -0.125 C9.10110352 -0.14320801 9.95220703 -0.16141602 10.82910156 -0.18017578 C17.88632947 -0.23199342 17.88632947 -0.23199342 21 2 C23.54575791 5.43677318 23.43672876 8.85107675 23 13 C21.20437595 15.75329021 19.94745078 17.52627461 17 19 C12.66396021 19.1393329 8.33919329 19.04254111 4 19 C4 23.29 4 27.58 4 32 C2.68 32 1.36 32 0 32 C0 21.44 0 10.88 0 0 Z M4 2 C4 6.62 4 11.24 4 16 C11.92892015 16.83516577 11.92892015 16.83516577 18.8125 13.875 C20.312525 10.24336053 20.50817632 8.65137426 19 5 C13.91636862 1.88757262 9.87055429 1.69102346 4 2 Z " fill="#000000" transform="translate(138,108)"/>
<path d="M0 0 C7.26 0 14.52 0 22 0 C21.67 0.99 21.34 1.98 21 3 C15.06 3 9.12 3 3 3 C3 6.63 3 10.26 3 14 C8.28 14 13.56 14 19 14 C19 14.99 19 15.98 19 17 C13.72 17 8.44 17 3 17 C3 20.96 3 24.92 3 29 C9.27 29 15.54 29 22 29 C22 29.99 22 30.98 22 32 C14.74 32 7.48 32 0 32 C0 21.44 0 10.88 0 0 Z " fill="#000000" transform="translate(178,108)"/>
<path d="M0 0 C0.99 0 1.98 0 3 0 C3 4.62 3 9.24 3 14 C9.27 14 15.54 14 22 14 C22 9.38 22 4.76 22 0 C22.99 0 23.98 0 25 0 C25 10.56 25 21.12 25 32 C24.01 32 23.02 32 22 32 C22 27.05 22 22.1 22 17 C15.73 17 9.46 17 3 17 C3 21.95 3 26.9 3 32 C2.01 32 1.02 32 0 32 C0 21.44 0 10.88 0 0 Z " fill="#000000" transform="translate(47,161)"/>
<path d="M0 0 C1.875 1.6875 1.875 1.6875 2.875 4.6875 C-1.875 3.8125 -1.875 3.8125 -4.125 2.6875 C-8.33726823 2.25717004 -12.03559104 2.26120954 -16 3.8125 C-19.17632329 6.6151382 -20.7931486 9.40999929 -21.41015625 13.64453125 C-21.61701794 18.34838631 -20.8094024 21.7071792 -18.125 25.6875 C-14.431136 28.94679176 -10.94135599 29.12945456 -6.203125 28.99609375 C-3.53896298 28.6004757 -2.14612192 27.40919645 -0.125 25.6875 C2.125 26 2.125 26 3.875 26.6875 C-0.38012375 31.05460069 -2.22083174 32.84035628 -8.3125 33 C-13.88562756 32.9270533 -16.75340412 32.16693346 -21.125 28.6875 C-25.30553936 23.54222079 -25.75828516 19.12711713 -25.50390625 12.5625 C-24.74798197 6.82682712 -22.64783571 3.89955291 -18.0625 0.25 C-12.43347762 -2.57059005 -5.71265804 -2.39931638 0 0 Z " fill="#000000" transform="translate(68.125,108.3125)"/>
<path d="M0 0 C7.26 0 14.52 0 22 0 C22 0.99 22 1.98 22 3 C15.73 3 9.46 3 3 3 C3 6.63 3 10.26 3 14 C8.28 14 13.56 14 19 14 C19 14.99 19 15.98 19 17 C13.72 17 8.44 17 3 17 C3 21.29 3 25.58 3 30 C9.27 30 15.54 30 22 30 C22 30.66 22 31.32 22 32 C14.74 32 7.48 32 0 32 C0 21.44 0 10.88 0 0 Z " fill="#000000" transform="translate(178,161)"/>
<path d="M0 0 C0.598125 0.20625 1.19625 0.4125 1.8125 0.625 C2.4375 2.4375 2.4375 2.4375 2.8125 4.625 C1.8225 6.11 1.8225 6.11 0.8125 7.625 C-1.75 7.875 -1.75 7.875 -4.1875 7.625 C-5.1875 6.625 -5.1875 6.625 -5.4375 4.1875 C-5.355 3.341875 -5.2725 2.49625 -5.1875 1.625 C-2.1875 -0.375 -2.1875 -0.375 0 0 Z " fill="#000000" transform="translate(233.1875,14.375)"/>
</svg>
