<?xml version="1.0" standalone="no"?>
<!DOCTYPE svg PUBLIC "-//W3C//DTD SVG 20010904//EN"
 "http://www.w3.org/TR/2001/REC-SVG-20010904/DTD/svg10.dtd">
<svg version="1.0" xmlns="http://www.w3.org/2000/svg"
 width="3840.000000pt" height="2160.000000pt" viewBox="0 0 3840.000000 2160.000000"
 preserveAspectRatio="xMidYMid meet">

<g transform="translate(0.000000,2160.000000) scale(0.100000,-0.100000)"
fill="#000000" stroke="none">
<path d="M3090 17772 c-816 -508 -1572 -1378 -2079 -2390 -466 -931 -703
-1900 -704 -2887 0 -320 12 -534 48 -820 198 -1571 965 -2958 2165 -3910 1129
-897 2575 -1342 4135 -1274 1334 58 2492 479 3405 1237 115 96 434 408 465
456 l17 25 -104 100 c-87 84 -106 98 -119 88 -9 -7 -59 -50 -110 -95 -273
-243 -654 -490 -1009 -653 -482 -222 -956 -351 -1525 -416 -227 -25 -823 -25
-1040 0 -878 105 -1606 403 -2235 915 -147 120 -417 393 -536 542 -521 653
-812 1412 -884 2305 -14 170 -14 609 0 777 85 1040 482 1927 1147 2569 595
573 1351 910 2223 989 148 14 530 14 690 0 725 -62 1407 -322 1907 -727 58
-47 106 -83 107 -81 1 1 180 318 398 703 218 385 637 1127 933 1649 295 522
539 955 542 962 4 12 -594 14 -3853 14 l-3859 0 -125 -78z"/>
<path d="M29995 17663 c-110 -24 -153 -54 -242 -165 -30 -38 -65 -75 -78 -84
-40 -26 -105 -19 -193 20 -69 31 -90 36 -155 36 -145 0 -249 -65 -312 -195
-55 -111 -43 -254 28 -347 18 -24 64 -66 102 -95 116 -86 128 -134 68 -278
-31 -75 -37 -102 -37 -161 1 -124 62 -224 176 -284 51 -27 77 -34 139 -38 102
-6 154 11 318 102 152 84 231 111 294 101 126 -21 209 -126 193 -243 -14 -103
-68 -161 -253 -273 -153 -92 -214 -147 -251 -227 -23 -49 -27 -70 -27 -147 0
-73 5 -100 23 -140 46 -101 135 -167 247 -185 157 -25 173 -30 199 -61 29 -34
40 -73 54 -182 13 -101 54 -173 134 -232 70 -52 134 -69 233 -63 93 6 169 42
224 104 59 67 81 120 91 219 16 153 50 189 196 206 110 12 178 42 238 104 65
67 89 137 84 246 -7 158 -61 228 -273 354 -200 119 -256 185 -256 303 -1 131
86 215 223 216 72 0 55 7 347 -145 l105 -54 100 0 c96 0 104 2 164 34 116 63
176 163 176 291 0 64 -5 87 -37 159 -20 47 -37 100 -37 119 0 54 37 106 109
158 81 58 107 89 139 166 68 169 -26 384 -194 448 -49 18 -73 21 -144 18 -71
-4 -95 -10 -149 -37 -48 -25 -77 -33 -114 -33 -62 1 -85 16 -153 106 -64 82
-110 120 -177 142 -103 35 -217 17 -309 -51 -113 -83 -138 -152 -148 -415 -8
-222 -22 -272 -90 -334 -121 -109 -311 -50 -361 113 -6 20 -15 122 -19 226 -9
199 -17 244 -55 311 -66 113 -227 193 -340 167z"/>
<path d="M14150 16236 l0 -163 138 -6 c75 -3 154 -11 175 -18 50 -17 113 -71
140 -123 l22 -41 5 -3005 c5 -2846 7 -3009 24 -3079 84 -350 280 -563 601
-653 l80 -23 1720 -3 c1228 -2 1749 0 1820 8 313 36 554 143 757 338 235 226
358 542 358 919 0 207 -37 365 -125 541 -140 277 -381 497 -791 721 -72 40
-265 135 -429 211 -458 215 -574 280 -675 381 -89 89 -115 171 -87 270 75 256
503 293 977 85 174 -76 348 -189 538 -348 46 -39 85 -68 87 -67 2 2 154 274
339 604 252 449 333 601 321 605 -8 3 -553 4 -1212 4 -1089 -1 -1207 -3 -1298
-19 -366 -63 -634 -247 -775 -530 -83 -168 -119 -354 -106 -548 19 -276 130
-510 340 -721 195 -196 414 -337 917 -591 498 -251 621 -325 751 -455 157
-156 194 -321 116 -527 -25 -67 -116 -168 -187 -206 -144 -79 -371 -89 -571
-25 -380 121 -781 526 -1059 1067 l-72 141 -140 0 -139 0 0 -716 0 -715 -342
3 c-325 3 -345 4 -388 24 -54 26 -93 65 -117 119 -17 38 -18 186 -21 3373 l-2
3332 -845 0 -845 0 0 -164z"/>
<path d="M20022 16234 l3 -167 150 -2 c167 -2 205 -12 263 -68 19 -18 43 -50
55 -72 l22 -40 5 -2845 c5 -2685 6 -2850 23 -2935 79 -397 297 -683 655 -860
166 -83 394 -148 632 -181 152 -22 537 -29 701 -15 485 45 847 188 1094 436
184 184 294 397 357 691 19 90 21 139 25 552 4 418 6 454 21 449 9 -3 69 -22
132 -42 96 -30 290 -83 402 -109 25 -6 26 -8 33 -103 34 -502 215 -924 540
-1262 308 -319 712 -520 1205 -596 141 -22 515 -31 651 -16 761 87 1346 540
1768 1371 38 74 71 142 73 151 4 20 -191 195 -202 182 -4 -4 -45 -57 -90 -118
-344 -458 -699 -730 -1083 -830 -770 -201 -1448 220 -1581 980 -25 144 -35
131 107 139 605 32 1203 258 1782 673 223 160 429 330 789 652 354 315 408
356 523 398 106 38 227 28 287 -25 10 -9 29 -39 42 -67 l24 -50 0 -1692 0
-1693 850 0 850 0 0 164 0 164 -152 4 c-128 3 -160 7 -198 25 -54 24 -92 64
-117 118 -17 37 -18 99 -21 984 -2 819 0 956 13 1035 43 251 203 568 378 752
62 66 133 122 141 113 2 -2 18 -33 36 -69 44 -88 90 -149 162 -214 197 -179
524 -239 848 -156 499 127 910 623 1067 1287 26 112 28 130 27 353 0 207 -2
247 -22 340 -74 340 -227 593 -415 689 -191 97 -386 4 -413 -196 l-6 -50 45
-5 c156 -18 303 -192 343 -408 40 -211 -18 -468 -132 -590 -68 -73 -113 -94
-199 -95 -96 0 -144 26 -268 143 -183 173 -269 212 -482 219 -94 4 -150 0
-203 -11 -286 -60 -468 -293 -489 -627 l-6 -88 -61 -51 c-34 -28 -131 -121
-217 -206 l-156 -154 -7 86 c-31 402 -230 661 -581 756 -116 31 -377 31 -522
0 -280 -60 -545 -199 -823 -432 -68 -57 -240 -218 -382 -358 -143 -140 -261
-252 -262 -250 -2 1 2 39 7 82 24 185 -36 402 -157 563 -147 196 -390 331
-709 395 -97 20 -143 23 -347 23 -247 0 -330 -8 -528 -52 -288 -63 -593 -202
-825 -377 -485 -365 -823 -943 -873 -1489 -6 -65 -9 -77 -23 -73 -9 3 -36 10
-61 16 -101 25 -282 85 -402 132 l-128 50 0 864 0 864 -696 0 -696 0 4 -447 4
-448 28 -89 c64 -211 181 -401 376 -609 88 -94 234 -218 336 -284 l74 -48 0
-511 c0 -425 -3 -526 -16 -605 -59 -342 -265 -570 -589 -651 -121 -30 -369
-32 -490 -4 -185 42 -312 113 -425 233 -115 123 -179 277 -201 482 -5 49 -9
1335 -9 3039 l0 2952 -845 0 -845 0 2 -166z m7102 -3459 c87 -23 162 -63 218
-119 216 -212 141 -596 -169 -863 -284 -244 -718 -399 -1202 -429 l-113 -7 6
74 c38 409 179 762 414 1036 125 146 344 277 523 312 75 15 259 12 323 -4z"/>
<path d="M6471 13459 c-863 -67 -1513 -492 -1848 -1207 -92 -195 -167 -466
-205 -732 -20 -144 -17 -573 5 -725 105 -720 470 -1250 1062 -1541 407 -200
912 -270 1339 -183 361 73 745 288 959 539 23 27 45 49 48 49 3 1 15 -23 27
-51 51 -124 165 -263 292 -357 136 -101 291 -165 480 -196 136 -23 403 -16
535 14 580 131 1039 580 1345 1316 l49 120 1 -692 0 -693 848 0 848 0 1 164 0
164 -161 4 c-141 3 -166 6 -201 25 -49 26 -75 54 -106 113 l-24 45 0 955 0
955 23 104 c38 171 79 288 158 446 86 175 173 300 298 432 232 246 495 389
776 424 156 20 282 -13 369 -94 42 -40 81 -120 81 -168 0 -102 -78 -206 -176
-235 -90 -26 -136 -8 -231 86 l-62 62 -74 -3 c-284 -15 -504 -382 -432 -724
33 -157 152 -327 288 -413 139 -87 278 -124 467 -124 242 1 433 67 613 211
210 169 344 435 378 750 60 548 -245 1003 -758 1133 -77 20 -113 23 -283 22
-162 0 -212 -4 -296 -22 -295 -64 -570 -207 -809 -420 -89 -79 -231 -233 -306
-332 l-26 -34 -6 164 c-4 94 -13 193 -22 229 -32 131 -119 250 -219 300 -103
51 -103 51 -833 51 l-683 0 0 -195 0 -195 168 0 c169 0 169 0 231 -31 72 -36
124 -97 146 -172 22 -74 22 -1105 0 -1251 -57 -375 -277 -929 -507 -1277 -190
-286 -369 -449 -567 -516 -66 -22 -89 -25 -171 -21 -114 5 -167 25 -239 93
-94 88 -86 -53 -86 1555 l0 1415 23 49 c34 74 66 111 116 135 40 18 63 21 196
21 l150 0 0 195 0 196 -667 -3 -668 -3 -57 -23 c-116 -47 -213 -138 -240 -224
-6 -21 -12 -38 -14 -38 -1 0 -35 24 -74 53 -198 149 -453 249 -745 292 -129
19 -377 26 -524 14z m610 -684 c221 -38 424 -146 610 -322 l89 -85 0 -997 0
-997 -42 -70 c-68 -114 -144 -208 -242 -301 -196 -185 -419 -274 -686 -274
-258 -1 -468 88 -655 276 -210 209 -343 507 -402 895 -24 162 -24 531 0 694
100 664 443 1089 952 1180 106 19 273 19 376 1z"/>
<path d="M35075 13453 c-245 -19 -417 -48 -589 -98 -744 -216 -1266 -749
-1455 -1488 -60 -234 -84 -433 -83 -707 0 -309 33 -530 118 -789 261 -796 958
-1299 1854 -1338 575 -24 1079 193 1438 620 l32 38 0 -565 c0 -621 -5 -699
-60 -921 -85 -344 -248 -593 -492 -752 -287 -188 -720 -225 -1120 -97 -459
148 -754 491 -809 943 l-12 101 -184 0 -183 0 0 -134 c0 -356 -59 -739 -161
-1052 -116 -351 -292 -638 -545 -885 -382 -371 -927 -617 -1639 -739 -327 -56
-607 -79 -1040 -87 -1126 -19 -2238 157 -3715 589 -427 124 -843 256 -1665
528 -1937 640 -2709 869 -3730 1105 -1649 381 -3305 559 -4900 525 -1064 -22
-2267 -216 -3395 -546 -1060 -311 -2135 -779 -3040 -1323 -512 -309 -1085
-724 -1512 -1096 l-114 -100 365 -6 c280 -5 409 -11 549 -28 563 -66 985 -187
1424 -407 384 -193 670 -404 1024 -759 l221 -221 109 99 c901 822 1970 1428
3229 1830 886 284 1846 451 2910 508 277 15 1055 15 1365 0 965 -46 1840 -143
2911 -321 698 -117 1196 -212 2554 -490 1595 -326 2152 -429 2890 -535 484
-69 910 -115 1375 -147 292 -20 1167 -17 1400 5 931 88 1661 322 2245 718 645
437 1078 1084 1230 1835 14 67 25 124 25 127 0 3 48 -44 108 -105 183 -188
352 -313 577 -424 363 -180 737 -235 1205 -178 586 72 1068 363 1390 840 221
326 359 747 400 1219 6 77 10 830 10 2086 0 2123 -3 2005 50 2080 12 16 42 41
68 56 46 27 52 28 220 31 l172 4 0 194 0 194 -672 0 c-417 0 -690 -4 -717 -11
-70 -16 -149 -59 -192 -106 -41 -44 -89 -133 -89 -165 0 -47 -11 -49 -59 -10
-123 102 -316 205 -490 262 -232 75 -560 113 -806 93z m587 -683 c256 -53 488
-201 670 -428 l58 -73 0 -878 0 -878 -57 -114 c-276 -550 -802 -798 -1303
-615 -169 62 -364 230 -482 416 -57 88 -124 229 -161 336 -174 501 -148 1163
63 1601 173 358 486 597 845 646 92 12 272 6 367 -13z"/>
</g>
</svg>
