<?xml version="1.0" encoding="UTF-8"?>
<svg version="1.1" xmlns="http://www.w3.org/2000/svg" width="1200" height="763">
<path d="M0 0 C4.16315278 0.1387607 8.32675818 0.1505434 12.49186635 0.17655897 C20.35698612 0.24459855 28.21527449 0.42459905 36.07740194 0.64624774 C45.03670476 0.89327262 53.99635715 1.01338059 62.95822442 1.12354732 C81.37258073 1.35271969 99.78060258 1.73895083 118.18972707 2.23066664 C116.97794795 5.3480806 115.84508325 7.97467491 113.79128957 10.62129164 C113.3182842 11.23923597 112.84527883 11.85718031 112.35793996 12.49385023 C111.8486797 13.14949965 111.33941945 13.80514906 110.81472707 14.48066664 C106.51342077 20.1139023 102.31691433 25.79926054 98.25222707 31.60566664 C92.52096118 39.78099714 86.68878276 47.87965333 80.83084035 55.96455336 C78.11324534 59.71711464 75.40178234 63.47410083 72.68972707 67.23066664 C71.60642345 68.7306881 70.52309011 70.23068809 69.43972707 71.73066664 C68.90347707 72.47316664 68.36722707 73.21566664 67.81472707 73.98066664 C66.18972707 76.23066664 64.56472707 78.48066664 62.93972707 80.73066664 C62.13547292 81.84429579 62.13547292 81.84429579 61.31497121 82.9804225 C60.2309429 84.48132213 59.14679565 85.98213586 58.0625298 87.4828639 C55.36385052 91.21840631 52.66721395 94.95538918 49.97488332 98.69551039 C44.36069529 106.48982511 38.71087324 114.25520264 33.00222707 121.98066664 C28.18685778 128.49789537 23.43108233 135.05179979 18.73660207 141.65644789 C15.80429973 145.77956238 12.8412443 149.88031858 9.87722707 153.98066664 C9.32929494 154.73871595 8.78136281 155.49676527 8.21682668 156.27778578 C7.09900254 157.82399761 5.98108203 159.37013977 4.86306691 160.91621351 C2.13709568 164.68659683 -0.58648827 168.45870357 -3.31027293 172.23066664 C-4.39359437 173.73067522 -5.47692772 175.23067522 -6.56027293 176.73066664 C-7.09652293 177.47316664 -7.63277293 178.21566664 -8.18527293 178.98066664 C-13.06027293 185.73066664 -13.06027293 185.73066664 -14.68673778 187.98261976 C-15.76528346 189.47604062 -16.84373466 190.96952972 -17.92208934 192.46308851 C-21.27587508 197.10788401 -24.63311255 201.75015739 -27.99362254 206.39009047 C-29.63427741 208.66010897 -31.26737848 210.93541957 -32.90011668 213.21113539 C-34.6468204 215.64086323 -36.41871516 218.04120896 -38.25167918 220.40644789 C-38.91039012 221.27656507 -39.56910106 222.14668226 -40.24777293 223.04316664 C-40.80335887 223.75086195 -41.35894481 224.45855726 -41.93136668 225.18769789 C-43.03226546 227.21371104 -43.03226546 227.21371104 -42.36496043 229.44941664 C-40.08170225 233.53403931 -37.31631185 237.18922642 -34.49777293 240.91816664 C-33.22096821 242.62853477 -31.94494431 244.33948604 -30.66964793 246.05097914 C-30.02318309 246.91626234 -29.37671824 247.78154554 -28.71066356 248.67304945 C-25.85246885 252.5197154 -23.04697271 256.40345868 -20.24777293 260.29316664 C-19.71627635 261.03075209 -19.18477977 261.76833754 -18.63717723 262.52827406 C-17.56420748 264.01756192 -16.49153395 265.50706324 -15.41915965 266.99677992 C-12.72015165 270.74426447 -10.01488409 274.48722509 -7.31027293 278.23066664 C-6.22690989 279.73064518 -5.14357655 281.23064518 -4.06027293 282.73066664 C-3.25589793 283.84441664 -3.25589793 283.84441664 -2.43527293 284.98066664 C2.43972707 291.73066664 2.43972707 291.73066664 4.06448293 293.9804225 C5.14851123 295.48132213 6.23265849 296.98213586 7.31692433 298.4828639 C10.01560362 302.21840631 12.71224018 305.95538918 15.40457082 309.69551039 C21.01875885 317.48982511 26.6685809 325.25520264 32.37722707 332.98066664 C37.19259635 339.49789537 41.9483718 346.05179979 46.64285207 352.65644789 C51.22962919 359.10592175 55.88306059 365.50774057 60.52078176 371.92060804 C62.15491006 374.18247493 63.78609837 376.44642972 65.41628957 378.71113539 C71.02620772 386.50050759 76.67244828 394.26043634 82.37722707 401.98066664 C87.19259635 408.49789537 91.9483718 415.05179979 96.64285207 421.65644789 C101.22962919 428.10592175 105.88306059 434.50774057 110.52078176 440.92060804 C112.15491006 443.18247493 113.78609837 445.44642972 115.41628957 447.71113539 C121.72631934 456.47229526 128.08439886 465.19484693 134.52151418 473.863235 C143.18972707 485.56892941 143.18972707 485.56892941 143.18972707 488.23066664 C123.3361201 488.67549354 103.48353039 489.01002301 83.62596536 489.2150979 C74.40439045 489.31287343 65.18591968 489.44602517 55.9663384 489.66401625 C47.92552153 489.85404474 39.88695252 489.97611635 31.8439526 490.01834804 C27.58793186 490.04302377 23.33833787 490.10049329 19.08438993 490.23953772 C-6.73103096 491.05118555 -6.73103096 491.05118555 -13.47797084 486.38613462 C-17.74457021 482.01650423 -20.41325505 477.1268591 -22.77635455 471.53829336 C-24.29537294 468.14796054 -26.32391145 465.34747851 -28.49777293 462.34004164 C-29.93568544 460.22052976 -31.37318006 458.10073434 -32.81027293 455.98066664 C-33.61168022 454.79900906 -34.41311336 453.61736901 -35.21456981 452.43574476 C-42.13668006 442.22894537 -49.05218635 432.01766892 -55.96798778 421.80659437 C-64.12715526 409.76019039 -72.29630338 397.72057359 -80.46749949 385.68232679 C-84.81247265 379.28096278 -89.15629275 372.87881622 -93.50033641 366.47682142 C-94.68957913 364.72419219 -95.8788293 362.97156802 -97.06808543 361.21894789 C-97.65650218 360.35179152 -97.65650218 360.35179152 -98.25680614 359.46711683 C-100.61144481 355.99713574 -102.9663388 352.52732807 -105.32144237 349.05766249 C-114.43455173 335.63171282 -123.54137502 322.20153457 -132.64071727 308.76625013 C-139.67529281 298.37983022 -146.71474486 287.99673484 -153.76046824 277.61787367 C-154.53488536 276.47708798 -155.30929942 275.33630022 -156.08371043 274.19551039 C-156.46684398 273.63112257 -156.84997752 273.06673475 -157.24472117 272.48524427 C-159.72178342 268.83580927 -162.19692114 265.18507567 -164.67083812 261.53350782 C-166.38741117 258.99988168 -168.1045352 256.46662917 -169.82168651 253.93339491 C-170.63156888 252.73828661 -171.44119076 251.54300173 -172.25051951 250.34751844 C-173.37911332 248.68049023 -174.50874284 247.01416336 -175.63839793 245.34785414 C-176.33513621 244.31241468 -177.03187449 243.27697523 -177.74972606 242.21015882 C-179.11486926 240.23620057 -180.52524105 238.29271342 -181.98019481 236.38398695 C-182.64083934 235.51096937 -183.30148387 234.63795179 -183.98214793 233.73847914 C-184.87305125 232.60756849 -184.87305125 232.60756849 -185.78195262 231.45381117 C-186.81027293 229.23066664 -186.81027293 229.23066664 -186.13473582 226.67011976 C-184.99324752 224.56767717 -183.84902038 222.62625479 -182.44699168 220.69160414 C-181.7449763 219.71211805 -181.7449763 219.71211805 -181.02877879 218.71284437 C-180.27093089 217.66979139 -180.27093089 217.66979139 -179.49777293 216.60566664 C-178.40799081 215.08441908 -177.31949522 213.56224924 -176.23214793 212.03926039 C-175.66818309 211.250193 -175.10421824 210.46112562 -174.52316356 209.64814711 C-171.71686173 205.68748566 -168.98125254 201.67928638 -166.24777293 197.66816664 C-165.42792918 196.46667982 -165.42792918 196.46667982 -164.59152293 195.24092054 C-163.50856234 193.65354527 -162.42587441 192.06598394 -161.34347606 190.47822523 C-154.63801463 180.6485313 -147.86455399 170.86716479 -141.06027293 161.10566664 C-135.13898383 152.60969102 -129.28086647 144.07338089 -123.46017528 135.50825453 C-118.24753559 127.8479584 -112.96110582 120.24059483 -107.66110301 112.64057875 C-101.81682749 104.25494079 -96.04081745 95.82397087 -90.27902293 87.38154554 C-84.26271069 78.57108829 -78.20485945 69.79032054 -72.10421824 61.03803968 C-66.11225119 52.44158528 -60.14507941 43.8299001 -54.24777293 35.16816664 C-53.71105653 34.41365249 -53.17434012 33.65913834 -52.62135959 32.88176012 C-49.33636356 28.19495707 -46.42447076 23.62002358 -44.00776744 18.42558241 C-34.06726556 -1.46149464 -19.82525305 -0.77352705 0 0 Z " fill="#000000" transform="translate(818.8102729320526,-2.2306666374206543)"/>
<path d="M0 0 C19.27975699 -0.53903299 38.55797182 -0.94368873 57.84371948 -1.19167995 C66.80040387 -1.30993162 75.75238926 -1.47087385 84.70605469 -1.73510742 C92.51728292 -1.96551492 100.32510896 -2.11299211 108.13964081 -2.16403538 C112.27369416 -2.19385489 116.3980236 -2.26298905 120.52893066 -2.43179131 C145.51274631 -3.41339785 145.51274631 -3.41339785 152.9107666 2.21418381 C157.90793618 7.56875984 161.34199636 13.55915513 164.52984619 20.1140728 C166.78027484 24.53168761 169.62025763 28.47711818 172.5 32.5 C173.55539888 34.0393988 174.6078617 35.5808182 175.65625 37.125 C179.40594167 42.60531859 183.2027222 48.05259389 187 53.5 C193.55495151 62.90452265 200.04752331 72.3496505 206.50927734 81.81835938 C210.21921605 87.24777508 213.95135595 92.66197313 217.67919922 98.07910156 C218.97645558 99.96575832 220.27174505 101.85374916 221.56640625 103.7421875 C226.9707539 111.62132846 232.41298177 119.47321691 237.875 127.3125 C244.47051538 136.78023085 251.00521884 146.28765979 257.50927734 155.81835938 C261.21921605 161.24777508 264.95135595 166.66197313 268.67919922 172.07910156 C269.97645558 173.96575832 271.27174505 175.85374916 272.56640625 177.7421875 C277.37391338 184.75091763 282.20710749 191.74076822 287.07006836 198.71118164 C289.14699963 201.69187616 291.21650207 204.67761984 293.28515625 207.6640625 C295.44980893 210.78671471 297.63347769 213.89020976 299.87109375 216.9609375 C300.98677734 218.52714844 300.98677734 218.52714844 302.125 220.125 C303.05699219 221.39730469 303.05699219 221.39730469 304.0078125 222.6953125 C305 225 305 225 304.29223633 227.29223633 C302.86337457 230.28628615 301.19369502 232.8927391 299.31640625 235.62890625 C298.94955215 236.16662659 298.58269806 236.70434692 298.20472717 237.25836182 C296.99502292 239.02944324 295.77872652 240.79589268 294.5625 242.5625 C293.70375449 243.8176038 292.84552785 245.07306275 291.98779297 246.32885742 C290.20725958 248.93481963 288.42451001 251.53924384 286.64013672 254.14257812 C283.00424508 259.45051209 279.39415726 264.77589067 275.78463745 270.10177612 C274.6135635 271.82937139 273.44178665 273.55648775 272.26977539 275.28344727 C266.3414683 284.01887949 260.42005322 292.75897271 254.5 301.5 C247.79588714 311.39870044 241.08856486 321.29520737 234.375 331.1875 C233.98600525 331.76067963 233.5970105 332.33385925 233.19622803 332.92440796 C230.07546009 337.52271477 226.95436426 342.120799 223.83325195 346.71887207 C221.09701204 350.74997556 218.36090681 354.78117042 215.625 358.8125 C215.23616638 359.38543793 214.84733276 359.95837585 214.44671631 360.54867554 C208.12613046 369.86238968 201.81190399 379.1804005 195.5 388.5 C186.84719393 401.27596859 178.18624603 414.04638694 169.52023315 426.81340027 C166.74202555 430.906423 163.96458384 434.99996473 161.1875 439.09375 C157.63413968 444.33186846 154.07993128 449.56941034 150.52490234 454.80639648 C148.11287502 458.35976643 145.70202137 461.91392966 143.2918396 465.46855164 C141.69974568 467.81614219 140.10673394 470.16310887 138.51348877 472.50991821 C137.39675745 474.15544004 136.28113133 475.80171172 135.16552734 477.44799805 C134.4998877 478.42808838 133.83424805 479.40817871 133.1484375 480.41796875 C132.56239746 481.28188232 131.97635742 482.1457959 131.37255859 483.03588867 C130 485 130 485 129 486 C127.01305149 486.096708 125.02260987 486.12187052 123.03330994 486.12025452 C121.08757835 486.12231651 121.08757835 486.12231651 119.10253906 486.12442017 C117.6516111 486.12088055 116.20068337 486.11724573 114.74975586 486.11352539 C113.23238629 486.11324353 111.71501658 486.11340123 110.19764709 486.1139679 C106.06559484 486.11425591 101.93357137 486.10835858 97.80152583 486.10139394 C93.48801108 486.09516102 89.17449573 486.09455665 84.86097717 486.09336853 C76.68699883 486.09025503 68.51303379 486.08204139 60.33906132 486.07201904 C51.03571031 486.06085848 41.73235868 486.0553476 32.42900264 486.05032361 C13.28599421 486.03985879 -5.85700183 486.02225899 -25 486 C-23.77193982 482.83788251 -22.60773295 480.19279554 -20.53125 477.50390625 C-19.80627319 476.55378662 -19.80627319 476.55378662 -19.06665039 475.58447266 C-18.54965576 474.91722168 -18.03266113 474.2499707 -17.5 473.5625 C-16.40366356 472.12467633 -15.30863138 470.68585731 -14.21484375 469.24609375 C-13.66940918 468.52921387 -13.12397461 467.81233398 -12.56201172 467.07373047 C-10.34286794 464.12758992 -8.19479433 461.13433962 -6.0625 458.125 C-5.24746937 456.97651031 -4.43236345 455.82807405 -3.6171875 454.6796875 C-2.98828613 453.79361816 -2.98828613 453.79361816 -2.34667969 452.88964844 C1.84622554 447.00620274 6.09739762 441.16420135 10.33105469 435.31005859 C11.96518299 433.04819171 13.5963713 430.78423692 15.2265625 428.51953125 C20.83648065 420.73015904 26.48272122 412.9702303 32.1875 405.25 C37.00286929 398.73277127 41.75864473 392.17886685 46.453125 385.57421875 C51.03990213 379.12474489 55.69333353 372.72292607 60.33105469 366.31005859 C61.96518299 364.04819171 63.5963713 361.78423692 65.2265625 359.51953125 C71.35497197 351.01007941 77.53619498 342.54260315 83.76708984 334.10791016 C89.36432174 326.5233116 94.88408627 318.8841167 100.39111328 311.23388672 C103.09012128 307.48640216 105.79538884 303.74344155 108.5 300 C109.58336304 298.50002146 110.66669638 297.00002146 111.75 295.5 C131.25 268.5 131.25 268.5 132.87646484 266.24804688 C133.95501053 264.75462602 135.03346173 263.26113692 136.11181641 261.76757812 C139.46561271 257.122768 142.8231238 252.48066962 146.18310547 247.84033203 C147.82383292 245.57077743 149.45919841 243.29744226 151.09375 241.0234375 C152.8414789 238.59364038 154.60625313 236.18035527 156.40625 233.7890625 C157.0559375 232.90992188 157.705625 232.03078125 158.375 231.125 C158.91898438 230.40570313 159.46296875 229.68640625 160.0234375 228.9453125 C161.19678669 227.07399899 161.19678669 227.07399899 160.71630859 225.109375 C159.93593425 222.81134013 158.95509975 221.2546323 157.515625 219.3046875 C156.99935547 218.59828125 156.48308594 217.891875 155.95117188 217.1640625 C155.38978516 216.40867188 154.82839844 215.65328125 154.25 214.875 C153.05712803 213.24751576 151.86442431 211.61990819 150.671875 209.9921875 C149.75438477 208.74646973 149.75438477 208.74646973 148.81835938 207.47558594 C146.02144589 203.66775797 143.26150036 199.8335428 140.5 196 C139.41686905 194.49985385 138.33353504 192.9998543 137.25 191.5 C52.75 74.5 52.75 74.5 51.12524414 72.25024414 C50.04121584 70.7493445 48.95706858 69.24853078 47.87280273 67.74780273 C45.17412345 64.01226033 42.47748688 60.27527746 39.78515625 56.53515625 C33.58906666 47.93297334 27.33923389 39.37363562 21.03735352 30.84863281 C17.06679547 25.46970728 13.1509285 20.0554894 9.28686523 14.59960938 C6.60039017 10.81228764 3.83242733 7.10197948 0.9609375 3.453125 C0 2 0 2 0 0 Z " fill="#000000" transform="translate(263,0)"/>
<path d="M0 0 C10.23 0 20.46 0 31 0 C31.33 19.47 31.66 38.94 32 59 C35.96 56.525 35.96 56.525 40 54 C42.57421875 52.890625 42.57421875 52.890625 44.6875 52.25 C45.39261719 52.02828125 46.09773437 51.8065625 46.82421875 51.578125 C60.70523248 47.88981255 75.80198082 49.17767192 88.625 55.625 C102.80372262 63.91975704 112.65115586 76.85070497 117.0078125 92.65625 C121.06571272 110.12485593 119.00330877 127.43957557 109.6875 142.9375 C100.85475405 155.75922799 88.78536952 163.70411755 73.7421875 167.58203125 C58.47467421 169.90913085 43.77978825 168.021027 31 159 C30.67 161.31 30.34 163.62 30 166 C20.1 166 10.2 166 0 166 C0 111.22 0 56.44 0 0 Z M32.43017578 90.63964844 C29.54511239 95.40113579 30.36175353 101.51615761 30.33422852 106.96142578 C30.31268065 109.23097317 30.23253783 111.49366644 30.15039062 113.76171875 C29.92980438 121.56035851 29.92980438 121.56035851 32.65380859 128.72460938 C34.65480119 130.78159024 36.61961218 132.40538493 39 134 C39.86625 134.61875 40.7325 135.2375 41.625 135.875 C50.26797845 139.96904242 59.73092991 140.72626568 68.96484375 138.18359375 C76.39101484 134.8996013 82.5466819 128.74743259 86 121.375 C88.64524507 112.73040828 88.18602565 102.37892225 84.328125 94.21484375 C80.19640879 87.32459936 74.9926304 81.89916338 67.17578125 79.421875 C53.7310383 76.81499486 41.82502196 80.82692885 32.43017578 90.63964844 Z " fill="#000000" transform="translate(813,595)"/>
<path d="M0 0 C2.47507162 2.17776572 4.80734828 4.42262301 7.1015625 6.7890625 C7.67390625 7.35238281 8.24625 7.91570313 8.8359375 8.49609375 C19.50723675 19.79997002 22.60443013 34.84732622 22.45092773 49.85839844 C22.01765533 64.57497315 16.04014409 78.84194256 5.7421875 89.47265625 C-2.70673373 96.88420993 -11.94755882 102.04726277 -22.8984375 104.7890625 C-23.62804688 104.97984375 -24.35765625 105.170625 -25.109375 105.3671875 C-42.61397032 108.01494141 -58.9840544 105.45718018 -73.8984375 95.7890625 C-88.50893998 84.60672261 -96.23924502 70.94636117 -98.8984375 52.7890625 C-100.2655021 36.85421573 -95.87550257 22.021251 -86.11328125 9.38671875 C-64.67757902 -15.75391966 -26.51368735 -20.22472647 0 0 Z M-61.8984375 27.7890625 C-67.64030312 36.81673561 -68.03425749 46.86328565 -66.54296875 57.26953125 C-64.25881576 64.70452587 -57.53821372 71.80105702 -50.7734375 75.4140625 C-43.39698513 78.1494429 -33.86559588 78.09489184 -26.3984375 75.6640625 C-18.06545331 71.19996383 -13.11575437 65.27956141 -9.5859375 56.5390625 C-7.89346037 47.30736908 -8.17173822 39.05730048 -12.8984375 30.7890625 C-17.46937072 24.20460427 -23.7735766 18.26630994 -31.8984375 16.7890625 C-44.35599019 15.77177908 -53.438351 18.29539077 -61.8984375 27.7890625 Z " fill="#000000" transform="translate(1047.8984375,657.2109375)"/>
<path d="M0 0 C0.8146875 0.30550781 1.629375 0.61101563 2.46875 0.92578125 C13.70483258 5.81489946 22.68168286 15.07972214 28 26 C28.38671875 26.7734375 28.7734375 27.546875 29.171875 28.34375 C34.83298202 40.32232427 34 50.0584423 34 64 C8.26 64 -17.48 64 -44 64 C-41.12527442 73.5824186 -39.1173875 79.87614751 -30.5625 84.875 C-21.08856056 89.57242907 -12.57987495 90.34163865 -2.5625 87.0546875 C3.18735549 84.68813112 8.74931628 81.59237856 13 77 C16.15204981 78.39347376 18.26171773 80.02485079 20.671875 82.4765625 C21.33574219 83.146875 21.99960937 83.8171875 22.68359375 84.5078125 C23.70646484 85.55582031 23.70646484 85.55582031 24.75 86.625 C25.44738281 87.33140625 26.14476562 88.0378125 26.86328125 88.765625 C28.58012488 90.50598703 30.29211832 92.25084981 32 94 C22.29015482 105.66784699 10.25986601 112.85999722 -5 115 C-23.87203147 116.48896429 -41.0519836 114.08211883 -55.9765625 101.48828125 C-68.18763048 89.95194884 -74.14618194 75.75828205 -74.97631836 59.01953125 C-75.45399655 41.32208494 -69.82933385 24.58222895 -57.9375 11.3125 C-42.66534317 -2.89813921 -19.48178386 -7.55227381 0 0 Z M-35.875 28.375 C-39.21460406 32.50039325 -41.70141219 35.80564874 -43 41 C-28.15 41 -13.3 41 2 41 C0.94822633 34.689358 -0.05743409 31.32051613 -5.125 27.32421875 C-15.38835233 20.25128351 -25.94994073 20.17603799 -35.875 28.375 Z " fill="#000000" transform="translate(754,648)"/>
<path d="M0 0 C10.23 0 20.46 0 31 0 C31.03738281 4.80433594 31.07476562 9.60867188 31.11328125 14.55859375 C31.14358546 17.61657116 31.17474922 20.6744921 31.20898438 23.73242188 C31.26314863 28.57768785 31.31426422 33.42284211 31.34643555 38.26831055 C31.37259614 42.17832144 31.41308666 46.08795352 31.46318626 49.99772835 C31.47976931 51.48347292 31.49133659 52.96928288 31.49761391 54.45510674 C31.51990572 68.2052568 31.51990572 68.2052568 37.3125 80.375 C41.92750846 84.88268268 46.21352362 86.4519573 52.625 86.5625 C60.12139194 86.39608961 65.8693803 84.28086375 72 80 C73.02947754 79.31679688 74.05895508 78.63359375 75.11962891 77.9296875 C80.2236284 72.69621812 78.84639036 64.04566961 78.8046875 57.2265625 C78.81594367 55.57601995 78.82982696 53.9254934 78.84622192 52.2749939 C78.88221215 47.9446067 78.88263966 43.6149262 78.87554932 39.28442383 C78.87463544 34.86006076 78.90750857 30.43596117 78.9375 26.01171875 C78.99131761 17.34098774 79.00442489 8.67089711 79 0 C89.23 0 99.46 0 110 0 C110 37.62 110 75.24 110 114 C100.1 114 90.2 114 80 114 C79.505 110.535 79.505 110.535 79 107 C78.39414062 107.39832031 77.78828125 107.79664063 77.1640625 108.20703125 C64.56630185 116.17269221 51.97637731 117.96591832 37.3359375 115.34375 C24.33103769 111.74334814 13.32352487 104.0766099 6.4375 92.3359375 C0.56959765 80.21592492 -0.43106073 68.2993313 -0.29296875 55.078125 C-0.28735946 53.48102216 -0.28309568 51.88391409 -0.28010559 50.2868042 C-0.26876151 46.12423949 -0.23938702 41.96199895 -0.20599365 37.79956055 C-0.16960785 32.7833628 -0.15608179 27.76705544 -0.13863373 22.75076294 C-0.10974112 15.16695123 -0.05218244 7.58384795 0 0 Z " fill="#000000" transform="translate(453,647)"/>
<path d="M0 0 C10.23 0 20.46 0 31 0 C31.04898438 4.65996094 31.09796875 9.31992187 31.1484375 14.12109375 C31.18385763 17.08791124 31.21983684 20.05470117 31.2578125 23.02148438 C31.31792621 27.72188191 31.376062 32.42224123 31.421875 37.12280273 C31.45897514 40.91603254 31.50539904 44.70904786 31.55806351 48.50209236 C31.57647703 49.94318917 31.59163214 51.38433173 31.60334396 52.82549858 C31.46634775 67.87423777 31.46634775 67.87423777 38 81 C45.36064791 86.55804026 51.98141352 86.84006105 61 86 C64.77481573 84.86552034 67.84554633 83.35677573 71 81 C71.57150787 80.63314087 72.14301575 80.26628174 72.73184204 79.88830566 C76.29064926 77.12429463 77.8131478 74.99562402 78.65522766 70.50868225 C78.99832784 66.05198836 78.9446112 61.59536334 78.90234375 57.12890625 C78.91173578 55.47979263 78.92419787 53.83069389 78.93959045 52.18162537 C78.97174261 47.8593295 78.9624014 43.53809736 78.94421387 39.21575928 C78.93303512 34.79801913 78.96137942 30.38054833 78.98632812 25.96289062 C79.029415 17.308289 79.02498152 8.6546731 79 0 C89.23 0 99.46 0 110 0 C110 37.62 110 75.24 110 114 C100.1 114 90.2 114 80 114 C79.505 110.535 79.505 110.535 79 107 C78.46632813 107.39832031 77.93265625 107.79664063 77.3828125 108.20703125 C66.00949302 116.29428783 54.63879859 117.24095507 41 116 C29.72164157 114.03447695 20.62353502 108.49479617 13 100 C12.175 99.113125 11.35 98.22625 10.5 97.3125 C0.14801587 84.42134995 -0.46727149 68.23081347 -0.29296875 52.44140625 C-0.28735379 50.91585209 -0.28309272 49.39029241 -0.28010559 47.86473083 C-0.26880594 43.90441192 -0.23947275 39.94443812 -0.20599365 35.98425293 C-0.16948377 31.20326619 -0.15606051 26.4221622 -0.13863373 21.64107513 C-0.10982172 14.42714549 -0.05223308 7.21396878 0 0 Z " fill="#000000" transform="translate(131,647)"/>
<path d="M0 0 C30.84492075 -2.84363386 30.84492075 -2.84363386 38.85205078 1.57324219 C43.10561629 5.55173028 45.60968538 10.38443465 47.93408203 15.66943359 C49.49746884 19.0876861 51.53762813 21.98114118 53.6875 25.0625 C54.28949219 26.00222656 54.89148437 26.94195313 55.51171875 27.91015625 C56.83372439 30.11233662 56.83372439 30.11233662 59 31 C59.27094482 30.26048096 59.54188965 29.52096191 59.82104492 28.7590332 C60.94412167 26.13076848 62.16692639 24.14167082 63.86328125 21.85546875 C64.42080078 21.09556641 64.97832031 20.33566406 65.55273438 19.55273438 C66.13345703 18.77220703 66.71417969 17.99167969 67.3125 17.1875 C68.4569855 15.64121326 69.59893934 14.09304931 70.73828125 12.54296875 C71.31054443 11.79128418 71.88280762 11.03959961 72.47241211 10.26513672 C74.07146458 8.07985255 74.07146458 8.07985255 74.88891602 5.66064453 C75.96431843 2.98148854 76.65706845 1.72775314 79 0 C85.12472164 -1.01648038 91.12963485 -0.75055288 97.3125 -0.5 C99.02400604 -0.45985496 100.73560175 -0.42335593 102.44726562 -0.390625 C106.63372577 -0.30262359 110.8158834 -0.16469159 115 0 C113.78996189 3.26516543 112.48074062 5.99020554 110.41796875 8.79296875 C109.90451904 9.49671631 109.39106934 10.20046387 108.86206055 10.92553711 C108.30945557 11.67198486 107.75685059 12.41843262 107.1875 13.1875 C106.01026161 14.79676158 104.83318291 16.40613999 103.65625 18.015625 C102.74939453 19.25022461 102.74939453 19.25022461 101.82421875 20.50976562 C98.37258167 25.22158284 94.96072094 29.9624345 91.55908203 34.71044922 C89.20617987 37.98679833 86.84093532 41.23632881 84.3359375 44.3984375 C83.58570313 45.36007812 82.83546875 46.32171875 82.0625 47.3125 C81.41410156 48.11300781 80.76570313 48.91351562 80.09765625 49.73828125 C78.74361351 51.94364836 78.74361351 51.94364836 79.4765625 54.3125 C81.53503992 57.9438653 83.86903749 61.30607197 86.3125 64.6875 C87.10829468 65.80137085 87.10829468 65.80137085 87.92016602 66.93774414 C89.60768916 69.29602249 91.30301035 71.64852667 93 74 C94.0755416 75.49477673 95.15106276 76.98956816 96.2265625 78.484375 C100.68624113 84.67230628 105.15260827 90.85435188 109.67578125 96.99609375 C110.27398682 97.81279541 110.87219238 98.62949707 111.48852539 99.47094727 C112.63748498 101.03904221 113.79139907 102.6035225 114.95092773 104.16381836 C115.46727783 104.87030518 115.98362793 105.57679199 116.515625 106.3046875 C116.97227539 106.92327637 117.42892578 107.54186523 117.89941406 108.17919922 C119.06812546 110.11270623 119.56988712 111.79277768 120 114 C115.0015168 114.22353892 110.00597543 114.38625521 105.00366211 114.49438477 C103.3049042 114.53947595 101.60649237 114.60077273 99.90893555 114.67895508 C85.86968847 115.30905329 85.86968847 115.30905329 81.47680664 112.23339844 C79.65297442 109.91310759 78.32835895 107.63102782 77 105 C76.08288243 103.65604984 75.14739272 102.32439767 74.19140625 101.0078125 C73.31263209 99.71521887 72.43634527 98.42093085 71.5625 97.125 C67.16131489 90.65720464 62.65167542 84.29109111 58 78 C55.46274247 81.11390697 53.02976087 84.27662395 50.7097168 87.55615234 C49.87126327 88.73015649 49.01455732 89.89125623 48.14379883 91.04150391 C45.58259836 94.48224117 43.6158225 97.72199654 41.98046875 101.6953125 C39.53847485 106.98429525 37.31702921 111.22944431 32 114 C20.16526095 116.6807317 6.97312219 115.00748553 -5 114 C-3.42105949 109.81140343 -1.5073074 106.8732226 1.3125 103.375 C5.63599238 97.91610977 9.60817729 92.27326196 13.5 86.5 C17.30264599 80.86533704 21.16768357 75.34030645 25.375 70 C29.6493554 64.55927638 33.41909122 58.91679961 37 53 C31.58657903 45.3992148 26.15231262 37.81393437 20.6875 30.25 C20.14939697 29.50435791 19.61129395 28.75871582 19.05688477 27.99047852 C16.15447925 23.97113725 13.24207231 19.95947818 10.31640625 15.95703125 C9.71932861 15.13750977 9.12225098 14.31798828 8.50708008 13.47363281 C7.35773357 11.89645536 6.2053457 10.32148864 5.04956055 8.74902344 C4.2747937 7.68409668 4.2747937 7.68409668 3.484375 6.59765625 C3.02772461 5.97383057 2.57107422 5.35000488 2.10058594 4.70727539 C1 3 1 3 0 0 Z " fill="#000000" transform="translate(1080,647)"/>
<path d="M0 0 C10.23 0 20.46 0 31 0 C31 10.23 31 20.46 31 31 C43.21 31 55.42 31 68 31 C68 39.91 68 48.82 68 58 C55.79 58 43.58 58 31 58 C31.07416373 64.69007979 31.15714642 71.37886323 31.26245117 78.06835938 C31.29560715 80.34172746 31.32366783 82.61517602 31.34643555 84.88867188 C31.3801529 88.16571185 31.43247842 91.44202056 31.48828125 94.71875 C31.49467117 95.72740112 31.5010611 96.73605225 31.50764465 97.77526855 C31.64259771 104.32304949 32.09621981 110.77357757 36.6875 115.875 C45.08027119 119.95796977 53.90884495 119.19859319 63 119 C63.67245837 122.58227157 64.33695539 126.1659751 65 129.75 C65.19078125 130.76578125 65.3815625 131.7815625 65.578125 132.828125 C65.84882813 134.29765625 65.84882813 134.29765625 66.125 135.796875 C66.29257812 136.69760742 66.46015625 137.59833984 66.6328125 138.52636719 C67 141 67 141 67 145 C60.89421181 147.13745165 55.25115439 147.3481045 48.8125 147.3125 C47.78890381 147.30831055 46.76530762 147.30412109 45.71069336 147.29980469 C38.46879886 147.19153621 31.81829143 146.61461754 25 144 C24.27167969 143.7215625 23.54335938 143.443125 22.79296875 143.15625 C13.35832 138.97109032 6.64194706 131.74801271 2.9140625 122.22631836 C-1.10536617 109.36811315 -0.44246418 96.40880133 -0.25 83.0625 C-0.22989705 80.62566578 -0.21165302 78.18881548 -0.1953125 75.75195312 C-0.15506736 69.83390556 -0.07672046 63.91813121 0 58 C-10.56 58 -21.12 58 -32 58 C-32 49.09 -32 40.18 -32 31 C-21.44 31 -10.88 31 0 31 C0 20.77 0 10.54 0 0 Z " fill="#000000" transform="translate(359,616)"/>
<path d="M0 0 C4.58673201 3.74636573 8.83515211 7.79510549 13 12 C11.73968523 15.78094432 10.11710652 16.74143725 7 19.1875 C1.84395815 23.29885363 -3.11422544 27.57264379 -8 32 C-10.85552763 30.7020329 -12.88108294 29.30126127 -15.125 27.125 C-22.17926132 21.02724869 -29.67251964 19.2856932 -38.890625 19.62109375 C-47.08783614 20.62000013 -53.54875543 24.8950994 -59 31 C-64.10517314 38.89383708 -64.76800379 46.73062092 -64 56 C-62.14574651 63.38678157 -58.84187241 69.31501993 -52.57421875 73.6953125 C-44.23523069 78.5474977 -36.35001399 79.39037134 -27 78 C-19.14046145 75.48318148 -13.79437423 71.65885309 -9 65 C-4.6773671 65.88434818 -1.67785919 68.1667609 1.8125 70.75 C2.40353516 71.18054688 2.99457031 71.61109375 3.60351562 72.0546875 C4.79539225 72.92292478 5.98566905 73.79336259 7.17431641 74.66601562 C10.09832482 76.8025203 13.04985952 78.89977195 16 81 C14.00944956 89.79691199 5.77172966 95.26150336 -1.44140625 99.94921875 C-15.76186611 108.63396187 -34.1114983 110.3176227 -50.39453125 107.31640625 C-66.33653876 103.3596361 -79.39985593 94.54396888 -88.5 80.71875 C-96.23101954 66.70627709 -98.6125038 49.79227133 -95.31640625 34.05078125 C-90.42763355 17.23421458 -80.56590032 4.93910947 -65.26953125 -3.5078125 C-44.63997279 -13.45048569 -19.2225847 -13.30121187 0 0 Z " fill="#000000" transform="translate(96,655)"/>
<path d="M0 0 C10.23 0 20.46 0 31 0 C31 54.78 31 109.56 31 166 C20.77 166 10.54 166 0 166 C0 111.22 0 56.44 0 0 Z " fill="#000000" transform="translate(275,595)"/>
<path d="M0 0 C0.71542969 -0.00386719 1.43085937 -0.00773438 2.16796875 -0.01171875 C5.33634984 -0.00579654 7.84810145 0.11603382 10.875 1.125 C10.56451584 4.45852425 10.25124092 7.79178081 9.9375 11.125 C9.85048828 12.05957031 9.76347656 12.99414062 9.67382812 13.95703125 C9.16368841 19.36073347 8.5794679 24.74311907 7.875 30.125 C6.08255859 30.05539062 6.08255859 30.05539062 4.25390625 29.984375 C-8.02191265 29.48012077 -8.02191265 29.48012077 -19.125 34.125 C-19.85203125 34.60710938 -20.5790625 35.08921875 -21.328125 35.5859375 C-24.85752312 38.08698581 -27.8621678 40.38770037 -30.125 44.125 C-30.59798162 47.43625033 -30.59798162 47.43625033 -30.55737305 51.18847656 C-30.5675647 51.89131775 -30.57775635 52.59415894 -30.58825684 53.31829834 C-30.61837536 55.6341551 -30.62765066 57.94959816 -30.63671875 60.265625 C-30.65356635 61.87417982 -30.67171671 63.48272149 -30.69111633 65.09124756 C-30.73861392 69.31949756 -30.7684247 73.54769421 -30.79455566 77.77612305 C-30.82436249 82.09304339 -30.87089238 86.4097799 -30.91601562 90.7265625 C-31.00204613 99.19263332 -31.06784637 107.65868494 -31.125 116.125 C-41.355 116.125 -51.585 116.125 -62.125 116.125 C-62.125 78.505 -62.125 40.885 -62.125 2.125 C-52.225 2.125 -42.325 2.125 -32.125 2.125 C-31.795 5.095 -31.465 8.065 -31.125 11.125 C-30.01125 10.2175 -28.8975 9.31 -27.75 8.375 C-19.30013392 2.02634396 -10.41497615 -0.05691244 0 0 Z " fill="#000000" transform="translate(659.125,644.875)"/>
</svg>
