<?xml version="1.0" encoding="UTF-8"?>
<svg version="1.1" xmlns="http://www.w3.org/2000/svg" width="500" height="200">
<path d="M0 0 C2.2578125 -0.28125 2.2578125 -0.28125 5 0 C6.9921875 1.90625 6.9921875 1.90625 8.875 4.5 C9.56851563 5.41652344 10.26203125 6.33304688 10.9765625 7.27734375 C11.64429688 8.17582031 12.31203125 9.07429688 13 10 C23.4752366 23.52844537 39.29366929 33.26269063 56 37 C59.47175944 37.40441288 62.88216044 37.4785466 66.375 37.4375 C67.294021 37.42920166 68.21304199 37.42090332 69.15991211 37.41235352 C83.2336226 37.06327481 96.97011376 31.02988624 107 21 C109.37928402 17.85240552 111.6897999 14.68420705 113.94921875 11.44921875 C114.96435547 10.23685547 114.96435547 10.23685547 116 9 C116.99 9 117.98 9 119 9 C119.15855469 9.74121094 119.31710937 10.48242188 119.48046875 11.24609375 C124.10677047 32.12835066 130.53593206 52.34476634 143 70 C143.70253906 71.06992188 144.40507812 72.13984375 145.12890625 73.2421875 C152.16777508 83.775299 160.83513862 93.55280738 170.94921875 101.2421875 C171.62597656 101.82226562 172.30273438 102.40234375 173 103 C173 103.99 173 104.98 173 106 C171.72125 106.309375 170.4425 106.61875 169.125 106.9375 C163.6155353 108.71868985 160.14120889 112.13843823 156.06640625 116.13671875 C154 118 154 118 152 118 C151.76925781 117.43192627 151.53851563 116.86385254 151.30078125 116.27856445 C142.16362613 93.94806159 132.35070685 73.90011331 109.0078125 63.69140625 C106.35148225 62.68700437 103.72805552 61.78836511 101 61 C99.79988281 60.64550781 98.59976563 60.29101562 97.36328125 59.92578125 C79.38704278 55.54719729 60.80508936 59.39173171 45.08911133 68.56884766 C29.78078694 78.17140192 19.43001437 92.3209 11 108 C10.525625 108.85464844 10.05125 109.70929688 9.5625 110.58984375 C5.23852593 118.71080756 2.53559293 127.55961363 0.04296875 136.390625 C-0.30121094 137.25171875 -0.64539063 138.1128125 -1 139 C-1.99 139.33 -2.98 139.66 -4 140 C-6.04306303 136.56126428 -6.4044997 133.51248088 -6.8125 129.5625 C-8.49328427 117.30041474 -12.31052881 107.12300668 -22 99 C-24.73643596 97.4631636 -26.91140048 96.78523717 -30 96 C-30.5878125 95.81824219 -31.175625 95.63648437 -31.78125 95.44921875 C-40.09390911 93.76619798 -49.66734861 94.83050507 -58 96 C-57.68064338 93.04758066 -57.15331488 92.12994201 -54.84765625 90.17578125 C-53.92855469 89.56089844 -53.00945312 88.94601563 -52.0625 88.3125 C-25.15521508 69.44966109 -6.78384445 41.41997019 -1 9 C-0.57787398 5.996411 -0.26061346 3.02311613 0 0 Z " fill="#EE7203" transform="translate(191,7)"/>
<path d="M0 0 C21 0 21 0 28 4 C32.34848283 9.07838953 32.59501495 15.22277951 32.4375 21.625 C32.44458984 22.44484375 32.45167969 23.2646875 32.45898438 24.109375 C32.39892059 29.85701745 31.51450328 34.24321385 27.5 38.64453125 C18.21720946 45.87253743 15.0018653 43 0 43 C0 28.81 0 14.62 0 0 Z M13 12 C13 18.27 13 24.54 13 31 C14.65 31 16.3 31 18 31 C20.65960145 24.1847713 20.65960145 18.8152287 18 12 C16.35 12 14.7 12 13 12 Z " fill="#EE7203" transform="translate(185,152)"/>
<path d="M0 0 C19 0 19 0 27 5 C29.7719796 8.89809631 30.51824664 12.35554754 30.375 17.046875 C29.77275603 20.18356237 27.81330569 22.42627579 26 25 C26.56785172 29.64421582 29.10481796 34.06442235 30.94140625 38.3203125 C32 41 32 41 32 43 C27.38 43 22.76 43 18 43 C15.525 36.565 15.525 36.565 13 30 C12.67 34.29 12.34 38.58 12 43 C8.04 43 4.08 43 0 43 C0 28.81 0 14.62 0 0 Z M12 11 C12 13.31 12 15.62 12 18 C13.65 17.67 15.3 17.34 17 17 C17 15.35 17 13.7 17 12 C15.35 11.67 13.7 11.34 12 11 Z " fill="#EE7203" transform="translate(5,152)"/>
<path d="M0 0 C4.29 0 8.58 0 13 0 C13.33 3.3 13.66 6.6 14 10 C14.28230469 9.278125 14.56460938 8.55625 14.85546875 7.8125 C16.32141562 4.71724561 17.58460441 2.44542715 20 0 C24.44300245 -0.89597914 28.52725397 -0.59725095 33 0 C31.21504978 5.00148488 28.39358601 8.95744843 25.36328125 13.28125 C23.71187407 16.5746007 24.05525528 17.52226747 25 21 C25.64083672 22.61749253 26.33235376 24.21559094 27.06640625 25.79296875 C27.46923828 26.67017578 27.87207031 27.54738281 28.28710938 28.45117188 C28.70798828 29.35416016 29.12886719 30.25714844 29.5625 31.1875 C30.4004988 32.9919314 31.23530241 34.79785124 32.06640625 36.60546875 C32.43709229 37.40106201 32.80777832 38.19665527 33.18969727 39.01635742 C34 41 34 41 34 43 C29.38 43 24.76 43 20 43 C17.525 36.565 17.525 36.565 15 30 C14.67 30 14.34 30 14 30 C13.67 34.29 13.34 38.58 13 43 C8.71 43 4.42 43 0 43 C0 28.81 0 14.62 0 0 Z " fill="#EE7203" transform="translate(104,152)"/>
<path d="M0 0 C4.80197693 2.02188502 7.16884576 4.872652 9.24609375 9.53125 C11.64707829 17.39354134 11.91155947 26.25149497 9 34 C6.60702868 38.45587763 4.50072898 40.75285492 0 43 C-5.83967976 43.88311233 -12.57695901 44.07274861 -17.59765625 40.57421875 C-22.81908861 34.71283367 -23.62488924 26.45240951 -23.3125 18.92578125 C-22.64444265 12.67109435 -21.55449182 7.07927419 -17.125 2.375 C-12.07078085 -1.41835851 -5.98667912 -0.87948637 0 0 Z M-8 11 C-10.17490115 14.52126852 -10.26877787 17.40642467 -10.25 21.5 C-10.25515625 22.6240625 -10.2603125 23.748125 -10.265625 24.90625 C-10.01284295 27.85041743 -9.53364541 29.51695505 -8 32 C-6.04105639 31.88693303 -6.04105639 31.88693303 -4 31 C-1.33282273 26.73251637 -1.5770788 21.86359379 -2 17 C-2.57218132 14.05570224 -2.57218132 14.05570224 -4 12 C-6.04105639 11.11306697 -6.04105639 11.11306697 -8 11 Z " fill="#EE7203" transform="translate(60,152)"/>
<path d="M0 0 C9.24 0 18.48 0 28 0 C28 3.63 28 7.26 28 11 C23.05 11 18.1 11 13 11 C13 12.65 13 14.3 13 16 C16.63 16 20.26 16 24 16 C23.67 19.63 23.34 23.26 23 27 C20.03 27 17.06 27 14 27 C13.67 28.65 13.34 30.3 13 32 C18.28 32 23.56 32 29 32 C29 35.63 29 39.26 29 43 C19.43 43 9.86 43 0 43 C0 28.81 0 14.62 0 0 Z " fill="#EE7203" transform="translate(295,152)"/>
<path d="M0 0 C9.24 0 18.48 0 28 0 C28 3.63 28 7.26 28 11 C23.05 11 18.1 11 13 11 C13 12.65 13 14.3 13 16 C16.3 16 19.6 16 23 16 C23 19.63 23 23.26 23 27 C20.03 27 17.06 27 14 27 C13.67 28.65 13.34 30.3 13 32 C18.28 32 23.56 32 29 32 C29 35.63 29 39.26 29 43 C19.43 43 9.86 43 0 43 C0 28.81 0 14.62 0 0 Z " fill="#EE7203" transform="translate(220,152)"/>
<path d="M0 0 C1.79244141 0.01740234 1.79244141 0.01740234 3.62109375 0.03515625 C5.41740234 0.04869141 5.41740234 0.04869141 7.25 0.0625 C8.17683594 0.07410156 9.10367187 0.08570313 10.05859375 0.09765625 C14.16268065 14.06969721 18.21044491 28.05279964 22.05859375 42.09765625 C21.05859375 43.09765625 21.05859375 43.09765625 18.1171875 43.1953125 C16.92222656 43.18371094 15.72726562 43.17210937 14.49609375 43.16015625 C12.69978516 43.14662109 12.69978516 43.14662109 10.8671875 43.1328125 C9.94035156 43.12121094 9.01351563 43.10960937 8.05859375 43.09765625 C7.72859375 41.11765625 7.39859375 39.13765625 7.05859375 37.09765625 C4.74859375 37.09765625 2.43859375 37.09765625 0.05859375 37.09765625 C-0.27140625 39.07765625 -0.60140625 41.05765625 -0.94140625 43.09765625 C-5.23140625 43.09765625 -9.52140625 43.09765625 -13.94140625 43.09765625 C-13.34681684 37.53738914 -12.36474557 32.30829404 -10.91015625 26.9140625 C-10.71417847 26.17308823 -10.51820068 25.43211395 -10.31628418 24.66868591 C-9.90526025 23.11935768 -9.49169831 21.57070068 -9.07568359 20.02270508 C-8.43701815 17.6438115 -7.80780103 15.26255833 -7.1796875 12.88085938 C-6.77789477 11.37094701 -6.37557045 9.86117599 -5.97265625 8.3515625 C-5.78409058 7.63811172 -5.5955249 6.92466095 -5.40124512 6.18959045 C-3.76299819 0.12493354 -3.76299819 0.12493354 0 0 Z M3.05859375 20.09765625 C2.72859375 22.07765625 2.39859375 24.05765625 2.05859375 26.09765625 C3.04859375 26.09765625 4.03859375 26.09765625 5.05859375 26.09765625 C4.72859375 24.11765625 4.39859375 22.13765625 4.05859375 20.09765625 C3.72859375 20.09765625 3.39859375 20.09765625 3.05859375 20.09765625 Z " fill="#EE7203" transform="translate(445.94140625,151.90234375)"/>
<path d="M0 0 C3.48488515 1.99223329 6.19540905 4.3908181 8 8 C8.039992 9.99960012 8.04346799 12.00047242 8 14 C4.7 14.33 1.4 14.66 -2 15 C-0.741875 15.7425 0.51625 16.485 1.8125 17.25 C4.97606972 19.11702475 7.11604962 20.80953296 9 24 C9.73942261 28.45828338 9.52155903 32.66712693 7.875 36.875 C4.75806475 40.40752662 2.17337211 42.67981572 -2.625 43.38671875 C-7.23029166 43.56817725 -10.307612 43.33382993 -14.5 41.3125 C-18.40129756 37.70379975 -19.92232123 35.57946828 -20.1875 30.1875 C-20.125625 29.135625 -20.06375 28.08375 -20 27 C-16.04 27 -12.08 27 -8 27 C-7.67 28.65 -7.34 30.3 -7 32 C-6.34 31.67 -5.68 31.34 -5 31 C-5 30.01 -5 29.02 -5 28 C-5.67546875 27.68546875 -6.3509375 27.3709375 -7.046875 27.046875 C-17.47908745 22.0418251 -17.47908745 22.0418251 -20 17 C-20.59810582 10.89932061 -19.45869755 7.86087223 -16 3 C-11.63881501 -1.09687075 -5.64133233 -1.02349887 0 0 Z M-7 11 C-6.67 11.99 -6.34 12.98 -6 14 C-5.34 14 -4.68 14 -4 14 C-4 13.01 -4 12.02 -4 11 C-4.99 11 -5.98 11 -7 11 Z " fill="#EE7203" transform="translate(345,152)"/>
<path d="M0 0 C4.08233025 1.82246886 6.03611652 3.58106422 7.875 7.5625 C9 11 9 11 9 14 C5.04 14 1.08 14 -3 14 C-3.33 13.34 -3.66 12.68 -4 12 C-4.99 11.67 -5.98 11.34 -7 11 C-4.75259369 13.4843533 -2.54505044 14.87618039 0.4375 16.375 C4.24018294 18.4745269 6.96580901 20.02006111 9 24 C9.80368664 29.04207616 9.57361229 32.83153051 7.3125 37.4375 C4.17414476 40.91513689 2.20693511 42.726664 -2.5546875 43.31640625 C-7.14453916 43.5092049 -10.2927379 43.32837169 -14.5 41.375 C-18.02248559 38.02863869 -19.81653924 35.06393358 -20.25 30.1875 C-20 28 -20 28 -19 27 C-17.14712498 26.92773498 -15.29166122 26.9161878 -13.4375 26.9375 C-12.42558594 26.94652344 -11.41367188 26.95554688 -10.37109375 26.96484375 C-9.19740234 26.98224609 -9.19740234 26.98224609 -8 27 C-7.34 28.32 -6.68 29.64 -6 31 C-5.34 31 -4.68 31 -4 31 C-4.67086511 27.86974123 -4.67086511 27.86974123 -7.14453125 26.7890625 C-8.02496094 26.40492188 -8.90539062 26.02078125 -9.8125 25.625 C-16.96904301 22.15423022 -16.96904301 22.15423022 -19 18 C-19.83736928 13.6112878 -20.04242965 9.76386724 -17.71875 5.83203125 C-12.48429715 -0.39029628 -7.9821329 -0.78919393 0 0 Z " fill="#EE7203" transform="translate(92,152)"/>
<path d="M0 0 C4.29 0 8.58 0 13 0 C14.32 5.94 15.64 11.88 17 18 C18.65 12.06 20.3 6.12 22 0 C26.29 0 30.58 0 35 0 C32.56477479 10.01316203 29.97172771 19.98160257 27.3125 29.9375 C27.00304443 31.10522949 26.69358887 32.27295898 26.37475586 33.47607422 C26.08221924 34.56549316 25.78968262 35.65491211 25.48828125 36.77734375 C25.09443237 38.25062134 25.09443237 38.25062134 24.69262695 39.75366211 C24 42 24 42 23 43 C21.14712498 43.07226502 19.29166122 43.0838122 17.4375 43.0625 C16.42558594 43.05347656 15.41367187 43.04445312 14.37109375 43.03515625 C13.19740234 43.01775391 13.19740234 43.01775391 12 43 C9.75605225 38.05041176 8.09757397 33.20491662 6.73828125 27.94921875 C6.54276169 27.2092012 6.34724213 26.46918365 6.14579773 25.70674133 C5.73747592 24.15696912 5.33172921 22.60651632 4.9284668 21.05541992 C4.30932023 18.67527622 3.68168122 16.29749263 3.05273438 13.91992188 C2.65575505 12.40898412 2.25925338 10.89792077 1.86328125 9.38671875 C1.58210197 8.31957893 1.58210197 8.31957893 1.29524231 7.23088074 C0 2.23264008 0 2.23264008 0 0 Z " fill="#EE7203" transform="translate(402,152)"/>
<path d="M0 0 C9.24 0 18.48 0 28 0 C28 3.63 28 7.26 28 11 C22.72 11 17.44 11 12 11 C12 12.98 12 14.96 12 17 C16.29 17 20.58 17 25 17 C25.09765625 24.71484375 25.09765625 24.71484375 25 27 C24 28 24 28 21.27734375 28.09765625 C18.18489583 28.06510417 15.09244792 28.03255208 12 28 C12 32.95 12 37.9 12 43 C8.04 43 4.08 43 0 43 C0 28.81 0 14.62 0 0 Z " fill="#EE7203" transform="translate(265,152)"/>
<path d="M0 0 C9.9 0 19.8 0 30 0 C30 3.96 30 7.92 30 12 C27.36 12 24.72 12 22 12 C22 22.23 22 32.46 22 43 C17.71 43 13.42 43 9 43 C9 32.44 9 21.88 9 11 C6.03 11 3.06 11 0 11 C0 7.37 0 3.74 0 0 Z " fill="#EE7203" transform="translate(354,152)"/>
<path d="M0 0 C4.29 0 8.58 0 13 0 C13 10.56 13 21.12 13 32 C17.62 32 22.24 32 27 32 C27 35.63 27 39.26 27 43 C18.09 43 9.18 43 0 43 C0 28.81 0 14.62 0 0 Z " fill="#EE7203" transform="translate(156,152)"/>
<path d="M0 0 C4.29 0 8.58 0 13 0 C13 10.56 13 21.12 13 32 C17.29 32 21.58 32 26 32 C26 35.63 26 39.26 26 43 C17.42 43 8.84 43 0 43 C0 28.81 0 14.62 0 0 Z " fill="#EE7203" transform="translate(469,152)"/>
<path d="M0 0 C4.29 0 8.58 0 13 0 C13 14.19 13 28.38 13 43 C8.71 43 4.42 43 0 43 C0 28.81 0 14.62 0 0 Z " fill="#EE7203" transform="translate(387,152)"/>
<path d="M0 0 C4.29 0 8.58 0 13 0 C13 14.19 13 28.38 13 43 C8.71 43 4.42 43 0 43 C0 28.81 0 14.62 0 0 Z " fill="#EE7203" transform="translate(139,152)"/>
</svg>
