<?xml version="1.0" standalone="no"?>
<!DOCTYPE svg PUBLIC "-//W3C//DTD SVG 20010904//EN"
 "http://www.w3.org/TR/2001/REC-SVG-20010904/DTD/svg10.dtd">
<svg version="1.0" xmlns="http://www.w3.org/2000/svg"
 width="1875.000000pt" height="1875.000000pt" viewBox="0 0 1875.000000 1875.000000"
 preserveAspectRatio="xMidYMid meet">

<g transform="translate(0.000000,1875.000000) scale(0.100000,-0.100000)"
fill="#000000" stroke="none">
<path d="M10685 13617 c-8 -12 -15 -16 -15 -10 0 7 -7 10 -15 7 -9 -4 -15 0
-15 7 0 11 -2 11 -9 0 -8 -13 -12 -13 -26 -1 -11 9 -19 10 -23 4 -9 -13 -65
-12 -74 0 -4 6 -13 4 -23 -4 -11 -9 -19 -10 -23 -3 -10 15 -42 12 -42 -4 0 -8
5 -11 10 -8 6 3 10 1 10 -4 0 -6 -7 -11 -15 -11 -8 0 -15 4 -15 9 0 11 -36 21
-45 13 -11 -11 -35 -10 -35 1 0 7 -4 5 -10 -3 -5 -8 -20 -15 -32 -16 -13 0
-34 -4 -47 -8 -17 -6 -21 -5 -16 4 5 8 -3 10 -26 8 -27 -2 -34 -7 -32 -23 1
-17 0 -18 -10 -5 -16 21 -48 14 -41 -8 4 -11 3 -13 -3 -6 -12 16 -63 27 -63
13 0 -6 -6 -9 -12 -7 -7 3 -19 -2 -27 -10 -10 -10 -16 -11 -19 -3 -7 21 -23
11 -18 -11 3 -13 3 -17 0 -11 -4 9 -11 10 -24 3 -15 -8 -17 -6 -13 13 6 22 6
22 -16 -2 -11 -13 -21 -19 -21 -13 0 7 -4 12 -10 12 -5 0 -10 -7 -10 -15 0 -8
-4 -15 -10 -15 -5 0 -10 8 -10 18 -1 15 -2 14 -12 -3 -16 -29 -16 -29 -35 -14
-15 12 -16 12 -10 -5 6 -16 5 -17 -7 -7 -10 9 -16 9 -21 1 -5 -8 -11 -8 -20 0
-16 14 -35 5 -35 -16 0 -18 -8 -18 -28 3 -16 16 -17 15 -20 0 -2 -10 -8 -15
-13 -12 -5 4 -9 -2 -9 -11 0 -14 -3 -15 -11 -7 -9 9 -15 8 -26 -2 -7 -8 -20
-12 -27 -9 -7 3 -30 -5 -51 -18 -22 -12 -35 -17 -31 -10 4 7 2 12 -3 12 -6 0
-11 -5 -11 -11 0 -5 -4 -7 -10 -4 -5 3 -10 1 -10 -5 0 -7 -8 -9 -22 -4 -19 6
-21 5 -10 -8 10 -13 7 -15 -25 -12 -21 1 -42 -4 -51 -12 -11 -11 -17 -12 -28
-3 -11 9 -14 8 -14 -4 0 -11 -5 -14 -16 -10 -13 5 -15 2 -9 -17 5 -15 4 -20
-4 -16 -6 4 -11 0 -11 -9 0 -9 -5 -13 -11 -10 -6 4 -8 13 -5 21 3 8 -1 14 -10
14 -8 0 -13 -4 -10 -9 3 -5 -1 -12 -10 -15 -12 -5 -14 -1 -9 17 4 13 -4 7 -18
-16 -15 -23 -28 -34 -31 -28 -4 6 -2 11 5 11 7 0 10 3 6 6 -3 4 -21 -3 -39
-15 -18 -11 -27 -21 -19 -21 8 0 11 -3 7 -7 -7 -7 -37 -13 -68 -14 -10 0 -18
-6 -18 -14 0 -7 -7 -15 -15 -19 -18 -7 -20 5 -3 22 7 7 9 12 4 12 -13 0 -37
-30 -31 -39 3 -5 1 -12 -4 -15 -5 -4 -12 2 -14 11 -4 16 -5 16 -6 -1 -1 -12
-6 -16 -16 -12 -18 6 -19 2 -4 -26 8 -15 8 -19 0 -14 -6 4 -19 2 -28 -3 -10
-6 -12 -11 -5 -11 6 0 12 -7 12 -15 0 -8 5 -15 10 -15 6 0 10 -8 11 -17 0 -15
2 -15 9 2 5 11 9 14 9 8 1 -7 7 -13 15 -13 8 0 18 -9 21 -20 5 -15 13 -19 30
-16 16 3 25 -1 28 -12 3 -11 5 -8 6 8 1 14 10 39 21 55 11 17 20 35 20 40 0 6
-4 4 -9 -4 -6 -10 -9 -2 -8 24 1 31 3 34 10 17 l9 -20 24 21 c13 11 20 25 17
30 -4 6 0 8 10 4 9 -3 18 0 21 9 3 9 10 13 15 9 5 -3 17 5 27 17 11 15 14 17
11 6 -4 -10 -2 -18 4 -18 6 0 13 9 16 20 4 15 11 18 28 14 13 -3 26 -1 29 5 4
5 14 7 23 4 10 -4 14 -2 10 4 -3 5 3 9 13 9 11 -1 20 4 21 9 3 17 33 34 43 25
14 -14 36 0 36 24 0 17 2 18 10 6 9 -13 11 -13 20 0 8 13 10 13 10 -1 0 -9 9
-19 20 -22 13 -3 18 -1 13 6 -4 6 2 8 15 5 23 -7 30 6 10 16 -7 3 -1 4 15 1
16 -3 27 -1 27 5 0 6 -6 8 -12 4 -8 -4 -10 -3 -5 2 5 5 34 10 64 11 31 0 59 7
63 13 5 9 9 9 14 1 4 -6 11 -11 17 -11 15 0 10 22 -8 36 -16 12 -16 12 5 7 12
-3 25 -9 28 -14 9 -15 34 -10 34 8 0 14 2 14 20 -2 12 -11 20 -13 20 -6 0 7 4
10 9 6 5 -3 12 -1 15 3 3 5 18 7 32 4 22 -4 26 -2 21 11 -5 14 -3 15 13 4 12
-7 18 -18 15 -27 -5 -11 -3 -12 5 -4 6 6 12 21 13 33 1 22 2 22 17 4 18 -21
40 -28 40 -12 0 6 7 8 17 5 10 -4 14 -4 10 0 -8 8 11 34 24 34 5 0 6 -6 3 -14
-3 -9 4 -15 20 -18 27 -5 36 6 14 15 -9 4 -8 6 3 6 8 1 21 -5 27 -11 10 -10
15 -10 22 2 8 12 10 12 10 1 0 -10 8 -12 30 -7 18 3 30 1 30 -5 0 -6 7 -3 16
5 18 18 64 22 64 5 0 -6 -7 -9 -15 -5 -8 3 -15 1 -15 -4 0 -5 15 -8 33 -6 17
2 38 4 45 5 8 1 10 6 6 14 -4 6 3 3 16 -8 13 -11 20 -14 16 -7 -13 21 5 35 20
15 7 -10 14 -13 14 -7 0 15 43 12 53 -3 4 -7 13 -13 20 -13 8 0 7 4 -3 9 -17
11 45 8 73 -4 9 -4 17 -3 17 1 0 5 16 9 35 9 19 0 35 -5 35 -10 0 -6 9 -11 20
-11 11 0 20 5 20 10 0 5 9 -2 21 -15 16 -19 22 -21 29 -9 7 11 11 11 24 1 8
-7 20 -10 25 -6 6 3 20 1 32 -6 16 -8 23 -8 29 1 5 8 11 7 23 -4 11 -12 17
-13 20 -3 4 9 7 9 15 -1 6 -9 18 -11 35 -6 17 4 27 2 27 -5 0 -6 7 -8 17 -4
11 4 14 3 9 -5 -8 -13 50 -12 72 2 7 4 12 1 12 -8 0 -9 -6 -16 -12 -17 -7 -1
-2 -4 12 -9 16 -4 29 -3 35 5 8 10 13 10 22 0 7 -7 9 -16 5 -21 -4 -4 -1 -4 5
0 7 4 22 2 34 -5 16 -8 23 -8 29 1 5 8 9 4 14 -12 5 -19 8 -20 16 -8 9 13 11
13 20 0 5 -8 10 -11 10 -6 0 6 7 1 15 -10 8 -11 14 -14 15 -6 0 10 4 10 23 0
12 -7 26 -11 30 -10 4 1 16 -2 27 -8 13 -7 21 -7 26 1 5 8 9 7 16 -4 10 -20
64 -47 103 -54 17 -3 33 -10 36 -15 4 -6 16 -7 27 -4 13 4 22 1 26 -9 3 -9 10
-13 16 -10 5 3 10 1 10 -5 0 -6 4 -9 9 -6 5 4 11 1 13 -4 2 -6 13 -12 26 -13
15 -1 22 -8 23 -22 0 -20 0 -20 9 0 5 11 9 15 9 8 1 -18 63 -36 73 -21 5 9 8
8 8 -5 0 -11 12 -22 30 -28 17 -6 30 -15 30 -21 0 -5 5 -6 10 -3 6 3 13 -1 16
-9 3 -9 14 -16 24 -16 11 0 22 -5 25 -10 4 -6 10 -8 15 -5 4 3 11 -2 14 -11 3
-8 10 -13 15 -10 5 3 21 -6 36 -20 15 -14 35 -27 44 -29 24 -5 91 -46 91 -56
0 -5 5 -9 12 -9 6 0 20 -8 31 -17 12 -11 17 -12 12 -4 -5 10 -4 12 3 7 7 -4
12 -13 12 -20 0 -8 20 -19 45 -26 25 -7 45 -17 45 -21 0 -5 7 -9 15 -9 8 0 12
-6 9 -14 -4 -11 15 -27 38 -30 4 -1 16 -11 28 -23 11 -13 25 -23 30 -23 6 0
22 -12 37 -28 16 -15 40 -34 56 -41 15 -8 27 -20 27 -27 0 -8 6 -11 16 -7 10
4 17 -1 21 -16 5 -19 10 -22 29 -20 10 1 33 -35 28 -43 -3 -5 2 -8 10 -8 9 0
16 -4 16 -10 0 -5 7 -10 15 -10 9 0 20 -11 27 -25 6 -13 15 -22 19 -19 5 3 9
0 9 -6 0 -6 5 -8 10 -5 6 3 10 1 10 -5 0 -14 25 -40 39 -40 6 0 11 -3 11 -8 0
-12 88 -102 100 -102 6 0 9 -4 6 -9 -3 -5 9 -20 26 -35 18 -14 29 -26 25 -26
-4 0 16 -22 43 -48 28 -27 50 -52 50 -56 0 -4 10 -17 23 -30 12 -13 29 -33 37
-45 8 -11 19 -21 25 -21 5 0 16 -13 23 -29 7 -16 24 -40 37 -53 13 -13 27 -36
30 -51 4 -15 10 -25 15 -22 4 2 13 -7 20 -20 7 -13 18 -22 23 -18 6 4 7 1 3
-6 -5 -7 0 -18 10 -26 11 -8 16 -15 12 -15 -5 0 0 -9 10 -19 34 -39 42 -50 42
-66 0 -8 4 -15 9 -15 5 0 13 -9 16 -20 3 -11 12 -20 20 -20 8 0 11 -7 8 -18
-2 -10 3 -24 11 -31 9 -8 16 -20 16 -27 0 -8 3 -14 8 -14 7 0 16 -14 45 -76 8
-17 20 -35 26 -38 6 -4 11 -16 11 -27 0 -11 4 -18 9 -15 8 5 33 -43 36 -69 0
-5 8 -21 17 -35 9 -14 20 -37 23 -52 4 -15 13 -32 20 -38 8 -6 17 -26 20 -43
4 -18 20 -57 35 -87 16 -30 41 -89 56 -130 15 -41 31 -77 35 -80 4 -3 10 -20
14 -37 3 -18 10 -45 16 -60 6 -15 12 -38 14 -51 1 -12 10 -31 19 -41 9 -9 14
-20 11 -23 -8 -7 16 -99 24 -94 3 2 6 -10 7 -27 1 -18 9 -59 19 -92 16 -55 19
-73 29 -146 1 -14 5 -30 9 -35 6 -11 22 -115 19 -126 -1 -5 2 -8 6 -8 5 0 9
-15 9 -32 1 -18 4 -55 8 -83 4 -27 9 -61 10 -75 1 -14 3 -25 4 -25 12 0 30
-539 19 -551 -3 -3 -2 -21 2 -40 4 -18 5 -34 1 -34 -3 0 -7 -21 -7 -48 -5
-167 -10 -239 -18 -234 -5 3 -6 1 -3 -4 3 -5 -1 -39 -8 -74 -8 -36 -16 -90
-20 -120 -3 -30 -14 -89 -24 -130 -11 -41 -21 -91 -23 -110 -2 -19 -6 -38 -11
-41 -4 -3 -8 -23 -10 -45 -1 -21 -7 -45 -14 -51 -6 -7 -10 -24 -9 -37 2 -14
-2 -27 -9 -29 -6 -3 -17 -31 -24 -63 -8 -33 -21 -75 -31 -94 -10 -20 -21 -51
-25 -70 -11 -58 -35 -68 -186 -75 -74 -3 -155 -7 -180 -10 -69 -6 -249 -41
-284 -56 -33 -14 -40 -16 -56 -18 -5 0 -8 -4 -6 -8 3 -5 -5 -8 -16 -9 -31 -2
-60 -8 -74 -17 -7 -5 -13 -5 -13 -2 0 3 -10 -3 -22 -15 -12 -11 -27 -20 -32
-20 -14 0 -115 -97 -142 -135 -25 -38 -59 -108 -56 -117 1 -5 -3 -8 -9 -8 -5
0 -8 -4 -5 -9 4 -5 2 -21 -4 -35 -7 -21 -6 -26 5 -26 8 0 15 7 15 15 0 8 3 15
8 15 4 0 18 21 32 48 26 50 119 147 151 157 11 4 17 11 14 16 -4 5 3 9 14 9
12 0 21 5 21 10 0 6 9 10 21 10 11 0 30 5 42 12 12 7 27 13 32 14 6 2 35 10
65 20 30 9 74 19 98 21 23 3 42 9 42 15 0 5 8 8 18 6 11 -2 27 4 37 12 11 8
16 10 13 5 -4 -6 16 -9 55 -7 34 2 80 4 103 5 22 1 48 8 58 16 14 12 16 12 11
-1 -4 -11 4 -14 40 -14 25 1 45 5 45 10 0 6 4 6 11 -1 6 -6 25 -7 49 -3 22 4
37 3 34 -1 -8 -14 100 -10 116 4 12 10 12 9 2 -4 -10 -13 -3 -17 56 -28 103
-19 205 -43 224 -53 10 -4 30 -10 45 -13 58 -8 174 -51 290 -106 46 -21 89
-39 98 -39 8 0 15 -5 15 -10 0 -6 12 -16 28 -23 31 -14 34 -16 124 -91 37 -31
72 -56 78 -56 6 0 8 -4 5 -10 -3 -5 1 -10 9 -10 9 0 15 -3 14 -7 -2 -5 9 -24
24 -43 29 -39 78 -132 78 -149 0 -6 4 -11 9 -11 4 0 14 -21 20 -47 7 -27 19
-70 26 -98 16 -60 15 -40 18 -263 1 -101 -1 -186 -5 -188 -5 -3 -8 -14 -8 -25
0 -11 5 -17 10 -14 6 4 2 -9 -9 -28 -11 -19 -17 -37 -15 -40 3 -3 0 -25 -7
-48 -7 -24 -12 -52 -11 -61 0 -10 -2 -18 -6 -18 -4 0 -8 -10 -9 -22 -2 -26
-12 -76 -20 -98 -17 -46 -26 -170 -12 -170 5 0 9 -9 9 -20 0 -11 5 -20 11 -20
5 0 7 -4 4 -10 -3 -6 -2 -10 3 -10 6 0 13 -11 16 -25 4 -14 11 -25 16 -25 6 0
10 -9 10 -19 0 -10 7 -21 15 -25 8 -3 15 -11 15 -18 0 -8 9 -20 19 -27 11 -8
17 -20 14 -28 -3 -7 -1 -13 4 -13 5 0 15 -20 22 -45 7 -25 17 -45 21 -45 7 0
18 -41 23 -82 1 -10 8 -18 17 -18 13 0 13 -1 0 -10 -13 -9 -12 -12 4 -25 18
-14 18 -15 2 -15 -11 0 -14 -4 -10 -12 4 -6 8 -29 9 -50 3 -72 4 -76 30 -80
19 -4 25 -1 25 13 0 9 6 16 15 15 20 -3 31 -16 14 -17 -14 0 18 -16 36 -17 5
0 12 -9 16 -19 6 -14 8 -12 8 10 1 24 -2 27 -20 22 -20 -7 -20 -6 2 16 21 21
21 23 4 36 -11 7 -14 13 -8 13 14 0 10 36 -11 103 -8 27 -12 55 -10 62 3 7 -1
27 -10 43 -8 16 -13 32 -10 34 3 3 -2 21 -10 39 -8 19 -23 61 -32 94 -18 64
-90 221 -105 231 -5 3 -7 10 -4 15 4 5 2 9 -3 9 -12 0 -34 82 -24 90 4 3 7 16
6 30 0 14 3 32 7 40 9 19 20 111 26 210 2 41 5 93 6 115 2 22 -2 44 -8 48 -7
6 -6 10 1 13 15 6 8 179 -12 298 -17 98 -59 242 -74 251 -6 3 -10 15 -10 26 0
11 -7 22 -15 25 -8 4 -13 10 -10 14 7 11 -51 81 -60 72 -4 -4 -5 0 -3 9 3 17
-31 57 -123 144 -94 88 -121 108 -130 93 -7 -10 -9 -9 -9 5 0 9 -11 23 -25 29
-14 6 -25 15 -25 20 0 4 -5 8 -10 8 -6 0 -21 9 -33 21 -12 11 -30 18 -39 15
-11 -2 -18 1 -18 9 0 13 -20 25 -50 31 -8 2 -16 8 -18 14 -2 5 -8 7 -14 4 -6
-4 -13 -3 -17 2 -8 12 -48 34 -61 34 -6 0 -29 9 -50 19 -26 13 -40 15 -40 8 0
-7 -4 -6 -10 3 -5 8 -12 11 -16 7 -4 -4 -15 0 -25 9 -10 9 -29 17 -43 18 -14
0 -26 5 -26 9 0 5 -4 6 -9 2 -18 -10 -29 27 -20 64 12 45 49 170 60 196 7 18
17 48 26 80 4 17 44 178 47 195 2 8 5 22 8 30 14 39 27 121 21 136 -4 10 -2
15 3 11 14 -8 53 269 57 405 1 38 4 68 7 68 6 0 7 27 8 220 1 80 1 180 2 222
0 63 -3 79 -17 88 -17 11 -17 11 0 6 20 -6 21 8 6 129 -5 44 -12 100 -14 125
-4 37 -11 86 -29 210 -4 21 -18 101 -22 125 -2 11 -6 34 -9 50 -12 67 -17 85
-26 85 -5 0 -7 11 -3 24 3 13 1 27 -4 30 -6 3 -8 15 -5 25 3 10 0 22 -5 25 -6
3 -8 15 -5 25 3 10 0 22 -6 25 -6 4 -11 16 -11 26 0 10 -5 31 -11 47 -6 15
-13 44 -15 63 -2 19 -8 44 -13 55 -5 11 -17 40 -26 65 -10 25 -24 59 -31 75
-7 17 -15 44 -18 60 -3 16 -10 31 -15 33 -5 2 -7 11 -4 21 2 10 -3 25 -12 34
-9 9 -18 25 -20 36 -2 11 -9 30 -16 43 -7 13 -13 28 -14 33 -1 21 -38 105 -46
105 -5 0 -8 3 -7 8 5 13 -45 127 -62 142 -9 8 -15 20 -13 26 2 6 -3 17 -12 24
-8 7 -15 18 -15 25 0 17 -32 78 -45 87 -5 4 -10 11 -10 15 -1 4 -5 19 -9 32
-6 19 -10 21 -18 10 -7 -10 -8 -8 -3 7 3 13 -1 26 -11 35 -8 7 -23 30 -31 52
-10 23 -19 34 -23 27 -5 -8 -9 -7 -14 5 -3 9 -4 20 -1 25 3 4 -8 22 -24 39
-16 17 -36 47 -46 67 -9 19 -25 44 -36 55 -10 10 -17 19 -14 19 3 0 -5 12 -18
26 -12 14 -22 30 -22 35 0 5 -5 13 -10 17 -6 4 -19 20 -29 37 -24 37 -35 51
-63 80 -13 12 -23 27 -23 34 0 6 -5 11 -10 11 -6 0 -15 11 -20 25 -5 14 -16
25 -25 25 -8 0 -15 7 -15 16 0 9 -9 18 -20 21 -11 3 -17 10 -14 15 3 5 -12 27
-35 49 -23 22 -41 43 -41 46 0 3 -11 14 -25 25 -14 11 -25 26 -25 34 0 8 -7
14 -15 14 -8 0 -15 6 -15 13 0 7 -12 21 -26 31 -14 11 -37 30 -52 43 -15 13
-31 23 -36 23 -5 0 -7 3 -3 6 8 8 -43 59 -59 59 -14 0 -64 51 -58 58 2 2 -8
13 -22 23 -15 10 -42 34 -61 52 -19 17 -41 32 -49 32 -8 0 -14 7 -14 15 0 8
-5 15 -10 15 -6 0 -16 5 -23 10 -23 19 -55 45 -82 64 -14 11 -36 28 -47 38
-12 10 -27 18 -35 18 -7 0 -13 7 -13 15 0 14 -12 20 -34 16 -4 -1 -19 10 -32
24 -12 14 -28 25 -34 25 -5 0 -10 5 -10 11 0 6 -7 9 -15 5 -8 -3 -15 -1 -15 4
0 6 -4 10 -10 10 -5 0 -18 7 -27 15 -10 8 -22 15 -26 14 -5 0 -17 9 -26 20
-10 11 -21 18 -25 14 -3 -3 -6 -1 -6 6 0 7 -4 10 -9 6 -5 -3 -12 -1 -16 5 -4
6 -11 8 -16 5 -5 -4 -9 -3 -9 2 0 9 -50 33 -75 37 -8 1 -18 6 -22 11 -4 4 -2
5 5 1 6 -4 12 -3 12 2 0 11 -30 26 -47 23 -6 -1 -28 8 -48 19 -19 11 -42 20
-50 20 -8 0 -15 5 -15 11 0 8 -6 7 -17 -2 -10 -9 -14 -9 -10 -2 5 8 -7 20 -35
33 -37 18 -133 56 -163 64 -54 15 -65 19 -65 26 0 15 -53 22 -61 8 -7 -10 -9
-10 -9 0 0 6 -9 12 -20 12 -11 0 -20 5 -20 10 0 6 -15 9 -36 7 -28 -4 -34 -1
-29 10 4 11 1 13 -10 9 -9 -3 -23 -1 -33 4 -32 19 -146 39 -164 29 -24 -13
-27 -12 -20 13 3 14 1 19 -6 14 -19 -12 -53 -16 -47 -5 4 5 -1 10 -9 10 -9 1
-22 2 -28 3 -7 1 -16 -3 -20 -9 -5 -6 -8 -6 -8 2 0 7 -7 10 -15 7 -8 -4 -22 0
-31 7 -12 10 -17 10 -23 0 -6 -9 -11 -8 -21 3 -7 9 -16 13 -21 10 -5 -3 -17 0
-28 6 -11 5 -22 6 -25 1 -7 -10 -56 -2 -73 12 -9 6 -13 6 -13 -2 0 -6 -7 -11
-16 -11 -8 0 -12 5 -9 10 3 6 1 10 -4 10 -6 0 -11 -5 -11 -10 0 -6 -15 -3 -32
6 -30 16 -32 16 -19 1 18 -22 9 -21 -33 3 -21 11 -38 15 -41 9 -4 -5 -11 -6
-17 -3 -6 4 -13 2 -17 -4 -5 -8 -15 -7 -34 3 -25 13 -28 12 -42 -8z m130 3 c3
-5 -1 -10 -10 -10 -9 0 -13 5 -10 10 3 6 8 10 10 10 2 0 7 -4 10 -10z m-465
-154 c0 -3 -4 -8 -10 -11 -5 -3 -10 -1 -10 4 0 6 5 11 10 11 6 0 10 -2 10 -4z
m-653 -58 c-3 -8 -6 -5 -6 6 -1 11 2 17 5 13 3 -3 4 -12 1 -19z m-52 2 c-3 -5
-12 -10 -18 -10 -7 0 -6 4 3 10 19 12 23 12 15 0z m-225 -44 c0 -3 -4 -8 -10
-11 -5 -3 -10 -1 -10 4 0 6 5 11 10 11 6 0 10 -2 10 -4z m-70 -36 c0 -5 -4
-10 -10 -10 -5 0 -10 5 -10 10 0 6 5 10 10 10 6 0 10 -4 10 -10z m2064 -35 c3
-8 1 -15 -4 -15 -6 0 -10 7 -10 15 0 8 2 15 4 15 2 0 6 -7 10 -15z m-2194 -35
c0 -5 -2 -10 -4 -10 -3 0 -8 5 -11 10 -3 6 -1 10 4 10 6 0 11 -4 11 -10z m-55
-20 c3 -6 -1 -7 -9 -4 -18 7 -21 14 -7 14 6 0 13 -4 16 -10z m-81 -96 c3 -9 4
-20 0 -25 -7 -12 -24 -11 -24 2 0 5 5 7 10 4 14 -9 13 8 -2 23 -8 8 -8 12 -1
12 6 0 14 -7 17 -16z m3729 -539 c-3 -9 -8 -14 -10 -11 -3 3 -2 9 2 15 9 16
15 13 8 -4z m1344 -4291 c-3 -3 -12 -4 -19 -1 -8 3 -5 6 6 6 11 1 17 -2 13 -5z
m-247 -278 c0 -2 -7 -7 -16 -10 -8 -3 -12 -2 -9 4 6 10 25 14 25 6z m817 -378
c-3 -7 -5 -2 -5 12 0 14 2 19 5 13 2 -7 2 -19 0 -25z m448 -1798 c3 -5 1 -10
-4 -10 -6 0 -11 5 -11 10 0 6 2 10 4 10 3 0 8 -4 11 -10z"/>
<path d="M10540 13440 c0 -5 7 -10 16 -10 8 0 12 5 9 10 -3 6 -10 10 -16 10
-5 0 -9 -4 -9 -10z"/>
<path d="M8920 13180 c0 -5 5 -10 11 -10 5 0 7 5 4 10 -3 6 -8 10 -11 10 -2 0
-4 -4 -4 -10z"/>
<path d="M9167 12834 c-8 -8 3 -34 15 -34 7 0 6 5 -1 13 -6 8 -8 17 -4 20 3 4
4 7 1 7 -2 0 -7 -3 -11 -6z"/>
<path d="M9195 12779 c-4 -6 -3 -14 2 -18 6 -3 9 -14 7 -23 -1 -10 2 -21 8
-24 6 -4 5 -10 -3 -15 -11 -7 -11 -9 -1 -9 7 0 10 -5 6 -11 -3 -6 -2 -14 5
-18 6 -4 12 -31 13 -59 2 -37 7 -51 16 -47 7 2 12 -4 12 -14 0 -11 -6 -22 -12
-24 -8 -3 -5 -6 6 -6 12 -1 16 -6 12 -16 -3 -8 -1 -15 4 -15 6 0 10 -7 10 -16
0 -8 -4 -13 -9 -10 -4 3 -6 -7 -3 -22 2 -15 5 -42 6 -59 0 -18 3 -33 6 -33 8
0 4 -145 -3 -157 -4 -7 -3 -14 1 -17 5 -3 5 -28 1 -58 -6 -37 -5 -54 3 -60 9
-5 8 -9 -5 -13 -13 -5 -14 -11 -7 -25 7 -13 5 -29 -5 -54 -8 -20 -14 -39 -13
-43 0 -5 -2 -16 -7 -26 -4 -9 -5 -26 -2 -37 3 -11 1 -22 -4 -25 -4 -3 -6 -12
-2 -20 3 -8 0 -15 -6 -15 -6 0 -11 -9 -11 -20 0 -11 -4 -20 -8 -20 -5 0 -9
-14 -10 -31 0 -17 -6 -37 -13 -46 -8 -8 -15 -26 -17 -39 -1 -14 -14 -45 -27
-69 -14 -24 -25 -51 -25 -59 0 -9 -4 -16 -8 -16 -5 0 -16 -24 -25 -54 -10 -30
-24 -57 -33 -60 -8 -3 -13 -10 -9 -15 3 -5 -4 -26 -15 -46 -11 -19 -20 -42
-20 -50 0 -8 -7 -15 -15 -15 -9 0 -15 -9 -15 -25 0 -14 -4 -25 -9 -25 -5 0
-11 -8 -15 -17 -6 -21 -21 -45 -57 -93 -15 -19 -29 -45 -33 -57 -4 -13 -12
-23 -18 -23 -5 0 -8 -7 -4 -15 3 -8 -2 -18 -10 -23 -8 -5 -16 -18 -17 -30 -1
-12 -5 -22 -9 -22 -29 0 -25 -293 5 -312 9 -6 8 -8 -3 -8 -10 0 -11 -3 -3 -11
13 -13 5 -49 -11 -49 -6 0 -4 -5 4 -10 8 -5 10 -10 3 -10 -11 0 -13 -12 -16
-115 -1 -27 -6 -53 -11 -57 -5 -3 -11 -14 -12 -23 -6 -41 -28 -122 -37 -140
-6 -11 -12 -28 -14 -38 -2 -10 -10 -29 -19 -42 -9 -13 -13 -29 -9 -35 3 -5 1
-10 -4 -10 -6 0 -11 -7 -11 -16 0 -8 -5 -12 -11 -9 -6 4 -9 1 -8 -6 4 -17 -28
-79 -40 -79 -10 0 -33 -49 -27 -59 3 -4 -9 -16 -25 -26 -16 -11 -29 -23 -29
-27 0 -14 -34 -48 -47 -48 -7 0 -13 -7 -13 -15 0 -7 -8 -18 -17 -24 -10 -5
-15 -13 -11 -17 4 -4 14 -1 23 6 11 9 15 9 15 1 0 -8 5 -9 19 -2 14 8 22 7 30
-3 6 -7 8 -15 5 -19 -3 -3 5 -3 18 0 13 2 19 1 13 -4 -12 -10 -13 -33 -2 -50
6 -9 3 -11 -9 -6 -13 5 -16 2 -12 -8 3 -9 -3 -26 -13 -40 -10 -13 -19 -30 -19
-36 0 -7 -5 -13 -11 -13 -6 0 -9 -6 -6 -14 3 -7 -5 -23 -19 -35 -13 -11 -24
-28 -24 -38 0 -9 -3 -14 -6 -11 -3 3 -20 -9 -37 -28 -66 -70 -82 -84 -95 -84
-6 0 -12 -9 -15 -20 -3 -11 -21 -27 -41 -35 -20 -9 -36 -22 -36 -30 0 -8 -9
-15 -20 -15 -11 0 -20 -5 -20 -12 0 -6 -3 -9 -6 -5 -4 3 -13 -1 -21 -9 -8 -8
-19 -12 -23 -9 -5 3 -15 -3 -22 -15 -7 -11 -18 -20 -25 -20 -7 0 -13 -4 -13
-9 0 -5 -12 -12 -26 -15 -15 -4 -24 -9 -21 -12 5 -6 -28 -44 -38 -44 -9 0 -55
-44 -55 -53 0 -11 -16 -26 -57 -56 -18 -12 -33 -28 -33 -36 0 -7 -11 -16 -25
-19 -17 -4 -23 -11 -18 -23 4 -11 3 -14 -5 -9 -8 4 -12 1 -12 -10 0 -10 -3
-14 -7 -11 -3 4 -12 -2 -20 -13 -8 -11 -22 -20 -31 -20 -15 0 -15 -2 -2 -10
13 -9 13 -10 0 -10 -8 0 -21 -9 -28 -20 -7 -12 -17 -18 -23 -15 -5 4 -9 3 -8
-2 4 -21 -2 -44 -9 -39 -5 3 -16 -4 -25 -15 -9 -10 -24 -19 -32 -19 -8 0 -15
-6 -15 -12 0 -7 -18 -23 -40 -36 -22 -12 -40 -28 -40 -35 0 -7 -16 -23 -36
-37 -19 -14 -52 -42 -73 -62 -21 -21 -48 -38 -60 -38 -12 0 -21 -6 -21 -15 0
-8 -5 -14 -12 -12 -6 1 -17 -8 -23 -21 -7 -13 -14 -22 -16 -21 -9 5 -49 -13
-49 -22 0 -5 -6 -9 -13 -9 -21 0 -58 -40 -50 -53 4 -7 0 -6 -10 2 -11 9 -17
10 -17 2 0 -6 -9 -11 -20 -11 -11 0 -20 -5 -20 -11 0 -5 -4 -7 -10 -4 -5 3
-10 -1 -10 -9 0 -9 -3 -15 -7 -15 -21 4 -75 -15 -80 -28 -3 -8 -13 -13 -22
-11 -15 3 -68 -14 -103 -33 -10 -5 -34 -11 -54 -14 -20 -2 -45 -7 -55 -10 -11
-4 -19 -2 -19 6 0 9 -3 9 -14 0 -8 -7 -17 -8 -20 -3 -3 4 -30 8 -60 7 -30 0
-53 2 -51 6 3 3 -9 6 -25 7 -16 0 -39 6 -52 13 -13 7 -24 11 -26 10 -5 -5 -68
12 -81 23 -11 8 -13 8 -7 -1 4 -7 2 -13 -3 -13 -6 0 -11 5 -11 11 0 6 -7 8
-16 5 -8 -3 -13 -2 -10 3 5 7 -58 39 -94 47 -8 1 -16 8 -18 14 -2 5 -7 8 -12
5 -4 -3 -13 2 -20 10 -6 7 -18 11 -26 8 -8 -3 -14 0 -14 6 0 6 -7 11 -15 11
-8 0 -15 5 -15 11 0 6 -7 9 -14 6 -11 -4 -13 -1 -9 10 5 12 2 15 -9 11 -9 -4
-21 -1 -27 5 -6 6 -11 8 -11 4 0 -4 -10 3 -22 15 -13 13 -22 26 -21 30 2 5 -5
8 -15 9 -9 0 -37 16 -62 35 -25 19 -53 37 -62 40 -10 4 -19 10 -19 15 -1 5 -2
13 -3 18 0 4 -10 20 -20 34 -16 20 -24 24 -38 16 -10 -5 -18 -6 -18 -2 0 4 -5
1 -10 -7 -8 -12 -10 -12 -10 -1 0 11 -3 11 -15 1 -9 -7 -18 -10 -22 -7 -3 3
-20 -1 -37 -10 -17 -9 -52 -17 -77 -18 -26 -1 -51 -5 -58 -9 -17 -11 -13 -36
7 -43 9 -3 25 -15 34 -27 9 -12 21 -21 25 -21 8 0 26 -13 64 -47 10 -10 23
-18 27 -18 5 0 27 -17 50 -38 23 -22 44 -37 46 -34 3 2 13 -3 22 -12 9 -10 23
-15 30 -12 8 3 14 -1 14 -8 0 -8 20 -27 45 -43 25 -15 45 -31 45 -35 0 -3 14
-9 30 -13 17 -4 30 -10 30 -14 0 -4 16 -14 35 -21 20 -8 41 -20 47 -27 5 -7
14 -10 19 -7 5 3 9 0 9 -6 0 -7 7 -10 15 -7 8 4 17 2 20 -3 3 -5 23 -17 43
-26 20 -8 45 -20 54 -25 10 -5 27 -9 38 -9 11 0 23 -7 26 -15 4 -8 10 -12 15
-9 5 3 9 -1 9 -8 0 -10 2 -10 9 1 6 9 11 10 15 2 4 -6 18 -9 32 -7 14 3 22 1
19 -5 -6 -8 9 -13 29 -10 4 1 14 -3 22 -10 8 -6 20 -9 28 -6 7 3 18 1 22 -3 5
-5 26 -11 47 -14 27 -3 37 -1 37 9 0 8 4 16 9 19 5 4 7 -2 4 -13 -3 -10 1 -22
8 -26 8 -6 10 -4 4 6 -7 11 -6 12 6 2 8 -7 25 -10 37 -6 12 3 22 1 22 -4 0
-12 65 -6 91 7 12 7 19 6 21 -1 3 -9 9 -9 23 -1 11 6 37 14 58 17 20 3 37 10
37 16 0 5 11 7 25 5 14 -3 31 2 39 10 8 8 24 14 36 14 25 0 54 25 45 40 -3 5
0 7 8 4 17 -6 90 30 125 63 14 13 35 26 47 29 13 3 28 16 35 29 8 15 18 21 28
18 11 -5 13 -3 7 7 -6 10 -1 12 26 6 19 -3 36 -11 37 -16 2 -6 10 -10 18 -10
8 0 15 -4 15 -10 1 -5 3 -13 4 -17 2 -5 6 -18 10 -30 4 -13 11 -23 16 -23 5 0
9 -7 9 -16 0 -8 7 -22 15 -30 8 -9 15 -21 15 -27 0 -7 -4 -6 -10 3 -6 9 -10
10 -10 3 0 -6 7 -18 15 -27 8 -8 15 -20 15 -26 0 -7 11 -21 25 -31 15 -13 22
-26 18 -36 -4 -9 1 -21 12 -29 10 -8 14 -14 8 -14 -6 0 -9 -9 -6 -20 3 -11 11
-20 18 -20 7 0 16 -11 19 -25 4 -14 11 -25 16 -25 6 0 10 -8 10 -18 0 -9 11
-30 26 -45 14 -15 22 -32 18 -39 -5 -7 -3 -8 6 -3 10 6 12 4 7 -8 -3 -10 -2
-17 3 -17 5 0 7 -6 4 -14 -3 -8 3 -19 15 -26 12 -6 21 -15 21 -21 0 -6 -5 -7
-12 -3 -7 4 -8 3 -4 -4 4 -7 16 -12 27 -12 16 0 21 -10 18 -36 0 -3 7 -11 16
-18 15 -10 22 -30 24 -63 1 -6 10 -14 20 -18 10 -3 22 -16 25 -29 3 -13 15
-26 27 -29 15 -4 20 -11 16 -21 -4 -9 -3 -16 2 -16 5 0 11 -10 14 -21 4 -15
11 -20 23 -15 13 5 14 4 6 -7 -14 -16 -6 -28 14 -20 10 4 12 0 8 -11 -4 -10 5
-26 26 -46 18 -16 29 -30 24 -30 -4 0 1 -7 12 -15 10 -8 15 -15 10 -15 -14 0
26 -40 41 -40 7 0 13 -7 13 -15 0 -8 9 -23 20 -32 11 -10 20 -23 20 -30 0 -7
6 -13 14 -13 8 0 18 -5 22 -12 4 -7 3 -8 -4 -4 -8 4 -10 2 -6 -8 3 -8 14 -13
26 -11 16 3 17 1 9 -9 -9 -11 -7 -15 10 -19 15 -4 20 -11 15 -23 -4 -10 -2
-15 6 -12 14 5 50 -27 40 -36 -3 -3 2 -6 11 -6 9 0 17 -5 17 -11 0 -13 38 -49
52 -49 4 0 8 -7 8 -15 0 -9 6 -12 17 -8 10 4 14 2 9 -5 -7 -11 66 -92 84 -92
5 0 10 -7 10 -15 0 -8 4 -15 10 -15 5 0 30 -20 55 -45 25 -25 45 -44 45 -41 0
2 19 -14 42 -35 24 -22 48 -39 53 -39 6 0 16 -9 22 -19 7 -11 28 -27 47 -36
20 -9 38 -25 41 -36 4 -10 14 -19 24 -19 10 0 28 -11 41 -25 12 -13 26 -22 30
-20 4 3 15 -4 25 -15 10 -11 24 -20 30 -20 7 0 15 -7 19 -15 3 -8 12 -15 19
-15 8 0 22 -9 32 -20 10 -11 25 -20 34 -20 9 0 29 -14 44 -30 16 -17 33 -28
37 -25 5 3 11 1 15 -5 3 -5 17 -10 31 -10 14 0 23 -4 20 -9 -3 -5 11 -17 31
-26 21 -10 43 -24 51 -31 7 -7 19 -11 27 -8 8 4 15 1 15 -6 0 -7 7 -10 16 -6
8 3 13 2 10 -3 -7 -10 22 -37 30 -28 3 3 21 -3 40 -14 19 -10 40 -19 46 -19 6
0 16 -7 22 -16 7 -9 24 -17 38 -17 14 -1 24 -5 21 -9 -2 -5 5 -8 16 -8 11 0
26 -7 35 -15 8 -8 23 -15 34 -15 10 0 27 -9 37 -20 10 -11 21 -18 24 -15 8 4
68 -15 89 -28 7 -5 12 -4 12 3 0 7 7 5 16 -4 8 -9 24 -16 35 -16 10 0 19 -4
19 -8 0 -4 12 -9 28 -10 15 -1 38 -6 52 -11 14 -5 34 -12 45 -16 24 -9 52 -15
83 -17 12 -1 22 -6 22 -12 0 -5 3 -6 7 -3 3 4 12 2 19 -4 8 -6 20 -9 29 -6 8
4 17 2 20 -3 4 -7 68 -22 107 -25 3 0 10 -3 14 -8 4 -4 24 -7 44 -7 20 0 40
-3 44 -7 3 -4 16 -8 29 -10 50 -6 189 -20 282 -28 28 -3 61 -7 73 -10 13 -3
31 0 40 7 10 9 13 9 9 1 -6 -9 45 -11 215 -7 123 2 237 6 253 9 66 10 141 18
163 17 12 -1 22 3 22 8 0 6 10 9 23 6 12 -2 41 2 62 10 22 7 56 14 75 14 20 0
40 4 45 9 6 6 31 11 58 12 26 2 47 7 47 12 0 5 6 7 14 4 8 -3 17 -3 20 1 4 3
14 7 22 8 9 1 23 6 32 10 9 3 26 8 37 9 11 2 31 8 45 13 14 5 27 10 30 10 3 0
30 10 60 22 30 12 71 26 90 32 19 5 54 19 77 30 40 18 90 18 78 -2 -3 -5 0
-10 6 -12 10 -3 13 -24 23 -165 2 -29 9 -59 15 -67 7 -8 11 -20 10 -28 -4 -18
8 -53 45 -126 48 -98 50 -102 58 -102 5 0 8 -7 8 -15 0 -8 5 -15 11 -15 5 0
15 -13 20 -29 6 -16 17 -32 25 -35 8 -3 14 -12 14 -21 0 -8 3 -14 8 -13 4 1
30 -21 59 -50 29 -29 56 -52 60 -52 5 0 14 -9 21 -21 8 -12 19 -18 28 -15 8 3
14 -1 14 -9 0 -8 7 -15 15 -15 8 0 22 -11 31 -25 9 -13 31 -30 50 -37 19 -6
34 -16 34 -21 0 -5 7 -7 15 -3 9 3 15 0 15 -9 0 -8 8 -15 19 -15 10 0 24 -6
30 -14 7 -8 25 -18 41 -21 28 -6 99 -69 101 -89 6 -85 22 -182 31 -193 5 -7 7
-16 4 -21 -7 -12 15 -92 26 -92 7 0 8 21 4 58 -9 75 -9 263 0 332 3 30 6 69 6
85 0 17 2 24 5 16 4 -9 10 -2 19 19 15 34 4 65 -20 57 -5 -2 -17 2 -26 9 -83
68 -108 90 -128 118 -13 18 -30 30 -40 28 -13 -3 -14 -1 -3 12 8 9 9 16 5 16
-5 0 -20 25 -33 55 -13 30 -28 55 -33 55 -5 0 -8 6 -5 13 2 6 -2 28 -10 47 -9
19 -17 46 -19 60 -2 14 -13 57 -23 95 -10 39 -17 85 -15 103 2 17 1 32 -3 32
-20 0 3 299 25 335 4 6 7 13 7 17 0 8 54 84 80 112 11 11 19 25 17 29 -1 5 2
6 8 2 5 -3 15 6 22 20 21 47 -22 55 -67 12 -11 -10 -31 -25 -45 -32 -34 -18
-90 -83 -90 -104 0 -10 -3 -21 -7 -25 -14 -14 -16 -44 -16 -226 1 -104 6 -205
12 -230 7 -25 13 -58 15 -75 1 -16 10 -44 19 -61 9 -17 14 -34 10 -37 -11 -12
71 -195 119 -265 16 -23 26 -47 23 -52 -3 -6 -1 -10 4 -10 6 0 11 -7 11 -16 0
-8 -4 -12 -10 -9 -5 3 -10 -1 -10 -10 0 -9 -6 -23 -14 -30 -12 -12 -15 -12
-20 1 -3 8 -11 12 -16 9 -6 -4 -33 16 -60 44 -28 28 -50 48 -50 45 0 -4 -10 6
-22 22 -25 31 -79 92 -115 130 -13 13 -23 26 -23 29 0 3 -9 15 -20 27 -11 12
-20 28 -20 35 0 7 -4 13 -9 13 -9 0 -21 20 -55 87 -6 13 -14 23 -18 23 -5 0
-8 7 -8 15 0 9 -9 28 -20 43 -10 15 -21 45 -24 67 -2 22 -9 60 -15 85 -10 46
-11 140 0 140 5 0 12 66 13 132 1 20 4 34 9 31 4 -2 7 -3 7 -1 1 3 25 134 35
183 4 22 11 54 22 100 4 17 6 33 5 36 0 3 6 28 14 55 9 27 17 60 20 74 3 14 7
32 11 40 3 8 7 22 9 30 2 8 10 40 19 70 9 30 19 73 22 95 3 22 9 43 14 46 5 3
10 17 11 32 1 15 6 27 10 27 4 0 8 7 8 16 0 8 5 12 10 9 6 -3 10 1 10 10 0 13
2 14 14 3 8 -7 12 -16 9 -20 -2 -4 4 -5 14 -1 10 3 15 3 11 -1 -4 -5 -2 -20 4
-35 5 -14 12 -39 15 -55 3 -16 11 -39 19 -51 8 -12 11 -25 7 -28 -3 -4 -1 -7
5 -7 6 0 13 -13 17 -30 4 -16 11 -32 16 -35 12 -8 12 11 -1 33 -21 36 -39 90
-47 140 -3 17 -8 32 -12 32 -4 0 -8 15 -9 33 -1 17 -4 98 -7 179 -3 84 -1 149
4 152 5 3 7 15 4 25 -3 10 0 28 6 40 7 12 8 21 2 21 -5 0 -13 -9 -16 -20 -3
-11 -11 -20 -16 -20 -5 0 -9 -7 -9 -16 0 -8 -4 -13 -8 -10 -4 2 -9 -4 -9 -15
-1 -10 2 -19 7 -19 4 0 -5 -32 -21 -71 -52 -127 -56 -134 -104 -154 -45 -18
-59 -35 -29 -35 8 0 13 -4 9 -9 -3 -5 0 -13 6 -16 5 -4 8 -13 5 -21 -3 -8 -1
-14 4 -14 5 0 2 -12 -6 -27 -8 -16 -19 -40 -24 -55 -5 -16 -16 -28 -25 -28 -8
0 -15 -4 -15 -9 0 -5 -3 -17 -7 -27 -5 -13 -3 -15 7 -9 10 6 12 1 7 -26 -11
-60 -15 -77 -26 -98 -6 -11 -11 -30 -11 -44 0 -13 -3 -27 -7 -31 -7 -7 -11
-22 -18 -69 -3 -16 -8 -34 -12 -40 -10 -16 -14 -34 -20 -84 -4 -33 -14 -50
-46 -80 -23 -21 -59 -47 -79 -56 -20 -9 -39 -23 -41 -30 -4 -9 -6 -9 -6 1 -1
10 -7 10 -28 -2 -55 -29 -140 -66 -152 -66 -13 0 -73 -29 -81 -39 -3 -3 -9 -6
-15 -7 -32 -1 -85 -18 -85 -26 0 -6 -7 -8 -15 -5 -8 4 -17 2 -20 -3 -4 -6 -18
-10 -33 -10 -15 0 -40 -7 -56 -15 -16 -9 -31 -13 -34 -11 -2 3 -19 -1 -37 -9
-19 -7 -36 -11 -39 -7 -3 3 -6 0 -6 -7 0 -7 -4 -10 -8 -7 -5 3 -33 -1 -62 -9
-29 -8 -57 -12 -61 -9 -13 8 -89 -18 -89 -30 0 -6 -4 -5 -9 3 -5 8 -14 10 -21
6 -7 -4 -27 -9 -44 -10 -17 -2 -67 -7 -111 -11 -44 -4 -115 -8 -157 -8 -43 -1
-78 -4 -78 -7 0 -9 -327 5 -353 16 -10 4 -24 2 -32 -5 -10 -9 -15 -9 -15 -1 0
15 -30 14 -30 -1 -1 -9 -5 -8 -13 3 -7 10 -29 16 -57 17 -73 2 -95 5 -100 14
-3 4 -21 8 -40 9 -19 2 -43 6 -52 11 -13 6 -18 5 -18 -4 0 -11 -2 -11 -8 0 -5
7 -33 15 -63 19 -30 3 -63 11 -74 17 -11 5 -23 9 -27 8 -4 -1 -25 5 -46 12
-22 8 -43 12 -47 8 -3 -4 -9 -1 -13 5 -4 6 -27 14 -52 18 -25 4 -50 11 -57 17
-7 5 -27 12 -45 15 -18 2 -40 11 -49 19 -9 8 -19 11 -23 7 -4 -4 -11 -1 -16 7
-8 12 -13 13 -30 2 -11 -7 -20 -9 -19 -5 4 23 -3 33 -21 33 -11 0 -20 5 -20
10 0 6 -7 10 -16 10 -14 0 -15 -3 -3 -17 8 -10 3 -9 -11 4 -14 12 -43 30 -65
39 -22 9 -53 25 -68 36 -16 12 -37 18 -48 15 -16 -4 -19 -2 -15 10 4 11 2 13
-9 9 -8 -3 -15 -1 -15 4 0 5 -7 6 -17 3 -11 -4 -14 -3 -9 5 6 11 0 14 -20 11
-3 -1 -20 12 -36 28 -17 15 -28 22 -24 16 4 -7 2 -13 -3 -13 -6 0 -11 5 -11
11 0 5 -5 7 -10 4 -6 -3 -14 3 -18 15 -4 12 -12 22 -17 22 -25 2 -45 11 -45
19 0 5 -7 9 -16 9 -9 0 -12 5 -8 12 5 7 3 8 -5 4 -7 -5 -21 0 -32 10 -10 9
-19 13 -19 9 0 -5 -9 1 -21 14 -12 12 -27 20 -35 17 -9 -3 -14 2 -14 14 0 11
-3 19 -7 18 -14 -3 -63 25 -63 36 0 15 -55 48 -64 39 -9 -9 -57 43 -48 53 4 4
2 4 -4 1 -6 -4 -25 6 -41 21 -49 47 -121 102 -131 102 -6 0 -20 16 -32 36 -12
19 -25 33 -28 30 -3 -4 -24 13 -47 37 -22 24 -46 42 -53 39 -7 -2 -12 1 -12 7
0 14 -31 46 -54 54 -9 4 -16 13 -14 21 2 8 -1 16 -7 18 -22 6 -55 43 -50 56 3
9 -1 12 -13 8 -12 -4 -23 2 -34 22 -9 15 -15 32 -15 37 1 6 -8 11 -20 13 -13
2 -23 8 -23 14 0 15 -36 58 -44 51 -3 -3 -9 8 -12 25 -4 21 -13 32 -30 36 -16
4 -21 11 -17 22 4 10 -2 17 -16 21 -11 3 -21 10 -21 15 0 5 5 6 10 3 17 -11
11 3 -12 28 -13 13 -34 38 -48 55 -14 18 -30 32 -37 32 -7 0 -13 9 -13 19 0
10 -7 21 -15 25 -8 3 -12 12 -9 21 4 10 -2 18 -17 24 -13 5 -18 10 -11 10 6 1
12 6 12 11 0 6 -6 10 -12 10 -7 0 -21 18 -31 39 -11 22 -26 38 -34 37 -9 0
-18 5 -21 13 -3 9 0 11 8 6 10 -6 12 -4 7 9 -4 10 -7 20 -7 23 0 3 -7 -1 -16
-8 -15 -12 -16 -11 -10 8 5 16 2 23 -14 28 -14 4 -19 12 -16 22 3 8 -6 34 -20
59 -14 24 -22 44 -18 44 5 0 -2 7 -14 16 -12 8 -22 21 -21 27 3 25 -14 57 -30
58 -11 0 -12 2 -3 6 9 3 2 13 -19 29 -18 13 -28 24 -21 24 7 0 12 5 12 11 0 5
-5 7 -12 3 -7 -4 -8 -3 -4 4 10 16 -4 63 -17 55 -6 -3 -7 -1 -3 6 5 7 -3 20
-19 32 -18 15 -24 27 -20 40 7 21 -10 27 -18 7 -3 -7 -3 2 0 20 3 20 1 32 -5
32 -6 0 -9 7 -6 15 4 8 -1 17 -10 21 -10 4 -16 18 -16 35 0 16 -5 29 -11 29
-6 0 -9 8 -6 19 2 10 0 25 -4 34 -11 19 -1 49 14 40 6 -4 8 0 4 10 -4 11 5 25
28 43 19 14 35 31 35 36 0 13 56 68 70 68 6 0 8 5 5 10 -3 6 1 10 9 10 8 0 21
10 27 22 17 32 35 48 44 40 5 -4 5 1 2 10 -4 12 1 19 16 24 27 9 52 37 74 84
7 16 66 68 68 60 0 -3 8 2 17 10 9 8 14 18 11 23 -2 4 3 10 11 13 9 3 16 12
16 20 0 8 7 14 15 14 9 0 29 13 44 29 16 16 31 27 34 25 3 -3 14 6 25 20 11
15 27 26 37 26 9 0 13 5 10 10 -3 6 3 10 13 10 23 0 45 23 34 35 -4 5 0 6 9 3
10 -4 23 3 34 18 9 13 21 21 26 19 4 -3 19 6 32 19 14 14 28 22 32 18 5 -4 5
3 2 15 -4 18 -2 21 10 15 10 -6 25 1 49 23 19 18 34 37 34 43 0 6 6 9 14 6 8
-3 17 0 22 7 5 8 3 10 -5 4 -9 -5 -9 -1 1 14 7 12 18 19 24 17 7 -3 10 4 7 17
-4 18 -3 19 6 7 9 -13 11 -13 11 2 0 9 6 23 13 30 21 21 37 55 37 78 0 13 5
20 12 18 14 -5 39 57 32 77 -3 6 2 18 10 25 9 7 13 16 10 21 -2 5 3 20 12 34
9 14 14 34 11 45 -3 12 1 23 10 29 13 7 13 12 3 31 -11 20 -10 22 4 17 12 -5
15 -1 12 16 -3 12 -5 22 -6 22 -1 0 -3 8 -5 18 -2 9 0 17 4 17 4 0 7 19 7 41
-1 23 4 48 12 55 7 8 11 18 8 23 -3 4 6 21 20 37 14 16 28 41 31 57 3 15 10
27 15 27 5 0 7 4 4 9 -3 4 3 18 14 31 10 12 17 27 14 34 -3 7 2 19 11 26 8 7
15 18 15 24 0 6 7 25 16 41 25 48 35 77 24 70 -15 -9 -12 4 5 21 8 9 16 27 16
42 2 36 2 39 18 100 7 29 11 58 8 66 -3 7 -1 19 3 27 5 8 4 19 -2 26 -7 9 -7
13 1 13 7 0 9 5 4 13 -11 18 -14 35 -15 102 -1 33 -6 64 -12 68 -7 6 -5 7 5 4
12 -4 15 4 16 35 0 22 6 43 11 47 11 6 42 83 45 111 1 8 7 20 12 27 25 31 30
39 33 58 2 11 7 22 10 25 9 6 29 41 64 112 15 31 32 58 37 60 7 3 64 104 66
118 0 3 4 11 8 18 5 6 5 17 2 22 -3 6 1 10 9 10 14 0 42 68 39 98 0 6 3 12 8
12 5 0 9 7 9 15 0 8 4 15 8 15 5 0 15 26 22 58 7 31 17 62 22 69 5 7 7 17 3
23 -3 5 1 10 9 10 14 0 14 3 4 19 -10 16 -9 23 6 40 11 12 19 36 19 60 1 23 5
41 10 41 5 0 7 9 4 20 -3 11 0 20 5 20 7 0 6 5 -1 14 -8 9 -8 16 -2 20 6 4 7
14 4 23 -4 9 -2 14 3 10 6 -3 10 36 12 96 2 56 3 118 4 138 1 19 -1 39 -3 45
-3 5 -4 20 -3 34 1 14 -3 28 -10 32 -7 5 -7 8 3 8 10 0 7 6 -7 18 -16 14 -18
22 -10 30 9 9 9 12 0 12 -10 0 -10 5 -2 20 8 15 8 20 -1 20 -7 0 -9 3 -6 7 4
3 0 11 -9 18 -9 6 -17 23 -17 38 -1 15 -6 27 -11 27 -4 0 -6 7 -2 15 3 8 1 15
-4 15 -6 0 -10 6 -10 14 0 8 -7 22 -17 31 -14 14 -14 18 -2 26 10 6 10 9 2 9
-7 0 -13 7 -13 15 0 8 -6 12 -14 9 -11 -4 -13 0 -9 15 3 13 1 21 -6 21 -7 0
-9 5 -6 10 3 6 1 10 -4 10 -6 0 -11 6 -11 14 0 21 -26 40 -35 25z m102 -825
c-3 -3 -12 -4 -19 -1 -8 3 -5 6 6 6 11 1 17 -2 13 -5z m-740 -2370 c-3 -3 -12
-4 -19 -1 -8 3 -5 6 6 6 11 1 17 -2 13 -5z m-437 -538 c0 -2 -7 -7 -16 -10 -8
-3 -12 -2 -9 4 6 10 25 14 25 6z m-365 -336 c3 -5 1 -10 -4 -10 -6 0 -11 5
-11 10 0 6 2 10 4 10 3 0 8 -4 11 -10z m-1915 -110 c0 -5 -2 -10 -4 -10 -3 0
-8 5 -11 10 -3 6 -1 10 4 10 6 0 11 -4 11 -10z m1363 -375 c-3 -9 -8 -14 -10
-11 -3 3 -2 9 2 15 9 16 15 13 8 -4z m611 -721 c3 -8 2 -12 -4 -9 -6 3 -10 10
-10 16 0 14 7 11 14 -7z m246 -114 c0 -5 -5 -10 -11 -10 -5 0 -7 5 -4 10 3 6
8 10 11 10 2 0 4 -4 4 -10z m57 -262 c-3 -8 -6 -5 -6 6 -1 11 2 17 5 13 3 -3
4 -12 1 -19z m120 -90 c-3 -8 -6 -5 -6 6 -1 11 2 17 5 13 3 -3 4 -12 1 -19z"/>
<path d="M12966 12707 c3 -10 9 -15 12 -12 3 3 0 11 -7 18 -10 9 -11 8 -5 -6z"/>
<path d="M7900 12356 c0 -9 -11 -26 -25 -38 -20 -18 -23 -24 -12 -37 10 -12 9
-14 -4 -9 -19 7 -45 -28 -26 -35 7 -3 4 -6 -5 -6 -10 -1 -18 -5 -18 -11 0 -5
-6 -10 -14 -10 -9 0 -12 -7 -9 -20 5 -18 -4 -25 -28 -22 -4 1 -4 -8 -1 -20 3
-14 1 -19 -6 -14 -7 4 -12 2 -12 -3 0 -6 -11 -21 -25 -33 -14 -12 -25 -28 -25
-36 0 -8 -12 -23 -26 -34 -17 -14 -22 -23 -14 -28 7 -5 6 -11 -6 -21 -16 -12
-17 -12 -11 1 4 8 2 6 -5 -4 -7 -11 -21 -28 -30 -38 -10 -10 -18 -25 -18 -33
0 -8 -6 -15 -12 -15 -9 0 -8 -4 2 -11 11 -8 12 -12 3 -16 -7 -2 -13 -11 -13
-19 0 -7 -9 -19 -20 -26 -11 -7 -20 -18 -20 -25 0 -7 -5 -13 -11 -13 -7 0 -9
-10 -5 -26 4 -14 3 -23 -1 -21 -5 3 -17 -12 -27 -34 -11 -21 -23 -39 -28 -39
-4 0 -8 -13 -8 -28 0 -15 -11 -44 -25 -63 -14 -19 -24 -42 -21 -51 2 -11 -2
-18 -11 -18 -10 0 -14 -6 -10 -20 3 -10 2 -19 -2 -18 -3 1 -19 -4 -34 -10 -15
-7 -46 -10 -67 -9 -22 2 -42 -1 -44 -7 -3 -7 -8 -7 -14 2 -5 7 -16 10 -25 6
-10 -3 -17 -1 -17 5 0 6 -7 8 -15 5 -8 -4 -21 -2 -28 3 -20 17 -60 23 -73 12
-9 -8 -11 -5 -7 10 4 16 1 21 -14 21 -11 0 -28 9 -38 20 -18 20 -45 27 -45 12
0 -4 9 -13 20 -20 11 -7 20 -21 20 -32 0 -11 7 -20 16 -20 8 0 12 -4 9 -10 -3
-5 17 -32 45 -60 27 -27 50 -54 50 -59 0 -13 90 -108 91 -96 1 6 0 22 -1 38
-1 16 4 29 14 33 8 3 13 11 10 19 -3 7 2 15 11 19 9 3 14 9 12 13 -3 5 41 8
98 8 57 0 101 3 98 7 -7 13 22 9 36 -4 11 -10 14 -10 18 0 3 6 11 12 19 12 9
0 13 -5 9 -12 -4 -7 -1 -6 7 2 8 10 26 15 46 13 18 -2 32 2 32 8 0 8 5 7 16
-2 13 -10 17 -10 25 2 5 8 9 10 9 5 0 -5 6 -3 14 3 10 9 16 9 21 1 5 -8 10 -8
20 0 8 6 19 10 27 9 17 -3 70 11 85 23 6 5 16 22 21 37 l10 28 -50 -2 c-28 -1
-53 -8 -58 -15 -5 -7 -19 -11 -34 -8 -14 3 -26 1 -26 -4 0 -5 -7 -2 -16 6 -8
9 -20 14 -25 11 -5 -4 -9 1 -9 10 0 9 -4 14 -9 10 -6 -3 -10 3 -10 12 0 10 -2
35 -4 56 -2 21 0 40 5 43 4 3 6 10 3 15 -3 5 2 6 12 2 15 -5 16 -3 6 8 -18 18
-16 27 4 25 12 -1 20 11 26 37 5 20 14 37 19 37 6 0 7 7 4 16 -4 10 -2 13 6 8
8 -5 9 3 5 27 -6 29 -5 32 6 17 12 -15 14 -15 25 3 7 11 8 19 2 19 -5 0 -10 5
-10 11 0 5 4 8 9 4 5 -3 12 -1 16 5 3 5 1 10 -6 10 -18 0 -4 11 17 14 10 2 20
9 22 16 3 7 0 10 -6 6 -6 -4 -8 2 -5 14 3 11 9 18 13 15 5 -3 6 5 2 17 -4 18
-2 20 16 16 14 -4 22 -2 22 6 0 7 11 18 25 24 22 10 25 9 25 -8 0 -11 5 -20
10 -20 6 0 10 5 10 11 0 5 5 7 10 4 10 -6 14 7 11 33 -1 6 2 12 8 12 5 0 7 10
3 22 -3 12 -1 19 5 15 6 -4 9 31 9 93 -1 55 3 100 8 100 4 0 6 7 2 15 -3 8 0
15 7 15 9 0 9 2 0 8 -6 4 -11 23 -10 42 2 31 -1 35 -25 38 -20 2 -28 -1 -28
-12z m-246 -432 c3 -8 2 -12 -4 -9 -6 3 -10 10 -10 16 0 14 7 11 14 -7z"/>
<path d="M11760 11241 c0 -7 -6 -11 -15 -7 -8 3 -21 -1 -29 -9 -8 -8 -18 -15
-22 -15 -4 0 -22 -16 -41 -35 -19 -19 -41 -35 -50 -35 -9 0 -14 -3 -10 -6 3
-3 -5 -17 -19 -31 -13 -13 -24 -28 -24 -33 0 -5 -10 -18 -22 -30 -12 -11 -19
-23 -15 -26 6 -6 -6 -24 -35 -52 -10 -9 -18 -25 -18 -35 0 -10 -4 -15 -10 -12
-5 3 -7 0 -4 -8 3 -8 -2 -17 -10 -20 -9 -4 -16 -15 -16 -25 0 -11 -7 -25 -15
-32 -8 -7 -12 -16 -9 -21 3 -5 1 -9 -5 -9 -6 0 -9 -12 -8 -27 1 -19 -2 -27
-12 -25 -9 2 -12 -4 -8 -18 3 -11 1 -20 -5 -20 -6 0 -8 -6 -5 -14 3 -8 -4 -24
-15 -36 -12 -12 -18 -29 -15 -41 3 -10 1 -17 -4 -13 -5 3 -10 -1 -10 -8 -5
-53 -10 -72 -24 -87 -8 -10 -12 -21 -8 -24 3 -4 0 -7 -8 -7 -11 0 -11 -2 -1
-9 11 -7 11 -11 -2 -24 -12 -11 -13 -17 -3 -20 9 -4 9 -6 -1 -6 -7 -1 -10 -6
-7 -11 4 -6 1 -18 -7 -27 -9 -12 -9 -15 0 -9 16 10 15 -5 -2 -30 -17 -24 -39
-127 -37 -173 1 -18 -2 -39 -7 -45 -4 -6 -7 -22 -7 -36 0 -14 -2 -27 -5 -30
-10 -9 -27 -89 -19 -84 5 3 9 1 9 -5 0 -5 -6 -12 -12 -14 -10 -4 -9 -8 2 -16
13 -9 12 -11 -4 -11 -15 0 -17 -3 -8 -12 9 -9 7 -14 -6 -24 -9 -8 -12 -14 -6
-14 12 0 11 -41 -1 -59 -3 -6 1 -11 11 -11 13 0 14 -3 5 -14 -6 -7 -11 -29
-10 -47 0 -19 -2 -52 -5 -74 -12 -76 -15 -185 -5 -185 6 0 7 -6 2 -12 -11 -18
-10 -32 2 -40 6 -5 5 -11 -4 -17 -11 -7 -11 -15 -2 -42 9 -25 8 -34 -1 -41 -7
-4 -8 -8 -3 -8 6 0 10 -34 10 -83 0 -45 4 -88 9 -95 5 -7 10 -42 12 -79 2 -39
9 -70 16 -75 10 -6 10 -8 0 -8 -9 0 -10 -5 -3 -19 10 -17 21 -71 24 -113 1
-10 5 -18 9 -18 4 0 8 -7 8 -15 0 -8 4 -15 8 -15 4 0 16 -29 27 -65 10 -37 22
-62 28 -58 6 4 8 0 4 -11 -10 -25 4 -44 15 -20 7 16 8 15 5 -6 -2 -18 6 -36
30 -60 18 -19 33 -39 33 -43 0 -17 31 -39 46 -33 11 4 15 2 11 -8 -4 -10 -1
-13 9 -9 7 3 14 0 14 -6 0 -6 16 -11 35 -11 19 0 35 -4 35 -9 0 -11 66 3 85
19 8 6 18 9 23 6 5 -3 27 12 49 32 22 21 45 36 52 34 6 -2 9 3 5 12 -4 10 -1
16 10 16 8 0 33 27 55 59 22 32 47 66 56 74 8 9 15 22 15 31 0 8 6 19 13 23 6
4 29 41 50 82 28 56 34 77 25 83 -10 6 -9 8 3 8 16 0 54 66 50 88 -1 6 2 12 8
12 5 0 8 14 6 31 -3 23 -1 30 9 26 10 -4 16 5 19 26 10 54 31 127 38 127 3 0
5 14 3 30 -2 19 1 30 9 30 6 0 13 10 14 23 3 36 31 170 41 197 5 14 8 35 7 48
-1 12 2 22 7 22 4 0 8 9 8 20 0 14 -5 18 -17 13 -12 -4 -10 0 6 13 20 17 24
30 25 95 1 41 5 79 8 84 3 6 9 37 12 70 4 33 10 75 12 93 4 22 1 32 -8 32 -8
0 -9 3 -3 8 17 12 26 119 11 140 -5 7 -5 12 1 12 9 0 8 69 -1 265 -2 44 -5 82
-6 85 -1 3 -2 8 -1 13 0 4 -4 7 -10 7 -5 0 -8 4 -5 9 9 14 -6 101 -15 95 -5
-3 -9 -1 -9 5 0 5 4 11 10 13 6 2 4 23 -4 56 -17 62 -16 58 -16 77 0 9 -6 12
-17 9 -16 -5 -16 -5 -1 5 16 11 14 50 -4 62 -5 3 -11 23 -13 43 -2 21 -10 45
-18 54 -8 9 -17 34 -21 54 -4 24 -14 39 -26 43 -10 3 -23 18 -28 33 -8 24 -50
71 -96 110 -25 20 -118 35 -128 20 -4 -7 -8 -8 -8 -3 0 6 -11 10 -25 10 -14 0
-25 -6 -25 -14z m-93 -227 c-3 -3 -12 -4 -19 -1 -8 3 -5 6 6 6 11 1 17 -2 13
-5z m83 -774 c0 -5 -4 -10 -10 -10 -5 0 -10 5 -10 10 0 6 5 10 10 10 6 0 10
-4 10 -10z m-282 -945 c-3 -3 -9 2 -12 12 -6 14 -5 15 5 6 7 -7 10 -15 7 -18z
m592 -110 c0 -5 -5 -3 -10 5 -5 8 -10 20 -10 25 0 6 5 3 10 -5 5 -8 10 -19 10
-25z"/>
<path d="M5125 11110 c4 -6 11 -8 16 -5 14 9 11 15 -7 15 -8 0 -12 -5 -9 -10z"/>
<path d="M5161 11106 c-9 -10 -8 -15 2 -19 8 -3 13 3 13 14 0 23 0 23 -15 5z"/>
<path d="M5193 11085 c0 -14 3 -25 8 -25 5 0 8 11 7 25 -1 14 -5 25 -9 25 -4
0 -6 -11 -6 -25z"/>
<path d="M5269 11059 c-12 -8 -12 -10 1 -19 8 -5 20 -10 26 -10 15 0 26 -28
18 -43 -5 -8 -2 -7 7 1 7 6 16 12 21 12 4 0 6 -6 4 -12 -1 -7 -1 -10 1 -5 8
13 33 7 27 -7 -3 -7 2 -16 10 -19 9 -4 16 -11 16 -17 0 -6 -11 -3 -25 6 -31
20 -32 15 -1 -21 13 -15 28 -25 34 -22 15 10 9 -28 -8 -45 -8 -8 -22 -13 -30
-11 -8 2 -3 -3 13 -12 15 -9 32 -13 37 -10 6 3 10 1 10 -5 0 -6 5 -8 10 -5 6
3 10 2 10 -4 0 -6 7 -8 15 -4 9 3 22 -2 29 -13 11 -14 17 -16 27 -7 16 13 69
6 69 -9 0 -5 5 -6 10 -3 6 4 8 11 5 16 -4 5 -1 9 4 9 6 0 11 -6 11 -12 0 -16
62 -18 72 -3 5 6 8 2 8 -7 0 -13 8 -18 29 -18 15 0 43 -5 61 -11 26 -9 34 -9
41 2 7 11 9 11 9 1 0 -7 6 -12 13 -11 6 1 19 1 27 0 13 -1 13 -2 0 -11 -13 -8
-12 -10 3 -10 10 0 17 7 17 18 0 12 3 13 8 5 4 -7 17 -14 29 -16 12 -1 27 -8
35 -15 8 -6 24 -9 36 -5 12 3 22 1 22 -4 0 -6 12 -8 26 -5 15 3 24 1 21 -4 -3
-5 10 -9 29 -9 19 1 34 -3 34 -9 0 -11 11 -13 90 -18 20 -2 48 -11 63 -21 15
-10 32 -15 37 -12 5 3 12 0 16 -6 4 -8 9 -7 15 2 11 17 11 29 2 28 -16 -3 -73
23 -73 33 0 6 -5 6 -14 -1 -12 -10 -16 -8 -21 10 -7 22 -8 22 -21 4 -13 -17
-14 -17 -14 -1 0 9 -4 14 -10 11 -5 -3 -10 -1 -10 4 0 6 -7 11 -15 11 -8 0
-15 5 -15 11 0 6 -7 9 -15 5 -8 -3 -15 -1 -15 5 0 6 -7 9 -15 5 -8 -3 -15 -1
-15 4 0 6 -11 10 -25 10 -14 0 -25 4 -25 8 0 8 -6 10 -49 14 -11 1 -17 6 -15
10 3 4 -6 8 -20 8 -14 0 -31 6 -38 13 -6 8 -23 11 -36 9 -16 -3 -23 -1 -18 6
8 13 -78 47 -93 37 -6 -3 -14 1 -17 9 -3 9 -11 13 -16 10 -6 -4 -13 -2 -17 5
-4 6 -19 12 -33 13 -15 1 -25 5 -22 9 2 4 0 10 -6 14 -5 3 -10 2 -10 -3 0 -6
-10 -5 -25 1 -14 7 -25 15 -25 20 0 4 -5 7 -11 7 -5 0 -7 -5 -3 -12 4 -7 3 -8
-4 -4 -7 4 -12 14 -12 22 0 11 -4 12 -19 5 -14 -8 -23 -6 -36 9 -10 11 -30 20
-45 20 -15 0 -30 3 -34 7 -4 4 -21 8 -37 9 -17 1 -41 11 -53 23 -14 13 -29 19
-39 15 -10 -3 -17 -2 -17 4 0 15 -25 21 -41 11z m81 -35 c0 -8 -5 -12 -10 -9
-6 4 -8 11 -5 16 9 14 15 11 15 -7z m640 -304 c0 -5 -2 -10 -4 -10 -3 0 -8 5
-11 10 -3 6 -1 10 4 10 6 0 11 -4 11 -10z"/>
<path d="M5367 10890 c-3 -11 -2 -20 3 -20 12 0 21 28 11 35 -5 2 -11 -4 -14
-15z"/>
<path d="M5390 10880 c0 -5 5 -10 10 -10 6 0 10 5 10 10 0 6 -4 10 -10 10 -5
0 -10 -4 -10 -10z"/>
<path d="M6386 10615 c-4 -11 -2 -15 6 -12 7 2 22 -3 32 -12 15 -12 18 -13 14
-2 -2 8 -13 20 -25 28 -18 12 -21 12 -27 -2z"/>
<path d="M6485 10560 c3 -5 8 -10 11 -10 2 0 4 5 4 10 0 6 -5 10 -11 10 -5 0
-7 -4 -4 -10z"/>
<path d="M1661 10374 c0 -11 3 -14 6 -6 3 7 2 16 -1 19 -3 4 -6 -2 -5 -13z"/>
<path d="M1653 10292 c0 -14 7 -34 17 -44 13 -15 17 -29 13 -54 -4 -27 -2 -34
11 -34 20 0 21 -16 1 -24 -8 -3 -15 -13 -15 -23 0 -15 2 -16 10 -3 8 12 10 11
10 -7 0 -13 5 -23 11 -23 6 0 8 -9 4 -20 -4 -13 -1 -22 9 -26 22 -8 20 -25 -1
-19 -10 3 -7 0 7 -7 27 -14 30 -24 16 -47 -7 -11 -4 -13 12 -9 15 4 22 2 22
-9 0 -8 -5 -11 -11 -7 -7 4 -10 1 -7 -7 3 -8 14 -15 26 -17 12 -2 22 -10 22
-18 0 -8 5 -14 11 -14 6 0 9 -6 6 -13 -4 -10 2 -13 21 -10 21 4 24 2 12 -6
-12 -9 -12 -11 3 -17 9 -3 14 -11 10 -17 -4 -6 0 -8 10 -4 9 3 16 3 16 -1 -4
-22 3 -32 21 -32 13 0 18 -5 14 -15 -4 -10 0 -15 11 -15 9 0 30 -14 47 -30 16
-17 33 -28 38 -25 5 3 11 1 15 -5 4 -6 10 -8 15 -5 5 3 12 -1 17 -8 4 -8 43
-31 86 -51 43 -20 75 -41 72 -45 -6 -11 21 -8 31 2 13 12 26 7 21 -7 -4 -10
-1 -13 8 -10 7 3 23 1 34 -6 18 -9 21 -8 21 7 1 14 4 13 15 -7 9 -15 14 -19
15 -10 0 13 1 13 10 0 5 -8 17 -15 27 -16 47 -3 53 -5 53 -20 0 -14 2 -14 15
0 14 13 18 13 44 -2 16 -9 27 -20 25 -24 -3 -4 7 -3 23 3 19 7 29 7 31 0 2 -6
8 -9 13 -5 5 3 9 0 9 -5 0 -16 16 -13 34 5 14 13 16 14 16 0 0 -8 8 -15 18
-15 54 -2 101 -10 121 -21 18 -9 25 -9 31 0 6 9 9 9 15 0 6 -9 10 -9 16 1 5 9
9 10 9 3 0 -7 7 -15 16 -18 14 -5 15 -4 4 9 -15 18 0 20 19 3 11 -10 13 -10 7
0 -8 13 10 17 18 4 3 -5 20 -7 38 -6 18 1 36 -2 39 -8 4 -7 13 -6 28 1 16 9
19 9 16 -1 -4 -9 5 -13 24 -14 21 -1 28 3 24 12 -3 8 0 14 6 14 6 0 11 -6 11
-14 0 -9 9 -12 28 -9 15 2 41 3 57 2 79 -5 101 -4 118 3 10 6 17 5 17 -2 0
-10 51 -7 83 5 10 5 17 3 17 -5 0 -8 9 -10 25 -6 14 4 25 2 25 -3 0 -6 7 -8
15 -5 9 4 15 0 15 -9 0 -8 7 -18 16 -21 22 -8 26 -8 19 4 -3 6 -2 10 4 10 5 0
13 -4 16 -10 3 -5 1 -10 -6 -10 -8 0 -6 -6 4 -18 10 -10 14 -22 10 -25 -3 -4
1 -7 9 -7 21 0 42 -26 28 -35 -5 -3 -10 1 -10 11 0 14 -3 14 -15 4 -10 -8 -13
-21 -9 -33 4 -13 2 -17 -5 -13 -16 10 0 -27 18 -42 14 -10 12 -11 -11 -6 -20
4 -29 2 -34 -10 -3 -9 -12 -16 -20 -16 -8 0 -14 -4 -14 -10 0 -5 9 -10 20 -10
13 0 20 7 20 20 0 27 18 25 30 -2 7 -19 9 -20 9 -4 1 14 7 17 26 14 14 -3 28
-1 31 4 4 6 10 5 15 -3 6 -10 9 -10 9 -2 0 7 7 10 15 7 8 -4 15 -1 15 6 0 6 5
8 10 5 6 -4 18 -1 26 6 10 8 18 9 22 3 5 -7 15 -6 29 1 13 7 20 15 15 20 -4 4
3 3 15 -4 14 -7 23 -7 25 0 2 5 14 11 28 12 14 0 31 8 38 17 8 9 11 9 6 1 -5
-10 -1 -11 17 -6 13 4 27 12 30 17 4 6 8 5 11 -3 4 -11 10 -10 32 4 14 10 24
22 21 27 -4 6 -1 10 4 10 6 0 11 -4 11 -8 0 -12 32 -11 48 1 8 6 12 5 13 -4 0
-8 4 -5 9 6 5 11 9 14 9 6 1 -10 4 -11 15 -2 7 6 21 9 30 5 9 -4 16 -1 16 6 0
7 7 10 16 6 8 -3 13 -2 11 2 -3 4 1 12 8 19 10 10 14 9 19 -4 6 -14 9 -14 26
2 11 10 34 18 50 18 17 0 30 5 30 11 0 6 14 12 30 13 17 1 28 -2 25 -7 -3 -6
1 -7 9 -4 9 3 16 10 16 16 0 5 5 6 11 2 6 -3 14 -1 18 5 4 6 18 13 30 16 13 2
29 9 37 16 8 6 14 8 15 3 0 -5 4 0 9 11 8 18 9 18 9 2 1 -11 6 -15 12 -11 6 3
28 7 48 8 20 1 46 8 58 14 12 7 26 12 30 11 32 -5 52 2 47 19 -4 10 -3 13 3 6
8 -11 70 -11 138 1 17 3 50 7 75 10 24 3 48 11 52 18 5 7 8 8 8 1 0 -6 7 -11
15 -11 9 0 14 5 12 11 -5 14 -97 15 -97 1 0 -7 -3 -7 -8 0 -13 18 -46 17 -59
-1 -7 -10 -13 -13 -13 -6 0 8 -19 11 -60 8 -33 -2 -58 0 -55 4 8 12 -49 9 -57
-4 -6 -8 -8 -8 -8 1 0 16 -132 6 -142 -11 -4 -6 -8 -7 -8 -1 0 6 -24 10 -53 9
-28 0 -58 4 -66 10 -11 8 -13 8 -7 -1 5 -9 0 -13 -16 -14 -13 0 -35 -2 -50 -4
-15 -2 -30 0 -33 5 -3 5 -18 6 -33 3 -15 -3 -46 -6 -69 -6 -30 0 -43 -5 -46
-16 -4 -13 -5 -13 -6 2 -1 13 -9 16 -33 15 -18 -2 -38 -10 -45 -18 -11 -13
-12 -13 -13 3 0 17 -20 23 -33 10 -10 -9 -56 -10 -51 -1 3 4 -2 8 -10 8 -8 0
-18 -5 -21 -10 -5 -8 -11 -7 -21 1 -8 6 -17 9 -21 5 -3 -3 -1 -6 5 -6 7 0 12
-5 12 -10 0 -7 -6 -7 -20 0 -14 7 -20 7 -20 0 0 -5 -4 -10 -10 -10 -5 0 -7 6
-4 13 3 8 -3 13 -16 13 -11 0 -20 -3 -20 -7 0 -3 -18 -5 -40 -3 -22 2 -51 -1
-65 -6 -17 -6 -33 -6 -50 2 -19 9 -29 7 -51 -7 -20 -13 -28 -14 -34 -5 -4 7
-16 9 -29 5 -12 -4 -21 -2 -21 4 0 7 -8 7 -26 1 -31 -12 -37 -12 -30 -2 7 12
-25 8 -51 -6 -26 -14 -44 -16 -23 -2 15 10 -15 13 -125 14 -22 1 -46 5 -54 10
-8 5 -16 4 -21 -4 -6 -9 -19 -10 -53 -2 -31 6 -49 6 -56 -1 -8 -8 -11 -7 -11
2 0 7 -4 9 -10 6 -5 -3 -26 -2 -45 4 -21 5 -35 6 -35 0 0 -5 -5 -9 -11 -9 -5
0 -8 4 -5 8 7 12 -93 13 -114 2 -12 -6 -21 -3 -33 10 -9 11 -23 17 -31 14 -8
-3 -24 0 -36 6 -12 7 -26 8 -33 3 -17 -12 -88 -8 -96 5 -4 7 -12 8 -21 2 -8
-5 -21 -5 -32 1 -10 5 -18 7 -18 3 0 -4 -8 0 -18 9 -17 15 -20 15 -42 0 -21
-15 -23 -15 -17 -1 4 13 -3 17 -34 20 -21 2 -41 -1 -43 -7 -2 -5 -5 -4 -5 3
-1 7 -6 10 -11 7 -6 -4 -17 -1 -25 5 -12 10 -15 10 -15 1 0 -8 -5 -7 -15 3 -8
8 -15 21 -15 28 0 11 -2 11 -9 0 -10 -16 -81 -13 -81 4 0 17 -26 24 -39 11 -8
-8 -11 -8 -11 1 0 18 -51 36 -61 21 -4 -8 -9 -4 -14 9 -3 12 -9 21 -13 20 -14
-4 -82 24 -82 33 0 5 -7 9 -15 9 -8 0 -15 5 -15 11 0 5 -4 7 -10 4 -9 -6 -14
8 -11 28 1 5 -3 6 -8 3 -5 -4 -17 1 -25 10 -9 8 -16 12 -16 7 -1 -4 -8 4 -16
20 -8 15 -22 27 -30 27 -8 0 -12 5 -9 10 3 6 1 10 -4 10 -6 0 -11 -5 -11 -11
0 -5 -5 -7 -10 -4 -6 4 -8 15 -5 26 9 28 -3 43 -22 27 -14 -11 -15 -10 -8 11
6 19 4 23 -8 18 -10 -4 -14 0 -13 10 3 19 -20 69 -36 79 -6 4 -8 3 -5 -2 3 -6
2 -16 -3 -24 -7 -10 -9 -3 -7 22 3 31 -1 39 -17 44 -21 7 -21 7 -1 15 16 6 17
8 3 8 -11 1 -15 6 -11 16 3 9 -2 22 -13 29 -17 13 -21 26 -28 99 -4 39 -16 64
-16 33 0 -9 -5 -14 -10 -11 -6 4 -8 15 -5 25 3 10 0 20 -7 23 -8 3 -14 -5 -15
-21z m77 -162 c0 -5 -4 -10 -10 -10 -5 0 -10 5 -10 10 0 6 5 10 10 10 6 0 10
-4 10 -10z m1447 -626 c-3 -3 -12 -4 -19 -1 -8 3 -5 6 6 6 11 1 17 -2 13 -5z
m443 -105 c0 -6 -4 -7 -10 -4 -5 3 -10 11 -10 16 0 6 5 7 10 4 6 -3 10 -11 10
-16z m50 -14 c0 -11 -29 -11 -33 -1 -4 10 1 12 14 9 10 -3 19 -7 19 -8z"/>
<path d="M1656 10225 c-3 -8 -1 -15 4 -15 13 0 22 18 11 24 -5 3 -11 -1 -15
-9z"/>
<path d="M12200 9819 c0 -5 5 -7 10 -4 6 3 10 8 10 11 0 2 -4 4 -10 4 -5 0
-10 -5 -10 -11z"/>
<path d="M2307 9649 c7 -7 15 -10 18 -7 3 3 -2 9 -12 12 -14 6 -15 5 -6 -5z"/>
<path d="M5090 9546 c0 -10 9 -16 21 -16 24 0 21 23 -4 28 -10 2 -17 -3 -17
-12z"/>
<path d="M5140 9539 c0 -5 5 -7 10 -4 6 3 10 8 10 11 0 2 -4 4 -10 4 -5 0 -10
-5 -10 -11z"/>
<path d="M9798 9418 c7 -7 12 -17 12 -22 0 -6 -5 -4 -10 4 -8 13 -10 12 -10
-3 0 -10 -7 -25 -15 -33 -17 -17 -21 -39 -5 -29 6 3 10 -1 10 -9 0 -8 -6 -13
-12 -11 -9 4 -14 -7 -15 -31 -1 -19 -6 -41 -12 -48 -6 -7 -8 -15 -5 -18 3 -3
-2 -22 -10 -42 -13 -32 -13 -37 0 -51 14 -13 14 -15 0 -15 -14 0 -41 -68 -31
-78 3 -3 -3 -11 -13 -19 -16 -12 -16 -13 0 -7 16 5 16 3 4 -23 -8 -15 -13 -43
-12 -60 2 -18 -1 -33 -6 -33 -5 0 -6 -4 -3 -10 3 -5 1 -10 -6 -10 -10 0 -10
-3 -2 -11 11 -11 11 -15 -18 -70 -9 -19 -8 -21 5 -16 9 4 16 2 16 -3 0 -6 -5
-10 -11 -10 -6 0 -8 -9 -4 -20 4 -14 2 -20 -7 -18 -10 2 -13 -12 -11 -59 1
-39 -2 -63 -9 -63 -5 0 -8 -6 -5 -14 3 -8 1 -17 -6 -20 -7 -2 -3 -5 8 -5 12
-1 16 -4 9 -9 -17 -11 -28 -72 -14 -72 10 0 10 -3 0 -15 -7 -9 -9 -27 -5 -47
4 -21 3 -28 -3 -20 -7 11 -11 10 -16 -4 -4 -10 -3 -20 3 -22 7 -2 6 -12 -1
-27 -8 -18 -8 -28 1 -39 8 -9 8 -16 2 -20 -5 -4 -9 -28 -7 -54 2 -26 -1 -53
-7 -59 -6 -8 -6 -13 0 -13 5 0 10 -7 10 -15 0 -8 -3 -15 -6 -15 -3 0 -6 -38
-6 -85 -1 -47 3 -85 8 -85 4 0 5 -6 0 -12 -8 -14 -11 -68 -3 -68 8 0 6 -57 -2
-65 -4 -4 0 -15 9 -23 10 -11 12 -17 4 -20 -6 -2 -11 -8 -11 -13 0 -6 3 -8 8
-6 4 3 8 -11 10 -31 1 -20 8 -40 15 -44 9 -6 9 -8 -1 -8 -8 0 -10 -8 -6 -26 4
-15 8 -36 9 -48 1 -11 4 -23 5 -26 2 -3 4 -9 5 -15 12 -72 19 -95 28 -95 8 0
7 -4 -2 -9 -9 -6 -11 -15 -6 -27 5 -11 9 -22 9 -26 1 -3 4 -9 8 -13 4 -4 4
-13 2 -20 -3 -7 -1 -16 5 -20 6 -3 11 -17 11 -30 0 -23 14 -61 49 -134 9 -19
15 -39 13 -43 -1 -4 2 -8 8 -8 5 0 10 -11 10 -24 0 -14 7 -32 16 -40 8 -9 12
-20 9 -26 -3 -5 -1 -10 4 -10 6 0 11 -7 11 -15 0 -8 5 -15 10 -15 6 0 10 -7
10 -15 0 -7 6 -18 14 -22 8 -4 15 -11 15 -16 1 -15 70 -115 97 -141 16 -14 25
-26 21 -26 -4 0 4 -11 18 -26 14 -14 30 -22 35 -19 6 3 10 -1 10 -10 0 -10 5
-13 12 -9 7 5 9 2 5 -9 -4 -10 1 -18 14 -22 10 -4 19 -11 19 -17 0 -6 3 -8 6
-5 4 4 16 -4 28 -17 12 -14 28 -26 36 -28 8 -2 25 -14 38 -26 20 -19 26 -21
33 -10 7 10 9 9 9 -4 0 -16 11 -23 33 -19 4 0 7 -4 7 -9 0 -6 35 -27 78 -47
42 -20 79 -39 82 -42 3 -3 10 -7 15 -8 6 -1 19 -5 29 -9 15 -6 18 -4 12 7 -5
9 -3 8 6 -2 18 -22 57 -41 68 -34 6 3 10 0 10 -7 0 -8 12 -15 28 -16 15 -1 68
-13 117 -26 65 -17 92 -20 97 -12 5 7 8 4 8 -8 0 -15 6 -17 35 -14 19 2 35 1
35 -2 0 -3 10 -6 23 -7 12 0 64 -4 115 -7 66 -5 98 -3 108 5 10 8 14 8 14 0 0
-6 12 -9 28 -6 15 2 54 7 87 10 140 14 188 23 197 37 5 9 8 9 8 2 0 -8 23 -5
73 8 39 11 77 20 82 22 6 1 19 7 30 13 11 5 41 16 68 24 26 7 47 16 47 20 0 4
16 10 35 13 19 4 35 11 35 16 0 6 5 10 12 10 21 0 118 52 112 61 -3 5 4 9 15
9 12 0 21 5 21 11 0 5 4 8 9 4 5 -3 16 2 24 10 9 8 20 15 25 15 5 0 15 6 21
14 7 8 28 22 47 31 19 9 32 20 29 26 -4 5 -13 3 -21 -6 -9 -8 -21 -15 -29 -15
-21 0 -75 -34 -75 -47 0 -7 -8 -13 -17 -13 -15 0 -16 2 -3 10 8 5 10 10 4 10
-16 0 -64 -24 -64 -32 0 -5 -9 -8 -19 -8 -11 0 -23 -5 -26 -10 -4 -6 -11 -8
-16 -5 -5 4 -9 1 -9 -4 0 -6 -9 -11 -20 -11 -11 0 -20 -4 -20 -10 0 -5 -7 -7
-15 -4 -8 3 -24 -1 -37 -10 -12 -9 -33 -16 -45 -16 -13 0 -23 -4 -23 -9 0 -5
-11 -8 -25 -6 -14 1 -25 -1 -25 -6 0 -4 -19 -12 -42 -18 -24 -5 -61 -15 -83
-21 -22 -6 -51 -13 -65 -15 -14 -1 -25 -4 -25 -5 0 -4 -44 -12 -77 -12 -21 -1
-38 -4 -38 -7 0 -6 -102 -14 -190 -14 -30 0 -58 -5 -62 -11 -6 -8 -8 -8 -8 0
0 7 -26 12 -72 12 -40 0 -86 4 -103 7 -16 3 -42 8 -56 9 -15 2 -40 7 -57 11
-18 3 -34 6 -37 6 -3 -1 -20 5 -38 12 -17 8 -41 13 -51 11 -11 -1 -24 3 -30
10 -13 16 -75 38 -86 31 -4 -3 -11 2 -14 10 -3 8 -9 14 -13 13 -13 -3 -56 14
-84 33 -14 10 -37 21 -52 24 -15 4 -27 11 -27 16 0 5 -12 15 -27 23 -16 8 -44
28 -63 45 -19 17 -41 29 -48 26 -7 -3 -11 -1 -8 4 3 5 -1 11 -9 15 -8 3 -15
12 -15 21 0 8 -4 14 -9 13 -8 -3 -91 82 -91 93 0 3 -9 17 -20 30 -12 12 -30
38 -41 56 -13 20 -25 30 -35 26 -7 -3 -14 -1 -14 5 0 6 5 12 10 14 6 2 2 13
-10 25 -11 12 -20 28 -20 35 0 7 -7 22 -15 32 -8 11 -15 28 -15 38 0 10 -4 18
-8 18 -4 0 -19 29 -32 65 -13 36 -28 65 -32 65 -4 0 -7 10 -7 23 0 19 -5 50
-11 67 -1 3 -3 10 -4 15 -11 50 -20 75 -25 75 -4 0 -7 8 -7 18 -1 9 -4 33 -9
52 -7 35 -13 78 -14 114 -1 12 -6 16 -16 12 -13 -5 -14 -2 -4 17 7 12 12 22
12 22 0 0 -5 11 -12 24 -8 14 -9 21 -2 17 6 -4 11 -2 11 3 0 6 -3 11 -7 11 -5
0 -8 30 -9 68 -4 259 -7 312 -18 312 -8 0 -8 2 0 8 7 4 10 39 8 92 -2 47 2 98
8 113 7 17 7 32 2 35 -11 9 -12 35 -1 43 7 5 14 49 16 112 1 16 5 26 9 23 4
-2 9 4 9 16 1 11 12 28 23 38 12 11 19 24 15 30 -4 7 2 6 19 -1 14 -7 22 -17
19 -25 -3 -8 -1 -14 4 -14 6 0 11 -17 12 -37 1 -21 3 -44 3 -50 1 -7 4 -13 8
-13 3 0 5 -16 4 -35 -2 -19 1 -37 7 -41 6 -4 5 -12 -3 -22 -8 -9 -8 -13 -2 -9
14 8 24 -14 24 -50 0 -17 4 -23 14 -20 9 4 13 -3 13 -21 -1 -40 14 -102 25
-102 5 0 6 -5 2 -11 -3 -6 -2 -21 4 -32 13 -28 25 -59 27 -72 3 -21 19 -51 38
-72 11 -13 16 -23 10 -23 -8 0 -8 -9 0 -30 6 -16 15 -30 19 -30 4 0 8 -7 8
-15 0 -18 42 -109 53 -113 4 -2 7 -10 7 -18 0 -8 5 -14 11 -14 6 0 9 -7 5 -15
-3 -8 -1 -15 5 -15 6 0 7 -5 4 -10 -3 -6 1 -13 9 -16 9 -3 16 -12 16 -20 0 -8
5 -14 10 -14 6 0 10 -6 10 -14 0 -8 14 -28 30 -44 17 -17 30 -38 30 -46 0 -9
4 -16 9 -16 5 0 19 -16 32 -35 13 -19 30 -35 36 -35 7 0 20 -11 29 -25 9 -14
23 -25 30 -25 8 0 14 -4 14 -10 0 -5 7 -10 15 -10 8 0 15 -7 15 -15 0 -9 13
-18 31 -22 18 -3 26 -9 19 -13 -7 -4 3 -15 28 -28 22 -11 43 -18 46 -15 3 4 6
-1 6 -10 0 -10 7 -17 15 -17 8 0 15 -4 15 -8 0 -4 10 -8 22 -9 11 -1 25 -8 29
-15 5 -7 9 -10 9 -5 0 4 11 0 25 -9 14 -9 28 -14 32 -10 3 3 1 6 -6 6 -7 0 -9
5 -5 12 5 8 2 9 -9 5 -10 -3 -17 -3 -17 2 0 4 -27 35 -61 67 -33 32 -71 70
-82 83 -21 23 -33 34 -79 74 -12 9 -18 17 -14 17 4 0 -6 13 -21 28 -40 41 -63
71 -63 82 0 6 -4 10 -10 10 -5 0 -16 16 -24 35 -8 19 -19 35 -25 35 -5 0 -16
12 -23 27 -7 15 -22 32 -33 38 -13 7 -19 18 -17 34 2 15 0 21 -7 17 -7 -4 -11
1 -11 13 0 11 -6 26 -12 33 -7 7 -22 29 -32 48 -11 19 -25 39 -33 43 -7 4 -13
19 -13 32 0 13 -6 28 -14 32 -7 4 -18 28 -24 53 -12 52 -72 223 -81 230 -7 6
-11 22 -16 64 -2 16 -8 33 -14 39 -5 5 -7 16 -4 23 3 8 -1 14 -11 14 -12 0
-15 6 -10 25 7 30 -4 98 -15 91 -4 -3 -13 10 -19 29 -7 26 -7 35 1 35 7 0 6 4
-2 9 -17 11 -22 51 -7 52 6 0 2 4 -9 9 -13 6 -15 9 -5 9 12 1 12 3 2 10 -11 7
-11 11 1 23 17 16 6 45 -12 34 -6 -4 -11 -3 -11 3 0 5 7 14 17 19 9 6 14 16
10 25 -3 9 -1 18 6 21 9 5 9 7 0 12 -13 6 -6 34 8 34 4 0 6 -7 3 -15 -4 -8 -1
-15 5 -15 13 0 61 -52 56 -60 -3 -4 4 -15 15 -25 11 -10 20 -24 20 -31 0 -19
30 -45 43 -37 6 4 8 0 4 -10 -9 -23 13 -72 25 -55 5 9 8 3 8 -14 0 -16 5 -28
10 -28 6 0 10 -7 10 -15 0 -8 5 -14 12 -12 6 1 20 -15 30 -35 10 -21 23 -38
28 -38 6 0 10 -5 10 -12 0 -19 31 -47 46 -41 8 3 14 0 14 -6 0 -6 -5 -11 -10
-11 -6 0 -5 -8 2 -19 7 -11 16 -17 20 -15 4 3 8 2 8 -3 0 -8 61 -79 142 -165
29 -31 51 -47 59 -42 8 4 9 3 5 -5 -5 -7 16 -34 53 -70 34 -32 61 -56 61 -53
0 3 10 -8 23 -25 18 -25 26 -29 45 -22 12 5 22 4 22 0 0 -5 -6 -11 -12 -13 -9
-3 -8 -9 5 -22 9 -10 17 -14 17 -10 0 4 9 -3 19 -15 11 -12 21 -22 23 -21 11
4 38 -14 38 -26 0 -8 5 -14 11 -14 6 0 25 -11 41 -25 16 -14 34 -23 38 -20 5
3 12 0 16 -6 5 -8 3 -9 -7 -4 -8 4 -4 -2 8 -13 12 -12 33 -24 46 -27 14 -4 28
-13 31 -21 3 -8 12 -14 21 -14 8 0 15 -4 15 -9 0 -10 70 -46 83 -43 4 1 7 -2
7 -7 0 -5 8 -11 18 -15 9 -3 35 -17 57 -30 22 -14 48 -25 58 -26 9 0 17 -4 17
-9 0 -5 15 -14 33 -21 17 -7 51 -21 75 -31 23 -11 50 -20 60 -22 9 -1 24 -7
32 -12 8 -5 21 -10 30 -12 44 -7 76 -18 88 -30 7 -7 23 -13 35 -14 37 -1 71
-9 77 -18 3 -4 20 -8 38 -7 17 1 32 -3 32 -8 0 -5 3 -7 6 -4 3 4 20 0 37 -7
18 -7 41 -9 51 -6 14 6 -4 15 -70 35 -49 15 -96 30 -104 32 -8 3 -17 5 -20 6
-3 0 -21 8 -41 19 -20 10 -39 15 -43 12 -3 -3 -14 0 -23 9 -10 8 -27 14 -38
14 -11 -1 -26 7 -34 17 -7 10 -19 16 -27 13 -8 -3 -14 -2 -14 2 0 4 -11 12
-24 18 -18 9 -28 9 -36 0 -8 -8 -11 -7 -8 4 2 10 -4 15 -18 14 -12 0 -20 4
-18 10 2 6 -16 20 -41 31 -25 11 -45 23 -45 27 0 5 -3 7 -7 6 -5 -1 -19 5 -33
13 -45 29 -125 74 -142 81 -10 4 -18 12 -18 18 0 5 -9 10 -19 10 -10 0 -21 7
-25 15 -3 8 -11 15 -19 15 -7 0 -29 15 -49 33 -19 17 -52 40 -72 49 -20 10
-35 23 -34 30 2 7 -5 12 -14 12 -10 -1 -18 1 -18 5 0 10 -68 79 -108 111 -18
14 -32 31 -32 38 0 9 -6 12 -15 8 -9 -3 -15 0 -15 9 0 8 -7 15 -15 15 -8 0
-15 6 -15 14 0 8 -10 23 -23 33 -13 10 -22 24 -20 30 3 7 -7 15 -21 19 -17 4
-26 13 -26 25 0 10 -4 19 -10 19 -5 0 -10 4 -10 9 0 10 -31 49 -74 92 -16 16
-24 29 -19 29 11 0 -17 35 -70 91 -15 16 -26 33 -23 38 8 12 -24 52 -36 45 -7
-4 -8 -2 -4 4 4 7 2 12 -4 12 -7 0 -9 8 -5 21 5 14 3 19 -3 15 -6 -4 -18 9
-28 29 -9 19 -20 35 -25 35 -5 0 -6 7 -3 15 4 9 0 15 -10 15 -8 0 -18 11 -22
25 -3 14 -14 30 -23 35 -12 7 -13 9 -2 10 11 0 10 5 -5 20 -39 39 -48 58 -46
97 1 16 -2 21 -14 16 -12 -4 -14 1 -12 23 2 17 -2 28 -8 27 -6 -1 -18 20 -28
48 -10 27 -22 46 -27 43 -5 -3 -9 6 -9 19 0 13 -11 34 -25 47 -17 16 -21 26
-14 31 8 5 7 16 -5 39 -9 18 -16 39 -16 47 0 8 -4 11 -10 8 -6 -3 -7 1 -4 9 4
10 -1 18 -11 22 -9 4 -14 13 -10 22 6 17 -13 44 -26 36 -5 -3 -4 7 1 22 8 20
8 29 -1 35 -6 3 -11 18 -11 33 0 21 -5 26 -26 26 -20 0 -23 -3 -14 -12z m2
-843 c0 -8 -4 -15 -10 -15 -5 0 -7 7 -4 15 4 8 8 15 10 15 2 0 4 -7 4 -15z
m1775 -1115 c3 -5 1 -10 -4 -10 -6 0 -11 5 -11 10 0 6 2 10 4 10 3 0 8 -4 11
-10z"/>
<path d="M3560 9360 c0 -5 5 -10 10 -10 6 0 10 5 10 10 0 6 -4 10 -10 10 -5 0
-10 -4 -10 -10z"/>
<path d="M12700 9279 c0 -11 -4 -19 -9 -19 -5 0 -15 -17 -22 -37 -6 -21 -14
-42 -18 -48 -3 -5 -6 -12 -7 -15 -6 -31 -18 -60 -25 -60 -5 0 -9 -8 -9 -17 0
-10 -7 -31 -15 -47 -8 -15 -15 -36 -15 -45 0 -9 -5 -22 -12 -29 -7 -7 -8 -12
-4 -12 5 0 3 -7 -4 -15 -7 -8 -10 -15 -6 -15 3 0 -1 -16 -9 -37 -8 -20 -13
-38 -11 -41 3 -2 -1 -20 -9 -38 -8 -19 -17 -60 -20 -92 -3 -31 -9 -82 -13
-112 -14 -105 -1 -320 20 -320 5 0 7 -4 3 -10 -3 -5 -1 -17 4 -27 5 -10 12
-26 15 -37 4 -11 12 -16 22 -12 9 3 12 2 9 -4 -8 -13 19 -40 38 -40 9 0 17 -5
19 -12 7 -19 129 -14 172 6 20 9 36 20 36 25 0 4 6 8 14 8 20 0 136 84 130 94
-3 5 1 9 9 9 18 0 57 34 57 49 0 6 11 16 24 22 13 6 30 22 37 35 7 13 16 24
21 24 4 0 8 7 8 15 0 8 4 15 9 15 9 0 19 14 84 116 18 28 45 66 60 83 15 18
27 40 27 48 0 9 6 21 14 27 15 12 110 193 141 266 10 25 29 68 42 97 12 28 23
57 23 62 0 12 0 12 -45 16 -16 1 -48 7 -70 13 -49 14 -112 24 -142 23 -13 0
-23 3 -23 8 0 6 -8 10 -17 10 -33 -1 -113 10 -122 15 -5 3 -29 8 -52 11 -24 3
-52 8 -61 11 -32 10 -63 15 -93 17 -16 0 -32 5 -35 9 -4 4 -33 9 -67 10 -33 2
-59 6 -57 9 2 4 -8 7 -21 7 -18 0 -25 -6 -25 -19z"/>
<path d="M3500 9180 c-15 -12 -33 -17 -45 -13 -11 3 -17 2 -12 -3 4 -4 23 -9
41 -10 29 -3 35 1 39 22 2 13 4 24 3 24 0 0 -12 -9 -26 -20z"/>
<path d="M3258 9137 c-7 -8 -19 -12 -26 -9 -7 2 -10 -2 -6 -12 6 -15 34 -11
34 5 0 5 5 9 11 9 5 0 7 -4 4 -10 -3 -6 1 -7 10 -4 12 5 13 9 4 20 -14 17 -14
17 -31 1z"/>
<path d="M3190 9114 c-8 -10 -10 -15 -3 -11 6 4 13 1 16 -5 2 -7 7 -11 9 -8 3
3 2 13 -1 23 -7 18 -8 18 -21 1z"/>
<path d="M3063 9102 c-19 -12 -1 -27 33 -28 26 0 30 3 26 18 -5 20 -32 25 -32
6 0 -10 -2 -10 -8 -1 -4 7 -13 9 -19 5z"/>
<path d="M2957 9071 c-3 -12 -1 -21 3 -21 15 0 23 21 12 32 -6 6 -11 2 -15
-11z"/>
<path d="M2996 9074 c-4 -10 -1 -14 6 -12 15 5 23 28 10 28 -5 0 -13 -7 -16
-16z"/>
<path d="M2916 9061 c-3 -5 0 -13 7 -19 10 -8 13 -6 13 9 0 20 -11 25 -20 10z"/>
<path d="M2275 8830 c-3 -5 -2 -10 4 -10 5 0 13 5 16 10 3 6 2 10 -4 10 -5 0
-13 -4 -16 -10z"/>
<path d="M2239 8798 c0 -22 -1 -22 -9 -3 -8 19 -9 19 -9 -2 -1 -25 9 -29 27
-11 15 15 16 38 2 38 -5 0 -10 -10 -11 -22z"/>
<path d="M2190 8780 c0 -11 -4 -20 -9 -20 -5 0 -12 -11 -15 -25 -4 -14 -13
-25 -20 -25 -8 0 -20 -10 -29 -23 -12 -18 -12 -24 -1 -35 20 -18 36 -15 29 7
-3 11 -1 22 5 26 5 3 10 -1 10 -10 0 -9 4 -14 9 -11 5 3 7 15 4 26 -4 14 0 20
11 20 10 0 16 9 16 25 0 14 5 23 13 21 6 -1 9 -1 5 1 -5 3 -8 13 -8 24 0 10
-4 19 -10 19 -5 0 -10 -9 -10 -20z"/>
<path d="M2151 8744 c0 -11 3 -14 6 -6 3 7 2 16 -1 19 -3 4 -6 -2 -5 -13z"/>
<path d="M2095 8636 c-19 -21 -35 -80 -24 -86 6 -4 4 -11 -6 -20 -8 -7 -15
-27 -15 -46 0 -18 -4 -35 -9 -38 -14 -9 -11 -117 3 -109 6 4 2 -4 -9 -17 -14
-16 -15 -21 -5 -18 21 6 50 61 37 70 -6 3 -12 20 -13 36 -1 24 2 29 16 25 14
-4 17 0 13 21 -3 14 -9 23 -14 20 -5 -3 -9 0 -9 5 0 6 6 11 13 11 9 0 14 13
15 37 1 20 7 40 13 44 6 3 9 17 5 30 -3 13 -3 18 0 12 8 -17 24 -16 24 1 0 21
-23 36 -35 22z"/>
<path d="M5035 8380 c4 -6 11 -8 16 -5 14 9 11 15 -7 15 -8 0 -12 -5 -9 -10z"/>
<path d="M4990 8370 c0 -5 5 -10 10 -10 6 0 10 5 10 10 0 6 -4 10 -10 10 -5 0
-10 -4 -10 -10z"/>
<path d="M4925 8336 c-18 -7 -25 -15 -18 -19 6 -4 14 -3 18 3 3 5 17 10 31 10
14 0 22 4 19 10 -8 13 -13 12 -50 -4z"/>
<path d="M4843 8309 c-18 -5 -33 -14 -33 -20 0 -6 -9 -8 -20 -4 -12 4 -20 2
-20 -5 0 -7 -7 -9 -16 -6 -12 4 -15 2 -10 -9 4 -12 0 -14 -18 -11 -15 3 -28
-3 -36 -15 -9 -12 -21 -17 -36 -13 -14 4 -23 0 -28 -11 -4 -11 -12 -15 -22
-11 -11 4 -22 -1 -32 -15 -11 -15 -17 -18 -22 -9 -6 9 -15 6 -36 -13 -20 -19
-30 -23 -36 -14 -6 9 -8 9 -8 0 0 -7 -9 -13 -20 -13 -11 0 -20 -4 -20 -10 0
-5 -6 -7 -14 -4 -7 3 -16 -2 -20 -11 -3 -10 -13 -15 -20 -12 -8 3 -20 -1 -26
-9 -7 -8 -21 -14 -30 -14 -10 0 -20 -5 -22 -10 -2 -6 -18 -13 -37 -15 -18 -2
-39 -12 -46 -21 -7 -11 -19 -15 -29 -11 -9 4 -15 3 -12 -2 5 -8 -29 -25 -46
-22 -5 1 -8 -3 -8 -9 0 -5 -16 -12 -35 -16 -19 -3 -35 -10 -35 -15 0 -5 -7 -9
-15 -9 -9 0 -18 -6 -21 -14 -3 -8 -12 -12 -20 -9 -8 3 -14 1 -14 -4 0 -5 -20
-15 -45 -22 -25 -7 -42 -17 -39 -22 3 -5 -4 -9 -16 -9 -13 0 -19 -4 -14 -12 4
-7 3 -8 -4 -4 -15 9 -55 -18 -44 -29 4 -4 -1 -5 -10 -2 -12 4 -28 -5 -50 -26
-17 -18 -29 -24 -25 -15 3 10 1 20 -6 24 -7 4 -9 4 -5 -1 8 -9 -15 -35 -31
-35 -6 0 -11 -5 -11 -11 0 -8 -5 -8 -15 1 -10 9 -15 9 -15 1 0 -6 -6 -11 -14
-11 -8 0 -24 -12 -35 -27 -13 -18 -19 -21 -14 -9 7 20 -3 18 -37 -9 -8 -6 -34
-17 -57 -25 -23 -7 -40 -17 -37 -21 3 -5 1 -9 -5 -9 -5 0 -12 6 -14 13 -4 10
-6 10 -6 0 -1 -7 -12 -13 -25 -13 -13 0 -29 -6 -36 -14 -6 -8 -18 -12 -26 -9
-8 3 -24 -3 -36 -13 -15 -14 -22 -15 -25 -7 -3 9 -15 7 -43 -7 -22 -11 -47
-20 -57 -20 -10 0 -30 -6 -44 -14 -14 -7 -45 -13 -68 -12 -23 1 -44 -1 -47 -5
-2 -4 -22 -5 -44 -3 -26 3 -39 0 -37 -7 2 -13 -52 -19 -59 -7 -8 13 -64 9 -64
-4 0 -9 -3 -9 -12 0 -17 17 -28 15 -28 -5 0 -11 -3 -14 -8 -7 -11 17 -48 34
-75 34 -14 0 -27 6 -30 14 -4 10 -15 13 -31 10 -16 -3 -26 0 -26 7 0 6 -9 9
-20 6 -11 -3 -18 -2 -15 2 2 4 -19 18 -48 31 -29 13 -61 32 -71 42 -11 10 -30
18 -43 18 -16 0 -27 8 -33 25 -5 14 -14 25 -20 25 -16 0 -80 61 -80 77 0 8 -4
11 -10 8 -5 -3 -10 1 -10 9 0 9 -5 16 -11 16 -16 0 -50 41 -43 51 3 5 -2 9
-10 9 -15 0 -20 11 -17 37 1 8 -5 10 -14 7 -11 -4 -15 1 -17 17 -1 13 -2 33
-3 44 -1 11 -6 19 -13 18 -18 -4 -37 38 -22 47 9 6 9 9 1 11 -7 3 -13 13 -15
24 -3 18 -8 21 -35 17 -13 -3 -8 -51 6 -56 7 -3 10 -15 8 -26 -3 -16 0 -20 10
-16 11 4 12 0 4 -22 -8 -21 -7 -29 5 -38 9 -6 16 -19 16 -28 0 -9 4 -16 8 -16
14 0 32 -48 26 -67 -5 -15 -4 -16 5 -3 10 13 12 13 21 0 5 -8 8 -20 5 -27 -2
-7 7 -21 20 -32 14 -10 25 -26 25 -36 0 -10 5 -13 12 -9 7 5 9 2 5 -9 -7 -20
16 -29 34 -14 11 10 12 9 2 -2 -17 -19 -5 -41 23 -41 18 0 22 -4 17 -17 -4
-11 -3 -14 5 -9 7 4 12 2 12 -3 0 -6 7 -11 15 -11 8 0 14 -6 13 -12 -2 -7 6
-13 17 -13 11 0 21 -8 23 -18 2 -9 7 -15 12 -12 5 3 11 1 15 -5 4 -7 12 -7 25
0 17 9 21 6 26 -16 4 -14 9 -22 13 -17 10 14 31 14 31 -1 0 -14 28 -27 70 -31
14 -1 40 -6 59 -10 25 -6 32 -5 27 3 -4 7 -3 12 3 12 5 0 11 -5 13 -12 5 -14
41 -18 206 -21 67 -1 122 1 122 6 0 4 11 5 25 3 15 -3 25 0 25 8 0 6 9 12 20
12 11 0 20 -3 20 -6 0 -4 13 -5 30 -2 16 2 27 8 24 14 -3 5 5 6 20 2 14 -3 26
-2 26 3 0 13 40 13 40 0 1 -7 6 -3 13 8 15 24 47 32 58 13 7 -10 9 -9 9 5 0
12 8 17 28 17 18 0 23 3 14 9 -11 6 -10 10 3 15 10 3 23 1 31 -4 9 -9 18 -6
33 9 12 12 24 20 28 19 11 -2 66 21 73 31 8 11 132 72 137 67 3 -3 14 4 26 14
11 11 24 17 28 14 4 -2 10 0 14 6 3 5 13 10 21 10 9 0 22 7 30 15 9 8 24 15
34 15 10 0 21 9 25 19 7 22 38 38 43 22 2 -5 10 -7 18 -4 7 3 11 9 8 14 -3 5
4 9 15 9 11 0 23 5 26 10 4 6 11 7 17 4 7 -5 8 -2 3 6 -6 10 -4 12 8 7 11 -4
14 -2 10 9 -3 7 0 14 6 14 6 0 11 -6 11 -12 1 -8 6 -6 14 4 7 10 16 15 19 12
3 -4 14 1 23 10 9 10 23 15 30 12 8 -3 11 0 7 10 -3 7 -1 14 5 14 6 0 12 -5
14 -11 2 -6 18 4 36 22 18 18 32 27 32 21 0 -7 5 -12 11 -12 6 0 8 9 4 23 -4
13 -3 17 2 10 10 -14 56 -6 47 8 -5 9 9 13 34 10 7 -1 24 7 38 18 14 11 32 17
40 14 10 -3 14 2 14 18 0 17 3 20 9 11 7 -12 12 -12 30 -1 11 8 21 17 21 22 0
4 4 6 9 3 5 -3 14 1 21 9 7 8 23 15 35 15 12 0 28 7 35 15 7 8 16 13 20 10 5
-3 11 -1 15 5 4 6 10 8 15 5 4 -3 11 2 14 11 4 9 9 14 13 11 3 -4 12 1 19 11
11 14 15 14 22 4 8 -11 10 -11 15 2 4 9 16 16 27 16 11 0 20 5 20 10 0 6 7 10
15 10 8 0 15 5 15 11 0 5 4 8 9 4 13 -8 109 35 115 52 6 15 4 15 -41 2z
m-2403 -649 c0 -5 -2 -10 -4 -10 -3 0 -8 5 -11 10 -3 6 -1 10 4 10 6 0 11 -4
11 -10z"/>
<path d="M2043 8295 c-7 -8 -13 -19 -13 -25 0 -5 6 -10 13 -10 8 0 7 -4 -3
-10 -13 -9 -13 -10 0 -10 13 0 13 -2 0 -11 -13 -9 -12 -10 2 -5 10 3 20 1 23
-4 4 -6 -3 -10 -15 -10 -17 0 -19 -3 -10 -19 5 -11 10 -30 11 -43 0 -15 3 -18
6 -8 4 8 13 20 22 27 11 9 12 12 3 13 -9 0 -11 11 -7 43 4 30 3 38 -5 27 -8
-12 -10 -9 -10 13 0 15 5 27 10 27 6 0 10 5 10 10 0 15 -23 12 -37 -5z"/>
<path d="M12722 7530 c-6 -11 -12 -28 -12 -37 0 -15 2 -15 14 -3 17 18 30 60
19 60 -4 0 -14 -9 -21 -20z"/>
<path d="M11880 7361 c0 -5 16 -11 35 -13 39 -4 48 6 13 16 -32 8 -48 7 -48
-3z"/>
<path d="M12320 7000 c-13 -8 -12 -10 3 -10 9 0 17 5 17 10 0 12 -1 12 -20 0z"/>
<path d="M12789 6703 c5 -10 33 -40 63 -66 70 -63 72 -65 119 -92 25 -14 36
-25 27 -28 -10 -3 -10 -7 -1 -17 13 -14 -10 -47 -42 -60 -14 -5 -20 -17 -20
-37 0 -28 2 -29 23 -20 12 6 22 14 22 18 0 12 51 22 120 23 36 1 71 5 77 9 6
4 14 3 18 -2 3 -6 15 -7 28 -2 12 4 41 7 65 6 23 -2 42 0 42 4 0 3 25 5 55 5
32 -1 55 3 55 9 0 6 -3 8 -6 4 -3 -3 -16 -2 -28 3 -13 5 -30 4 -40 -2 -12 -7
-17 -7 -13 -1 4 6 -11 13 -36 17 -72 11 -91 15 -124 25 -17 5 -34 7 -37 3 -3
-3 -6 1 -6 8 0 7 -3 11 -6 8 -5 -6 -60 16 -171 68 -70 33 -124 70 -115 79 4 5
1 5 -6 1 -15 -9 -42 16 -42 38 0 9 -7 16 -15 16 -12 0 -13 -4 -6 -17z"/>
<path d="M13087 4643 c-11 -10 -8 -43 3 -43 6 0 9 -3 8 -7 -3 -13 25 -63 35
-63 5 0 4 7 -3 15 -11 14 -21 52 -21 88 0 17 -10 22 -22 10z"/>
<path d="M15051 4151 c-24 -21 -20 -61 5 -40 8 6 11 16 8 21 -4 6 0 14 7 19 7
4 11 10 8 14 -3 3 -16 -3 -28 -14z"/>
<path d="M15010 4110 c0 -5 5 -10 10 -10 6 0 10 5 10 10 0 6 -4 10 -10 10 -5
0 -10 -4 -10 -10z"/>
<path d="M13731 4082 c-7 -2 -3 -12 10 -23 12 -10 18 -19 13 -19 -5 0 -1 -5 9
-11 9 -5 17 -17 17 -24 0 -8 6 -14 13 -12 6 1 11 -4 10 -10 -4 -18 22 -16 37
2 10 12 10 15 -3 15 -23 0 -26 23 -5 41 15 14 16 18 4 22 -8 3 -17 1 -20 -6
-2 -7 -5 -4 -5 5 -1 11 -6 15 -16 12 -8 -4 -15 -2 -15 3 0 9 -29 12 -49 5z"/>
<path d="M15005 4080 c3 -5 -1 -10 -9 -10 -20 0 -53 -33 -49 -47 2 -6 -8 -13
-22 -17 -14 -4 -25 -11 -25 -16 0 -6 -8 -10 -17 -10 -16 0 -16 -2 -3 -11 12
-8 11 -10 -5 -7 -11 2 -30 -7 -42 -21 -15 -15 -30 -22 -43 -18 -11 3 -18 1
-14 -4 3 -5 0 -10 -5 -10 -6 -1 -15 -2 -21 -3 -5 0 -18 -8 -29 -18 -14 -12
-22 -13 -30 -5 -6 6 -11 7 -11 2 -1 -26 -18 -37 -38 -26 -16 8 -24 8 -34 -2
-20 -20 -46 -27 -52 -14 -3 9 -5 9 -5 0 -1 -7 -8 -13 -16 -13 -8 0 -15 -5 -15
-10 0 -6 -11 -8 -25 -4 -19 5 -24 3 -20 -7 4 -11 -6 -14 -42 -14 -27 1 -51 -4
-55 -10 -5 -6 -11 -5 -18 5 -5 8 -10 10 -10 4 0 -7 -6 -12 -12 -11 -37 1 -59
-4 -53 -13 3 -5 12 -7 19 -4 8 3 17 1 21 -5 3 -6 13 -11 21 -11 8 0 12 4 9 10
-4 6 2 7 18 1 18 -7 30 -6 44 4 11 8 23 11 27 8 10 -10 66 -11 72 -1 3 5 14 6
25 3 10 -4 19 -2 19 3 0 5 6 9 13 10 53 7 98 23 91 33 -3 5 11 9 30 9 25 0 36
4 36 15 0 15 7 18 43 18 9 0 17 3 17 7 0 4 14 13 30 20 17 7 30 19 30 26 0 8
5 14 11 14 14 0 91 59 103 80 5 8 25 30 43 48 30 28 31 32 13 32 -12 0 -18 -4
-15 -10z"/>
<path d="M13862 3956 c4 -5 2 -16 -4 -25 -10 -13 -10 -14 1 -4 7 6 21 9 30 6
18 -7 16 -4 -14 17 -11 8 -17 10 -13 6z"/>
<path d="M13900 3899 c0 -5 5 -7 10 -4 6 3 10 8 10 11 0 2 -4 4 -10 4 -5 0
-10 -5 -10 -11z"/>
<path d="M13960 3880 c0 -22 13 -37 32 -37 9 0 14 6 11 14 -3 8 -8 11 -11 9
-3 -3 -11 2 -18 12 -11 14 -13 14 -14 2z"/>
<path d="M14020 3834 c0 -7 8 -10 20 -7 11 3 20 8 20 12 0 4 -9 7 -20 7 -11 0
-20 -6 -20 -12z"/>
<path d="M14130 3806 c0 -2 7 -7 16 -10 8 -3 12 -2 9 4 -6 10 -25 14 -25 6z"/>
<path d="M14242 3780 c0 -14 2 -19 5 -12 2 6 2 18 0 25 -3 6 -5 1 -5 -13z"/>
</g>
</svg>
