<?xml version="1.0" standalone="no"?>
<!DOCTYPE svg PUBLIC "-//W3C//DTD SVG 20010904//EN"
 "http://www.w3.org/TR/2001/REC-SVG-20010904/DTD/svg10.dtd">
<svg version="1.0" xmlns="http://www.w3.org/2000/svg"
 width="750.000000pt" height="499.000000pt" viewBox="0 0 750.000000 499.000000"
 preserveAspectRatio="xMidYMid meet">

<g transform="translate(0.000000,499.000000) scale(0.100000,-0.100000)"
fill="#000000" stroke="none">
<path d="M0 2495 l0 -2495 3259 0 3259 0 37 38 c38 37 39 26 2 -16 l-20 -22
481 0 482 0 0 2495 0 2495 -1839 0 -1839 0 -11 -30 c-5 -16 -7 -30 -3 -31 4 0
-1 -4 -11 -8 -16 -6 -12 -12 29 -46 69 -57 118 -111 144 -159 l22 -41 -26 30
c-29 34 -33 30 -11 -11 8 -16 22 -29 32 -29 9 0 18 -7 20 -15 4 -12 3 -12 -5
-1 -7 10 -11 5 -14 -18 -2 -17 -1 -31 4 -31 4 0 11 -18 14 -40 4 -22 12 -44
19 -50 12 -10 12 -23 0 -137 -4 -43 -2 -53 10 -53 8 0 15 -5 15 -11 0 -6 -7
-9 -15 -5 -8 3 -15 1 -15 -3 0 -5 6 -12 13 -14 9 -4 9 -6 0 -6 -9 -1 -13 -23
-13 -73 0 -45 -6 -84 -15 -102 -8 -15 -15 -39 -15 -52 0 -15 -6 -24 -15 -24
-10 0 -15 -10 -15 -29 0 -17 -6 -31 -15 -35 -9 -3 -15 -11 -13 -18 4 -17 -35
-55 -50 -50 -7 2 -10 -2 -6 -12 5 -13 -1 -16 -27 -17 -19 -1 -26 -3 -16 -6 9
-2 17 -9 17 -15 0 -5 -7 -7 -16 -4 -12 4 -15 2 -10 -9 4 -11 -2 -15 -24 -15
-20 0 -30 -5 -30 -15 0 -9 -9 -15 -25 -15 -16 0 -25 -6 -25 -15 0 -12 -16 -15
-85 -15 -69 0 -85 3 -85 15 0 10 -10 15 -31 15 -25 0 -42 12 -88 59 -73 77
-101 111 -101 122 0 5 -4 9 -9 9 -14 0 0 -47 20 -69 10 -11 19 -25 19 -31 0
-14 70 -90 83 -90 5 0 24 -11 41 -23 17 -13 44 -27 59 -31 46 -11 26 -31 -36
-34 -36 -2 -69 3 -89 12 -18 9 -53 16 -77 18 -24 1 -45 8 -48 15 -3 7 -14 13
-24 13 -10 0 -19 7 -19 15 0 8 -8 15 -18 15 -16 0 -52 32 -52 46 0 9 -53 54
-62 54 -5 0 -8 6 -8 14 0 8 -5 16 -11 18 -6 2 -12 16 -11 31 0 15 -4 24 -9 21
-5 -3 -9 0 -9 5 0 6 9 11 20 11 11 0 20 -5 20 -11 0 -5 5 -7 10 -4 6 4 8 26 4
53 -5 45 -11 85 -13 89 -1 1 -14 -3 -30 -8 -24 -8 -29 -15 -25 -35 2 -13 2
-24 -2 -24 -17 0 -36 36 -41 77 -3 27 -9 51 -14 54 -16 9 -15 179 0 189 10 6
12 20 7 53 -5 33 -3 48 6 54 8 4 14 19 13 33 0 15 5 24 13 22 7 -1 12 9 12 28
0 16 5 30 10 30 6 0 10 14 10 30 0 20 5 30 15 30 9 0 12 6 9 15 -5 11 1 15 22
16 17 1 22 3 12 6 -22 5 -24 23 -3 23 8 0 15 7 15 15 0 8 5 15 10 15 6 0 10 9
10 20 0 11 5 20 10 20 6 0 9 4 8 9 -2 5 18 30 44 54 50 48 125 88 202 109 25
7 46 18 46 25 0 11 -323 13 -1735 13 l-1735 0 0 -2495z m4110 1755 c0 -5 -4
-10 -10 -10 -5 0 -10 5 -10 10 0 6 5 10 10 10 6 0 10 -4 10 -10z m30 -5 c0 -8
-2 -15 -4 -15 -2 0 -6 7 -10 15 -3 8 -1 15 4 15 6 0 10 -7 10 -15z m0 -35 c0
-5 -4 -10 -10 -10 -5 0 -10 5 -10 10 0 6 5 10 10 10 6 0 10 -4 10 -10z m-1633
-52 c-3 -8 -6 -5 -6 6 -1 11 2 17 5 13 3 -3 4 -12 1 -19z m1983 -57 c0 -26
-18 -37 -26 -16 -6 13 -8 14 -15 3 -7 -10 -9 -10 -9 0 0 7 -13 12 -30 12 -16
0 -30 5 -30 10 0 6 25 10 55 10 48 0 55 -3 55 -19z m17 -13 c-3 -8 -6 -5 -6 6
-1 11 2 17 5 13 3 -3 4 -12 1 -19z m-412 2 c-3 -5 -10 -10 -16 -10 -5 0 -9 5
-9 10 0 6 7 10 16 10 8 0 12 -4 9 -10z m1495 -76 c0 -2 -7 -4 -15 -4 -8 0 -15
4 -15 10 0 5 7 7 15 4 8 -4 15 -8 15 -10z m109 -34 c0 -10 -3 -8 -9 5 -12 27
-12 43 0 25 5 -8 9 -22 9 -30z m-37 12 c3 -11 0 -19 -7 -19 -7 0 -10 8 -7 19
2 10 6 18 7 18 1 0 5 -8 7 -18z m-432 -26 c0 -8 8 -16 18 -19 9 -2 1 -4 -19
-3 -30 0 -35 3 -31 18 5 21 32 24 32 4z m20 -81 c0 -9 -9 -15 -25 -15 -16 0
-25 6 -25 15 0 9 9 15 25 15 16 0 25 -6 25 -15z m82 0 c0 -5 -5 -11 -11 -13
-6 -2 -11 4 -11 13 0 9 5 15 11 13 6 -2 11 -8 11 -13z m-2755 -57 c-3 -8 -6
-5 -6 6 -1 11 2 17 5 13 3 -3 4 -12 1 -19z m2870 -35 c-3 -10 -5 -4 -5 12 0
17 2 24 5 18 2 -7 2 -21 0 -30z m-2982 -13 c3 -5 15 -10 26 -10 10 0 19 -5 19
-11 0 -5 4 -8 9 -4 16 9 120 13 123 5 2 -5 17 -11 33 -15 20 -5 26 -4 16 3
-21 15 4 23 35 11 23 -8 25 -12 14 -19 -20 -13 -500 -13 -500 0 0 20 44 31
116 28 54 -2 74 0 74 10 0 14 26 16 35 2z m2985 -24 c0 -3 -4 -8 -10 -11 -5
-3 -10 -1 -10 4 0 6 5 11 10 11 6 0 10 -2 10 -4z m-1383 -87 c13 -13 6 -39 -9
-39 -5 0 -7 4 -3 9 3 5 1 12 -5 16 -12 7 -13 25 -2 25 4 0 13 -5 19 -11z m48
-29 c3 -5 -1 -10 -9 -10 -9 0 -16 5 -16 10 0 6 4 10 9 10 6 0 13 -4 16 -10z
m-1285 -40 c0 -5 -5 -10 -11 -10 -5 0 -7 5 -4 10 3 6 8 10 11 10 2 0 4 -4 4
-10z m1878 -91 c-2 -6 -8 -10 -13 -10 -5 0 -11 4 -13 10 -2 6 4 11 13 11 9 0
15 -5 13 -11z m-1264 -93 c-4 -11 -9 -23 -13 -26 -3 -3 -6 -22 -6 -42 0 -31 4
-38 20 -38 17 0 17 2 5 10 -13 8 -13 10 1 10 9 0 19 -3 22 -7 12 -11 -27 -32
-62 -33 l-34 0 7 67 c8 79 9 81 41 81 21 0 24 -4 19 -22z m26 0 c0 -3 -4 -8
-10 -11 -5 -3 -10 -1 -10 4 0 6 5 11 10 11 6 0 10 -2 10 -4z m1296 -28 c8 -24
6 -101 -2 -130 -4 -12 -15 -18 -35 -18 -22 0 -29 -5 -29 -19 0 -27 -39 -91
-55 -91 -28 0 -28 48 0 176 20 91 24 101 35 83 7 -10 13 -9 32 4 32 22 45 21
54 -5z m-1846 -89 c0 -5 -4 -9 -10 -9 -5 0 -10 7 -10 16 0 8 5 12 10 9 6 -3
10 -10 10 -16z m836 -38 c-3 -5 0 -11 8 -14 15 -6 28 -57 15 -57 -5 0 -6 -6
-3 -14 3 -9 -1 -12 -13 -11 -33 4 -63 17 -63 27 0 5 -6 6 -12 2 -10 -5 -10 -4
-1 6 10 11 15 11 28 0 8 -7 18 -10 21 -7 4 3 -10 14 -29 23 -35 17 -43 40 -10
27 12 -5 14 -3 8 7 -5 9 -4 11 4 6 6 -4 9 -11 6 -16 -3 -5 -1 -11 5 -15 5 -3
10 -1 10 5 0 7 7 9 18 5 14 -5 15 -4 5 6 -16 16 -17 29 -2 29 5 0 8 -4 5 -9z
m-918 -33 c-5 -15 -78 -24 -78 -9 0 10 22 18 58 20 15 1 22 -4 20 -11z m652
-16 c0 -4 -9 -8 -20 -9 -11 -1 -20 2 -20 8 0 5 9 9 20 9 11 0 20 -4 20 -8z
m180 -21 c0 -5 -7 -12 -16 -15 -14 -5 -15 -4 -4 9 14 17 20 19 20 6z m-18 -73
c6 -13 5 -18 -6 -18 -9 0 -13 6 -10 14 3 8 0 17 -5 21 -6 3 -8 11 -4 18 5 8 8
7 11 -3 3 -8 9 -23 14 -32z m-644 5 c0 -5 2 -16 6 -25 4 -9 6 -24 4 -32 -3
-14 -6 -14 -30 -2 -17 9 -30 10 -36 4 -6 -6 -12 -6 -16 1 -4 6 0 11 8 11 9 0
16 5 16 11 0 7 8 18 18 25 19 15 33 18 30 7z m716 -24 c-2 -4 0 -10 6 -14 5
-3 10 -2 10 3 0 14 29 10 35 -5 5 -16 -15 -61 -28 -63 -13 -2 -58 55 -47 58 7
3 8 8 1 16 -7 8 -4 12 9 12 10 0 17 -4 14 -7z m1061 -9 c-28 -12 -37 -12 -30
0 3 6 16 10 28 9 21 0 21 -1 2 -9z m532 -145 c0 -8 -4 -15 -9 -15 -4 0 -8 7
-8 15 0 8 4 15 8 15 5 0 9 -7 9 -15z m-3082 -65 c17 -18 15 -50 -3 -50 -9 0
-32 43 -32 60 0 16 16 11 35 -10z m3205 -17 c0 -21 -3 -24 -9 -14 -5 8 -7 20
-4 28 8 21 13 15 13 -14z m-3413 -15 c-3 -8 -6 -5 -6 6 -1 11 2 17 5 13 3 -3
4 -12 1 -19z m353 1 c0 -6 -4 -7 -10 -4 -5 3 -10 11 -10 16 0 6 5 7 10 4 6 -3
10 -11 10 -16z m-171 -44 c1 -5 -6 -2 -15 7 -10 9 -13 21 -8 29 5 9 9 8 15 -7
4 -10 8 -23 8 -29z m3224 10 c4 -8 2 -17 -3 -20 -6 -4 -10 3 -10 14 0 25 6 27
13 6z m-2812 -16 c16 -25 10 -38 -20 -37 -29 1 -57 31 -46 49 9 14 55 6 66
-12z m-449 -21 c-9 -9 -15 -9 -24 0 -9 9 -7 12 12 12 19 0 21 -3 12 -12z
m3428 -41 c0 -18 -30 -31 -42 -19 -4 4 -3 20 4 34 10 21 15 23 25 12 7 -7 13
-19 13 -27z m-630 -71 c0 -12 -5 -7 -19 24 -11 24 -11 24 3 6 9 -11 16 -24 16
-30z m120 -6 c0 -5 -4 -10 -10 -10 -5 0 -10 5 -10 10 0 6 5 10 10 10 6 0 10
-4 10 -10z m180 -119 c0 -20 -13 -35 -23 -25 -7 8 4 44 14 44 5 0 9 -9 9 -19z
m195 -1 c-3 -5 -10 -10 -16 -10 -5 0 -9 5 -9 10 0 6 7 10 16 10 8 0 12 -4 9
-10z m-1659 -33 c23 -2 53 -13 68 -24 l26 -21 -30 -31 c-17 -17 -30 -36 -30
-42 0 -6 -14 -1 -30 11 -17 12 -27 26 -24 32 3 5 -3 18 -15 29 -12 11 -21 24
-21 29 0 6 -5 10 -11 10 -6 0 -9 -7 -5 -15 3 -9 0 -15 -9 -15 -8 0 -19 -8 -24
-17 -6 -10 -11 -13 -11 -7 0 5 6 16 12 22 10 10 10 15 -2 22 -9 6 -19 5 -24 0
-18 -18 -27 -11 -15 11 9 18 17 20 57 15 26 -3 66 -7 88 -9z m1521 -49 c-3 -7
-5 -2 -5 12 0 14 2 19 5 13 2 -7 2 -19 0 -25z m-1886 -88 c20 -11 25 -35 10
-45 -12 -7 -41 22 -41 41 0 17 5 17 31 4z m1169 -135 c14 -1 34 -3 45 -4 19
-1 19 -3 -4 -20 -13 -10 -21 -23 -17 -30 13 -21 -13 -11 -39 15 -17 17 -32 23
-44 19 -16 -5 -18 -2 -14 15 4 17 11 20 27 15 11 -4 32 -8 46 -10z m53 -89 c4
-10 1 -13 -9 -9 -15 6 -19 23 -5 23 5 0 11 -7 14 -14z m116 -2 c2 -2 2 -7 -2
-10 -8 -9 -47 6 -47 17 0 9 37 3 49 -7z m-72 -79 c9 -24 -1 -27 -15 -5 -8 13
-8 20 -2 20 6 0 13 -7 17 -15z m297 -10 c3 -8 1 -15 -3 -15 -5 0 -11 7 -15 15
-3 8 -1 15 3 15 5 0 11 -7 15 -15z m-314 -272 c0 -7 -5 -13 -12 -13 -19 0 -48
32 -48 52 0 17 2 17 30 -4 17 -12 30 -28 30 -35z m-573 -20 c-3 -10 -5 -4 -5
12 0 17 2 24 5 18 2 -7 2 -21 0 -30z m557 -66 c-2 -49 -2 -49 -26 -35 -13 7
-30 11 -38 10 -10 -1 -9 2 4 11 11 6 26 20 35 29 23 24 26 22 25 -15z m-474
-97 c0 -5 -5 -10 -11 -10 -5 0 -7 5 -4 10 3 6 8 10 11 10 2 0 4 -4 4 -10z
m405 -1060 c16 -31 11 -65 -6 -39 -6 10 -9 7 -9 -11 -1 -23 -3 -21 -21 13 -20
37 -20 39 -2 53 23 17 20 19 38 -16z m-115 -129 c0 -29 -21 6 -25 40 l-4 34
14 -30 c8 -16 14 -37 15 -44z m2010 -274 c0 -2 -17 -19 -37 -38 l-38 -34 34
38 c33 34 41 42 41 34z m33 -41 c-10 -13 -20 -22 -22 -20 -4 4 29 44 36 44 2
0 -4 -11 -14 -24z"/>
<path d="M3778 2483 c7 -3 16 -2 19 1 4 3 -2 6 -13 5 -11 0 -14 -3 -6 -6z"/>
<path d="M3505 4980 c3 -5 28 -10 55 -10 27 0 52 5 55 10 4 6 -17 10 -55 10
-38 0 -59 -4 -55 -10z"/>
<path d="M3118 4653 c6 -2 18 -2 25 0 6 3 1 5 -13 5 -14 0 -19 -2 -12 -5z"/>
<path d="M3766 4491 c-4 -7 -5 -15 -2 -18 9 -9 19 4 14 18 -4 11 -6 11 -12 0z"/>
<path d="M3250 4430 c-11 -20 -13 -320 -3 -320 3 0 12 8 19 18 16 20 18 62 4
62 -6 0 -10 38 -10 95 0 57 4 95 10 95 6 0 10 16 10 35 0 39 -14 46 -30 15z"/>
<path d="M3310 4352 c0 -14 6 -22 16 -22 14 0 15 3 3 18 -7 9 -15 19 -16 21
-2 2 -3 -5 -3 -17z"/>
<path d="M3820 4360 c-21 -7 -19 -8 18 -9 23 -1 42 4 42 9 0 12 -24 12 -60 0z"/>
<path d="M3835 4220 c-19 -8 -19 -9 3 -9 20 -1 22 -6 22 -55 0 -84 -11 -146
-26 -146 -8 0 -11 -6 -8 -15 4 -10 0 -15 -11 -15 -13 0 -16 -6 -13 -25 4 -19
-2 -32 -25 -51 -32 -27 -32 -33 6 -39 16 -3 25 0 24 8 -1 32 4 48 13 42 6 -3
10 3 10 14 0 12 6 21 13 21 7 0 14 12 15 27 1 15 7 30 12 33 16 10 8 221 -8
219 -4 0 -16 -4 -27 -9z"/>
<path d="M3348 4198 c7 -7 12 -22 12 -35 0 -13 5 -23 10 -23 10 0 14 14 11 38
-1 7 10 12 28 12 16 0 33 5 36 10 4 6 -16 10 -51 10 -45 0 -55 -3 -46 -12z"/>
<path d="M3341 4082 c-38 -6 -60 -33 -54 -64 4 -21 11 -28 29 -28 16 0 24 6
25 18 0 10 3 12 6 5 2 -7 12 -13 22 -13 12 0 16 8 15 36 -2 42 -11 51 -43 46z"/>
<path d="M3404 3995 c4 -22 18 -48 32 -60 13 -11 24 -24 24 -29 0 -9 26 -36
34 -36 14 0 4 27 -14 40 -11 8 -20 25 -20 38 0 12 -7 25 -15 28 -8 4 -15 12
-15 19 0 7 -7 19 -17 26 -15 13 -15 11 -9 -26z"/>
<path d="M3510 3860 c0 -6 8 -14 18 -17 9 -4 19 -10 22 -14 3 -5 38 -10 77
-12 54 -3 73 -1 77 10 3 7 9 13 13 12 18 -3 33 2 33 10 0 17 -29 20 -44 6 -21
-22 -156 -21 -156 0 0 8 -9 15 -20 15 -11 0 -20 -5 -20 -10z"/>
</g>
</svg>
