<?xml version="1.0" encoding="UTF-8"?>
<svg version="1.1" xmlns="http://www.w3.org/2000/svg" width="400" height="218">
<path d="M0 0 C6.6 0 13.2 0 20 0 C20 48.51 20 97.02 20 147 C22.31 147 24.62 147 27 147 C27 148.98 27 150.96 27 153 C22.71 153 18.42 153 14 153 C13.67 152.01 13.34 151.02 13 150 C12.2575 150.474375 11.515 150.94875 10.75 151.4375 C5.67700184 154.31988532 0.75813221 154.79233348 -5.01953125 153.57421875 C-10.52740924 151.85761433 -13.90109022 148.83587832 -17 144 C-19.0404579 139.82751558 -19.25805663 136.37124148 -19.2746582 131.75048828 C-19.27976913 131.03923798 -19.28488007 130.32798767 -19.29014587 129.59518433 C-19.30399935 127.2534738 -19.30308817 124.91205904 -19.30078125 122.5703125 C-19.30467086 120.9351287 -19.30900608 119.2999459 -19.31376648 117.6647644 C-19.32121982 114.24018069 -19.32094411 110.81570009 -19.31567383 107.39111328 C-19.30988408 103.01426574 -19.32680234 98.63784204 -19.3500185 94.26106453 C-19.36479045 90.88432367 -19.36562278 87.50768404 -19.36250877 84.1309166 C-19.36302037 82.51786333 -19.36822764 80.90480415 -19.37832069 79.29178238 C-19.39073371 77.03034637 -19.38386485 74.76972491 -19.37231445 72.50830078 C-19.37294388 71.22432404 -19.3735733 69.94034729 -19.3742218 68.61746216 C-18.68723038 61.97657305 -16.18088236 57.33748291 -11 53 C-5.00385043 48.85980149 -2.33225346 50 6 50 C6.33 35.48 6.66 20.96 7 6 C4.69 6 2.38 6 0 6 C0 4.02 0 2.04 0 0 Z M-4.69548035 63.09020996 C-6.68864804 66.00816662 -6.37403564 68.49086002 -6.37231445 71.99414062 C-6.37596512 72.70177048 -6.37961578 73.40940033 -6.38337708 74.13847351 C-6.39148424 76.47797635 -6.37787172 78.81678689 -6.36328125 81.15625 C-6.36276266 82.78145345 -6.36328032 84.40665753 -6.36479187 86.03186035 C-6.36470214 89.4381649 -6.35427119 92.84423282 -6.33618164 96.25048828 C-6.31349436 100.61875593 -6.31295025 104.98667775 -6.31969929 109.3549881 C-6.32303932 112.71098916 -6.31640854 116.06691125 -6.30657005 119.42289734 C-6.30271835 121.03366177 -6.30156971 122.64443499 -6.3031559 124.25520325 C-6.30352639 126.5055925 -6.2909114 128.75553689 -6.2746582 131.00585938 C-6.27005081 132.28698608 -6.26544342 133.56811279 -6.26069641 134.88806152 C-6.23854099 138.16576777 -6.23854099 138.16576777 -4 141 C-0.83087902 141.89562115 1.17702854 142.28915213 4.3125 141.1875 C6.15097822 140.09312675 6.15097822 140.09312675 7 138 C7.10749907 135.74427148 7.14892009 133.48530632 7.16113281 131.22705078 C7.16609772 130.53092682 7.17106262 129.83480286 7.17617798 129.11758423 C7.19080649 126.81015033 7.19760272 124.50278519 7.203125 122.1953125 C7.20887591 120.59349566 7.21463365 118.99167885 7.22039795 117.38986206 C7.23090991 114.02894774 7.23675129 110.66805736 7.24023438 107.30712891 C7.24571943 103.00054885 7.26974665 98.69428493 7.29820633 94.38780403 C7.31683034 91.07810543 7.32203818 87.768483 7.32357025 84.45873642 C7.32659788 82.87110541 7.33463015 81.28347578 7.34775543 79.69589615 C7.36481144 77.4742656 7.36293721 75.25340775 7.35644531 73.03173828 C7.36009094 71.76758087 7.36373657 70.50342346 7.36749268 69.20095825 C6.97414642 65.77480851 6.50329946 64.34303245 4 62 C-0.56070511 61.40248311 -0.56070511 61.40248311 -4.69548035 63.09020996 Z " fill="#020D1E" transform="translate(260,55)"/>
<path d="M0 0 C2.99052017 2.06738363 4.34625464 4.29124148 6.11328125 7.4609375 C6.35656738 10.75216675 6.35656738 10.75216675 5.99023438 14.31201172 C5.92866402 14.96084761 5.86709366 15.60968349 5.80365753 16.27818108 C5.59928454 18.34280054 5.36014233 20.40099949 5.11328125 22.4609375 C4.96560303 23.76822815 4.8179248 25.0755188 4.66577148 26.42242432 C4.18041304 30.56864471 3.63342788 34.70588339 3.08203125 38.84375 C2.88370929 40.35728259 2.68575957 41.870864 2.48815918 43.38449097 C2.07750976 46.52266532 1.66381315 49.66041585 1.24755859 52.79785156 C0.71521902 56.8106599 0.18859812 60.82419242 -0.33603668 64.8380146 C-0.7429124 67.94889682 -1.15168471 71.05952725 -1.56114197 74.17007065 C-1.75602978 75.65075177 -1.950584 77.13147685 -2.14479065 78.61224747 C-2.41572764 80.67419049 -2.68895626 82.7358166 -2.96289062 84.79736328 C-3.11753784 85.96679474 -3.27218506 87.1362262 -3.43151855 88.34109497 C-3.83021088 91.07364492 -4.31348065 93.76036584 -4.88671875 96.4609375 C-9.17493482 92.44861769 -12.50362158 88.06120943 -15.88671875 83.2734375 C-17.04150857 81.6561371 -18.19646106 80.03895285 -19.3515625 78.421875 C-19.9379248 77.5978418 -20.52428711 76.77380859 -21.12841797 75.92480469 C-23.34733457 72.81548695 -25.58840468 69.72259128 -27.83105469 66.63037109 C-33.64366996 58.6130312 -39.40575942 50.56140037 -45.07421875 42.44140625 C-46.87968453 39.86190297 -48.72909731 37.32900266 -50.63671875 34.82421875 C-58.31271971 24.61477368 -58.31271971 24.61477368 -57.5625 18.5234375 C-55.88099248 13.39143766 -53.17068977 9.84654658 -48.54296875 7.0390625 C-42.92140453 4.5058885 -38.8541824 3.94378572 -32.88671875 5.4609375 C-29.88671875 7.0234375 -29.88671875 7.0234375 -27.88671875 8.4609375 C-27.46261719 7.91824219 -27.03851563 7.37554687 -26.6015625 6.81640625 C-18.93677697 -2.53294753 -11.41671757 -4.74513661 0 0 Z " fill="#EF9205" transform="translate(103.88671875,2.5390625)"/>
<path d="M0 0 C6.6 0 13.2 0 20 0 C20 16.83 20 33.66 20 51 C20.99 50.505 20.99 50.505 22 50 C29.17687302 49.27398134 34.20480421 49.5956512 40 54 C44.60826895 58.59626825 46.11179839 62.17660765 46.12442017 68.70401001 C46.12082489 69.47868622 46.11722961 70.25336243 46.11352539 71.05151367 C46.11367142 71.87125168 46.11381744 72.69098969 46.1139679 73.53556824 C46.11327096 76.24639528 46.10548878 78.9571537 46.09765625 81.66796875 C46.09579129 83.54698143 46.09436776 85.4259946 46.09336853 87.30500793 C46.08954948 92.25175315 46.07972438 97.19846902 46.06866455 102.14520264 C46.0584373 107.19250085 46.05386809 112.23980379 46.04882812 117.28710938 C46.03810159 127.19141914 46.02103248 137.09570713 46 147 C48.64 147 51.28 147 54 147 C54 148.98 54 150.96 54 153 C47.4 153 40.8 153 34 153 C33.970271 149.17692261 33.970271 149.17692261 33.93994141 145.27661133 C33.87302826 136.85471518 33.79538875 128.43294251 33.71247292 120.01118946 C33.66253162 114.90519235 33.61620128 109.79921571 33.578125 104.69311523 C33.54124498 99.76525594 33.49487743 94.83756881 33.44193649 89.9098568 C33.42340703 88.0300365 33.40829372 86.15017932 33.39665604 84.27030373 C33.37976891 81.63681034 33.35072781 79.00370999 33.31884766 76.37036133 C33.31668747 75.59352493 33.31452728 74.81668854 33.31230164 74.01631165 C33.24888876 69.91463971 32.83083513 66.69288254 31 63 C28.36 63 25.72 63 23 63 C20.44322116 66.85630557 20.69334054 70.89252444 20.68115234 75.34863281 C20.67110672 76.18802399 20.6610611 77.02741516 20.65071106 77.89224243 C20.6198577 80.66252975 20.60283794 83.43272033 20.5859375 86.203125 C20.56722759 88.1255578 20.54765431 90.04798237 20.5272522 91.97039795 C20.47590636 97.02721305 20.43629371 102.08405479 20.39910889 107.14099121 C20.35908465 112.30239463 20.30798509 117.46368702 20.2578125 122.625 C20.16102409 132.7499298 20.07765224 142.87490533 20 153 C13.4 153 6.8 153 0 153 C0 151.02 0 149.04 0 147 C2.64 147 5.28 147 8 147 C8 100.47 8 53.94 8 6 C5.36 6 2.72 6 0 6 C0 4.02 0 2.04 0 0 Z " fill="#020E1E" transform="translate(121,55)"/>
<path d="M0 0 C5.08739996 2.64945556 9.03569679 6.86880912 10.84765625 12.3046875 C10.93887756 14.99740036 10.97367759 17.66369175 10.96118164 20.35620117 C10.96132767 21.17593918 10.96147369 21.99567719 10.96162415 22.84025574 C10.96092721 25.55108278 10.95314503 28.2618412 10.9453125 30.97265625 C10.94344754 32.85166893 10.94202401 34.7306821 10.94102478 36.60969543 C10.93720573 41.55644065 10.92738063 46.50315652 10.9163208 51.44989014 C10.90609355 56.49718835 10.90152434 61.54449129 10.89648438 66.59179688 C10.88575784 76.49610664 10.86868873 86.40039463 10.84765625 96.3046875 C13.15765625 96.3046875 15.46765625 96.3046875 17.84765625 96.3046875 C17.84765625 98.2846875 17.84765625 100.2646875 17.84765625 102.3046875 C11.57765625 102.3046875 5.30765625 102.3046875 -1.15234375 102.3046875 C-1.18207275 98.48161011 -1.18207275 98.48161011 -1.21240234 94.58129883 C-1.27931549 86.15940268 -1.356955 77.73763001 -1.43987083 69.31587696 C-1.48981213 64.20987985 -1.53614247 59.10390321 -1.57421875 53.99780273 C-1.61109877 49.06994344 -1.65746632 44.14225631 -1.71040726 39.2145443 C-1.72893672 37.334724 -1.74405003 35.45486682 -1.75568771 33.57499123 C-1.77257484 30.94149784 -1.80161594 28.30839749 -1.83349609 25.67504883 C-1.83565628 24.89821243 -1.83781647 24.12137604 -1.84004211 23.32099915 C-1.90345499 19.21932721 -2.32150862 15.99757004 -4.15234375 12.3046875 C-6.79234375 12.3046875 -9.43234375 12.3046875 -12.15234375 12.3046875 C-14.70912259 16.16099307 -14.45900321 20.19721194 -14.47119141 24.65332031 C-14.48123703 25.49271149 -14.49128265 26.33210266 -14.50163269 27.19692993 C-14.53248605 29.96721725 -14.54950581 32.73740783 -14.56640625 35.5078125 C-14.58511616 37.4302453 -14.60468944 39.35266987 -14.62509155 41.27508545 C-14.67643739 46.33190055 -14.71605004 51.38874229 -14.75323486 56.44567871 C-14.7932591 61.60708213 -14.84435866 66.76837452 -14.89453125 71.9296875 C-14.99131966 82.0546173 -15.07469151 92.17959283 -15.15234375 102.3046875 C-21.75234375 102.3046875 -28.35234375 102.3046875 -35.15234375 102.3046875 C-35.15234375 100.3246875 -35.15234375 98.3446875 -35.15234375 96.3046875 C-32.51234375 96.3046875 -29.87234375 96.3046875 -27.15234375 96.3046875 C-27.15234375 66.2746875 -27.15234375 36.2446875 -27.15234375 5.3046875 C-29.79234375 5.3046875 -32.43234375 5.3046875 -35.15234375 5.3046875 C-35.15234375 3.6546875 -35.15234375 2.0046875 -35.15234375 0.3046875 C-30.86234375 0.3046875 -26.57234375 0.3046875 -22.15234375 0.3046875 C-21.82234375 1.2946875 -21.49234375 2.2846875 -21.15234375 3.3046875 C-19.79109375 2.3146875 -19.79109375 2.3146875 -18.40234375 1.3046875 C-12.84678165 -1.85701451 -6.03395624 -1.94926354 0 0 Z " fill="#020D1E" transform="translate(382.15234375,105.6953125)"/>
<path d="M0 0 C4.83166937 3.59566092 9.61159049 7.87738278 10.6875 14 C10.77082859 16.6916032 10.80379936 19.3560833 10.78515625 22.046875 C10.7837413 22.81807678 10.78232635 23.58927856 10.78086853 24.3838501 C10.77528534 26.83927338 10.76273595 29.29460442 10.75 31.75 C10.74498283 33.41796743 10.7404203 35.08593629 10.73632812 36.75390625 C10.72617366 40.83600136 10.70659507 44.9178978 10.6875 49 C2.1075 49 -6.4725 49 -15.3125 49 C-15.19276527 54.37532532 -15.07018844 59.75042429 -14.94018555 65.12548828 C-14.89681435 66.95487575 -14.85514089 68.78430427 -14.81518555 70.61376953 C-14.75753582 73.24003486 -14.69382635 75.8660931 -14.62890625 78.4921875 C-14.61219376 79.31306854 -14.59548126 80.13394958 -14.57826233 80.97970581 C-14.5693613 85.1233696 -14.5693613 85.1233696 -13.3125 89 C-9.75557323 89.85056945 -7.81979422 90.16909807 -4.3125 89 C-2.96158472 86.29816945 -2.97391942 83.88191794 -2.75 80.875 C-2.605625 78.93625 -2.46125 76.9975 -2.3125 75 C1.9775 75 6.2675 75 10.6875 75 C11.23259284 90.98938992 11.23259284 90.98938992 6.140625 96.75 C1.61045327 100.91936159 -2.51474976 102.74094905 -8.6875 103.3125 C-14.91783506 102.77540215 -19.43881728 101.36987924 -23.6875 96.625 C-27.75773019 91.64522116 -28.56429439 87.11422417 -28.5871582 80.75048828 C-28.59226913 80.03923798 -28.59738007 79.32798767 -28.60264587 78.59518433 C-28.61649935 76.2534738 -28.61558817 73.91205904 -28.61328125 71.5703125 C-28.61717086 69.9351287 -28.62150608 68.2999459 -28.62626648 66.6647644 C-28.63371982 63.24018069 -28.63344411 59.81570009 -28.62817383 56.39111328 C-28.62238408 52.01426574 -28.63930234 47.63784204 -28.6625185 43.26106453 C-28.67729045 39.88432367 -28.67812278 36.50768404 -28.67500877 33.1309166 C-28.67552037 31.51786333 -28.68072764 29.90480415 -28.69082069 28.29178238 C-28.70323371 26.03034637 -28.69636485 23.76972491 -28.68481445 21.50830078 C-28.68544388 20.22432404 -28.6860733 18.94034729 -28.6867218 17.61746216 C-27.99578821 10.93846564 -25.46199603 6.41385374 -20.3125 2 C-14.13024188 -2.36022975 -7.10209495 -2.14402866 0 0 Z M-14.01293945 12.11254883 C-15.95732794 14.93653293 -15.64996382 17.24026206 -15.60546875 20.63671875 C-15.59580078 21.93544922 -15.58613281 23.23417969 -15.57617188 24.57226562 C-15.55110585 25.94401639 -15.52571101 27.31576118 -15.5 28.6875 C-15.4849502 30.07094924 -15.4712623 31.45441401 -15.45898438 32.83789062 C-15.42357458 36.22542726 -15.36976701 39.61276237 -15.3125 43 C-11.0225 43 -6.7325 43 -2.3125 43 C-2.23171704 38.41631522 -2.17209638 33.83404807 -2.125 29.25 C-2.09986328 27.94804687 -2.07472656 26.64609375 -2.04882812 25.3046875 C-2.03916016 24.05429688 -2.02949219 22.80390625 -2.01953125 21.515625 C-2.0038208 20.36352539 -1.98811035 19.21142578 -1.97192383 18.02441406 C-2.34778962 14.68661805 -2.89380217 13.30444778 -5.3125 11 C-9.88323628 10.39778006 -9.88323628 10.39778006 -14.01293945 12.11254883 Z " fill="#020E1F" transform="translate(325.3125,106)"/>
<path d="M0 0 C5.54513649 4.09283884 8.78176534 8.25517025 10.625 14.9375 C10.78701097 17.6505741 10.85953053 20.25305684 10.8203125 22.9609375 C10.8174826 23.70711334 10.81465271 24.45328918 10.81173706 25.22207642 C10.80061687 27.58571988 10.77552821 29.94897268 10.75 32.3125 C10.73995962 33.92317158 10.73083562 35.53384915 10.72265625 37.14453125 C10.7024129 41.07578937 10.66325037 45.00621171 10.625 48.9375 C2.045 48.9375 -6.535 48.9375 -15.375 48.9375 C-15.25526527 54.31282532 -15.13268844 59.68792429 -15.00268555 65.06298828 C-14.95931435 66.89237575 -14.91764089 68.72180427 -14.87768555 70.55126953 C-14.82003582 73.17753486 -14.75632635 75.8035931 -14.69140625 78.4296875 C-14.67469376 79.25056854 -14.65798126 80.07144958 -14.64076233 80.91720581 C-14.6318613 85.0608696 -14.6318613 85.0608696 -13.375 88.9375 C-9.81807323 89.78806945 -7.88229422 90.10659807 -4.375 88.9375 C-3.37240493 85.92971479 -3.07185358 83.39929353 -2.8125 80.25 C-2.5959375 77.6203125 -2.5959375 77.6203125 -2.375 74.9375 C1.915 74.9375 6.205 74.9375 10.625 74.9375 C11.02686137 91.21288557 11.02686137 91.21288557 5.23828125 97.58203125 C1.08903222 101.06820417 -3.61645593 102.72153845 -8.9375 103.375 C-16.12210902 102.46059522 -20.52230067 100.51147293 -25.1484375 94.8515625 C-28.15879971 90.15386351 -28.63296654 86.15219375 -28.66552734 80.61206055 C-28.67224457 79.89266296 -28.67896179 79.17326538 -28.68588257 78.43206787 C-28.70482111 76.06271381 -28.70878479 73.69364371 -28.7109375 71.32421875 C-28.7173689 69.66901027 -28.72409751 68.01380292 -28.73110962 66.3585968 C-28.74307244 62.89113735 -28.74679153 59.42377745 -28.74560547 55.95629883 C-28.74540247 51.52788322 -28.77268892 47.10011073 -28.80714989 42.67184734 C-28.82946375 39.25302743 -28.83344162 35.83436111 -28.83238602 32.41547585 C-28.83473583 30.7836975 -28.84352425 29.15191453 -28.85905075 27.52020836 C-28.99600794 11.63886302 -28.99600794 11.63886302 -24.375 4.9375 C-17.34689851 -1.73919641 -9.24117951 -2.90926022 0 0 Z M-14.06176758 12.05004883 C-16.00978968 14.84985528 -15.81284662 17.1908753 -15.88671875 20.57421875 C-15.92216797 21.87294922 -15.95761719 23.17167969 -15.99414062 24.50976562 C-16.0172405 25.88150517 -16.0400229 27.2532501 -16.0625 28.625 C-16.09567542 30.00849607 -16.13016531 31.39196129 -16.16601562 32.77539062 C-16.2486273 36.16246933 -16.31348572 39.54997246 -16.375 42.9375 C-11.755 42.9375 -7.135 42.9375 -2.375 42.9375 C-2.29421704 38.35381522 -2.23459638 33.77154807 -2.1875 29.1875 C-2.16236328 27.88554687 -2.13722656 26.58359375 -2.11132812 25.2421875 C-2.10166016 23.99179688 -2.09199219 22.74140625 -2.08203125 21.453125 C-2.0663208 20.30102539 -2.05061035 19.14892578 -2.03442383 17.96191406 C-2.41028962 14.62411805 -2.95630217 13.24194778 -5.375 10.9375 C-9.94072206 10.33177511 -9.94072206 10.33177511 -14.06176758 12.05004883 Z " fill="#020E1E" transform="translate(215.375,106.0625)"/>
<path d="M0 0 C4.71237559 2.68052134 7.95035893 6.16357679 9.6875 11.375 C9.75720052 13.76990986 9.77198003 16.16667691 9.75 18.5625 C9.74097656 19.83480469 9.73195312 21.10710937 9.72265625 22.41796875 C9.71105469 23.39378906 9.69945312 24.36960937 9.6875 25.375 C5.7275 25.375 1.7675 25.375 -2.3125 25.375 C-2.54036458 22.90104167 -2.76822917 20.42708333 -2.99609375 17.953125 C-3.27488465 15.68149548 -3.70040577 13.57648177 -4.3125 11.375 C-8.3225934 11.19635369 -8.3225934 11.19635369 -12.3125 11.375 C-16.0360021 15.0985021 -15.50532775 19.74250704 -15.62890625 24.765625 C-15.64968735 25.47023865 -15.67046844 26.17485229 -15.69187927 26.90081787 C-15.75703837 29.14211681 -15.81610248 31.38352864 -15.875 33.625 C-15.91821726 35.14844897 -15.96183257 36.67188671 -16.00585938 38.1953125 C-16.11268491 41.92175591 -16.21404639 45.64832494 -16.3125 49.375 C-14.0025 49.375 -11.6925 49.375 -9.3125 49.375 C-9.269779 51.04111905 -9.27186168 52.70882885 -9.3125 54.375 C-9.6425 54.705 -9.9725 55.035 -10.3125 55.375 C-11.9625 55.375 -13.6125 55.375 -15.3125 55.375 C-15.6425 85.075 -15.9725 114.775 -16.3125 145.375 C-13.6725 145.375 -11.0325 145.375 -8.3125 145.375 C-8.3125 147.355 -8.3125 149.335 -8.3125 151.375 C-17.2225 151.375 -26.1325 151.375 -35.3125 151.375 C-35.3125 149.395 -35.3125 147.415 -35.3125 145.375 C-33.0025 145.375 -30.6925 145.375 -28.3125 145.375 C-28.6425 115.675 -28.9725 85.975 -29.3125 55.375 C-31.2925 55.375 -33.2725 55.375 -35.3125 55.375 C-35.3125 53.395 -35.3125 51.415 -35.3125 49.375 C-33.0025 49.375 -30.6925 49.375 -28.3125 49.375 C-28.33868408 48.26576172 -28.36486816 47.15652344 -28.3918457 46.01367188 C-28.48285419 41.86902308 -28.53993163 37.72446125 -28.5871582 33.57910156 C-28.61218775 31.79053864 -28.64622244 30.00207683 -28.68969727 28.21386719 C-28.75086411 25.63190677 -28.77882445 23.05130678 -28.80078125 20.46875 C-28.82658768 19.67883667 -28.8523941 18.88892334 -28.87898254 18.07507324 C-28.88196528 12.07111004 -27.14649588 8.0041621 -23.3125 3.375 C-16.36620482 -2.04311024 -8.23595395 -3.77350742 0 0 Z " fill="#020D1E" transform="translate(35.3125,56.625)"/>
<path d="M0 0 C5.08275397 2.66398728 9.03010386 6.86765532 10.84375 12.30859375 C10.91345052 14.70350361 10.92823003 17.10027066 10.90625 19.49609375 C10.89722656 20.76839844 10.88820312 22.04070312 10.87890625 23.3515625 C10.86730469 24.32738281 10.85570312 25.30320313 10.84375 26.30859375 C6.88375 26.30859375 2.92375 26.30859375 -1.15625 26.30859375 C-1.35541016 24.91833984 -1.35541016 24.91833984 -1.55859375 23.5 C-1.73519531 22.30246094 -1.91179687 21.10492188 -2.09375 19.87109375 C-2.26777344 18.67613281 -2.44179687 17.48117188 -2.62109375 16.25 C-2.84610213 13.42903699 -2.84610213 13.42903699 -4.15625 12.30859375 C-6.82683851 12.16744214 -9.48057238 12.26612268 -12.15625 12.30859375 C-14.23489512 16.57433082 -14.46113667 20.4701847 -14.47509766 25.12817383 C-14.48514328 25.89943604 -14.4951889 26.67069824 -14.50553894 27.46533203 C-14.53631606 30.00292243 -14.55339071 32.54040758 -14.5703125 35.078125 C-14.58902856 36.84218752 -14.6086023 38.60624113 -14.6289978 40.37028503 C-14.68027873 45.00457501 -14.71992606 49.638894 -14.75714111 54.27331543 C-14.79720609 59.00585076 -14.84828706 63.73826583 -14.8984375 68.47070312 C-14.99514896 77.74991546 -15.07956905 87.02919578 -15.15625 96.30859375 C-12.51625 96.30859375 -9.87625 96.30859375 -7.15625 96.30859375 C-7.15625 98.28859375 -7.15625 100.26859375 -7.15625 102.30859375 C-16.39625 102.30859375 -25.63625 102.30859375 -35.15625 102.30859375 C-35.15625 100.32859375 -35.15625 98.34859375 -35.15625 96.30859375 C-32.51625 96.30859375 -29.87625 96.30859375 -27.15625 96.30859375 C-27.15625 66.27859375 -27.15625 36.24859375 -27.15625 5.30859375 C-29.79625 5.30859375 -32.43625 5.30859375 -35.15625 5.30859375 C-35.15625 3.65859375 -35.15625 2.00859375 -35.15625 0.30859375 C-30.53625 0.30859375 -25.91625 0.30859375 -21.15625 0.30859375 C-20.82625 0.96859375 -20.49625 1.62859375 -20.15625 2.30859375 C-19.41375 1.81359375 -18.67125 1.31859375 -17.90625 0.80859375 C-12.54929984 -1.85079481 -5.63113552 -1.80563585 0 0 Z " fill="#020D1E" transform="translate(73.15625,105.69140625)"/>
<path d="M0 0 C6.6 0 13.2 0 20 0 C20 31.68 20 63.36 20 96 C22.64 96 25.28 96 28 96 C28 97.98 28 99.96 28 102 C18.76 102 9.52 102 0 102 C0 100.02 0 98.04 0 96 C2.64 96 5.28 96 8 96 C8 65.97 8 35.94 8 5 C5.36 5 2.72 5 0 5 C0 3.35 0 1.7 0 0 Z " fill="#030E1E" transform="translate(86,106)"/>
<path d="M0 0 C4.05402834 3.67304736 6.96929879 8.02909077 10.0625 12.5 C11.11540784 14.01074962 12.16877854 15.52117679 13.22265625 17.03125 C13.68422119 17.69705078 14.14578613 18.36285156 14.62133789 19.04882812 C15.99611859 21.0468392 15.99611859 21.0468392 17.65600586 23.00219727 C21.64073947 28.92537168 18.35609657 40.37954797 17.5 47.0625 C17.28537109 48.79016602 17.28537109 48.79016602 17.06640625 50.55273438 C16.71581648 53.36913886 16.36024128 56.18481659 16 59 C15.34 59 14.68 59 14 59 C12.65893555 57.35107422 12.65893555 57.35107422 11.13671875 55.0546875 C10.30043945 53.80945313 10.30043945 53.80945313 9.44726562 52.5390625 C8.86654297 51.65992188 8.28582031 50.78078125 7.6875 49.875 C6.54855866 48.1620735 5.40668515 46.45109257 4.26171875 44.7421875 C3.71314209 43.91960449 3.16456543 43.09702148 2.59936523 42.24951172 C1.19651035 40.27639236 -0.26663727 38.57058915 -1.921875 36.8125 C-4.57518626 33.22155243 -4.43162669 31.50977466 -3.9375 27.125 C-3.73447266 25.17207031 -3.73447266 25.17207031 -3.52734375 23.1796875 C-3.35259577 21.78632836 -3.17678473 20.39310219 -3 19 C-2.83301675 17.52361968 -2.66766437 16.04705403 -2.50390625 14.5703125 C-1.26393178 3.79179534 -1.26393178 3.79179534 0 0 Z " fill="#FEDB1B" transform="translate(80,27)"/>
<path d="M0 0 C7.38058888 2.76117775 7.38058888 2.76117775 9 6 C8.76933587 14.26986214 7.4950733 22.55254192 6.4375 30.75 C6.29892578 31.84054688 6.16035156 32.93109375 6.01757812 34.0546875 C5.68067711 36.7034265 5.34145904 39.35184543 5 42 C0.4175092 37.7528134 -3.08268565 32.96174822 -6.6875 27.875 C-7.26822266 27.06417969 -7.84894531 26.25335937 -8.44726562 25.41796875 C-15.55950203 15.46906002 -15.55950203 15.46906002 -15.4609375 10.13671875 C-14.61684071 6.22382939 -11.9177214 3.60780798 -9 1 C-5.87143524 -0.56428238 -3.47287869 -0.28007086 0 0 Z " fill="#D10518" transform="translate(96,5)"/>
<path d="M0 0 C3.11136437 1.31921849 5.45172016 2.90344031 7 6 C6.96117581 8.31451931 6.84209376 10.62782303 6.6875 12.9375 C6.64117432 13.63101562 6.59484863 14.32453125 6.54711914 15.0390625 C5.93194076 23.71490106 4.96756477 32.35767391 4 41 C3.34 41 2.68 41 2 41 C0.39033604 38.9704237 -1.0962901 36.94281673 -2.5625 34.8125 C-3.21871338 33.8687854 -3.21871338 33.8687854 -3.88818359 32.90600586 C-4.80213223 31.59160903 -5.71420875 30.27590868 -6.62451172 28.95898438 C-7.93842574 27.08769469 -9.28963474 25.25195731 -10.66015625 23.421875 C-11.07515381 22.85621826 -11.49015137 22.29056152 -11.91772461 21.70776367 C-13.06488547 20.14442352 -14.22354369 18.58953918 -15.3828125 17.03515625 C-17.32708648 13.3861203 -17.43998284 11.08071994 -17 7 C-12.53389776 0.06984135 -7.8204892 -1.02006381 0 0 Z " fill="#0757A0" transform="translate(69,13)"/>
<path d="M0 0 C10.89 0 21.78 0 33 0 C33 0.66 33 1.32 33 2 C32.34 2 31.68 2 31 2 C33.475 7.445 33.475 7.445 36 13 C37.65 9.37 39.3 5.74 41 2 C40.34 2 39.68 2 39 2 C39 1.34 39 0.68 39 0 C41.31 0 43.62 0 46 0 C46 0.66 46 1.32 46 2 C45.34 2.33 44.68 2.66 44 3 C43.06765643 4.82164603 43.06765643 4.82164603 42.2734375 7.03515625 C41.9640625 7.84404297 41.6546875 8.65292969 41.3359375 9.48632812 C40.86027344 10.7615332 40.86027344 10.7615332 40.375 12.0625 C40.05015625 12.91650391 39.7253125 13.77050781 39.390625 14.65039062 C38.58744885 16.76463372 37.79089786 18.88113975 37 21 C36.01 21 35.02 21 34 21 C32.82905995 18.2100561 31.66309073 15.41821403 30.5 12.625 C30.16613281 11.8309375 29.83226562 11.036875 29.48828125 10.21875 C29.17246094 9.45820312 28.85664063 8.69765625 28.53125 7.9140625 C28.23798828 7.2123291 27.94472656 6.5105957 27.64257812 5.78759766 C27 4 27 4 27 2 C25.68 2 24.36 2 23 2 C23 7.61 23 13.22 23 19 C23.99 19 24.98 19 26 19 C26 19.66 26 20.32 26 21 C22.7 21 19.4 21 16 21 C16 20.34 16 19.68 16 19 C16.99 19 17.98 19 19 19 C19 13.39 19 7.78 19 2 C18.34 2 17.68 2 17 2 C17 3.32 17 4.64 17 6 C16.34 6 15.68 6 15 6 C15 5.01 15 4.02 15 3 C13.35 3 11.7 3 10 3 C10 8.28 10 13.56 10 19 C10.99 19 11.98 19 13 19 C13 19.66 13 20.32 13 21 C9.7 21 6.4 21 3 21 C3 20.34 3 19.68 3 19 C3.99 19 4.98 19 6 19 C6 13.72 6 8.44 6 3 C4.68 3 3.36 3 2 3 C1.67 3.99 1.34 4.98 1 6 C0.34 6 -0.32 6 -1 6 C-0.67 4.02 -0.34 2.04 0 0 Z " fill="#1A171A" transform="translate(156,55)"/>
<path d="M0 0 C3.3 0 6.6 0 10 0 C10 0.66 10 1.32 10 2 C9.01 2 8.02 2 7 2 C7 7.28 7 12.56 7 18 C10.96 17.505 10.96 17.505 15 17 C15.33 16.01 15.66 15.02 16 14 C16.66 14 17.32 14 18 14 C17.67 15.65 17.34 17.3 17 19 C17.99 19 18.98 19 20 19 C20 13.39 20 7.78 20 2 C19.01 2 18.02 2 17 2 C17 1.34 17 0.68 17 0 C20.3 0 23.6 0 27 0 C27 0.66 27 1.32 27 2 C26.01 2 25.02 2 24 2 C24 7.61 24 13.22 24 19 C24.99 19 25.98 19 27 19 C27 19.66 27 20.32 27 21 C18.09 21 9.18 21 0 21 C0 20.34 0 19.68 0 19 C0.99 19 1.98 19 3 19 C3 13.39 3 7.78 3 2 C2.01 2 1.02 2 0 2 C0 1.34 0 0.68 0 0 Z " fill="#1A171B" transform="translate(220,55)"/>
<path d="M0 0 C2.8100346 1.79363911 4.50940468 3.01880935 6 6 C6.35032356 11.34243433 6.4561069 14.64786539 3 19 C-0.66908557 21.44605705 -3.73618769 21.83946402 -8 21 C-10.69105198 18.82425584 -12.45532928 17.08934144 -14 14 C-14.54724071 8.30869663 -13.59333707 5.43882815 -10 1 C-6.79826746 -0.60086627 -3.47422941 -0.49917089 0 0 Z M-7.67578125 3.13671875 C-9.474981 5.66833609 -9.39985642 7.4178044 -9.375 10.5 C-9.38273438 11.4590625 -9.39046875 12.418125 -9.3984375 13.40625 C-9.19551643 16.02006605 -9.19551643 16.02006605 -7.67578125 17.86328125 C-5.89412394 19.33258156 -5.89412394 19.33258156 -2.8125 18.6875 C-1.884375 18.460625 -0.95625 18.23375 0 18 C1.62077189 12.38963576 2.55579195 8.53754923 0 3 C-3.99887497 1.8153781 -3.99887497 1.8153781 -7.67578125 3.13671875 Z " fill="#19161A" transform="translate(215,55)"/>
<path d="" fill="#1A171B" transform="translate(0,0)"/>
</svg>
